100-italic.ufo
<glyph name="exclam" format="2">
  <advance width="254"/>
  <unicode hex="0021"/>
  <outline>
    <contour>
      <point x="213" y="700" type="line"/>
      <point x="227" y="700" type="line"/>
      <point x="137" y="200" type="line"/>
      <point x="131" y="200" type="line"/>
    </contour>
    <contour>
      <point x="88" y="1" type="curve" smooth="yes"/>
      <point x="88" y="8"/>
      <point x="94" y="12"/>
      <point x="100" y="12" type="curve" smooth="yes"/>
      <point x="106" y="12"/>
      <point x="110" y="8"/>
      <point x="110" y="1" type="curve" smooth="yes"/>
      <point x="110" y="-6"/>
      <point x="106" y="-10"/>
      <point x="100" y="-10" type="curve" smooth="yes"/>
      <point x="94" y="-10"/>
      <point x="88" y="-6"/>
    </contour>
  </outline>
</glyph>
<glyph name="quotedbl" format="2">
  <advance width="391"/>
  <unicode hex="0022"/>
  <outline>
    <contour>
      <point x="227" y="700" type="line"/>
      <point x="240" y="700" type="line"/>
      <point x="141" y="420" type="line"/>
      <point x="134" y="420" type="line"/>
    </contour>
    <contour>
      <point x="402" y="700" type="line"/>
      <point x="415" y="700" type="line"/>
      <point x="316" y="420" type="line"/>
      <point x="308" y="420" type="line"/>
    </contour>
  </outline>
</glyph>
<glyph name="numbersign" format="2">
  <advance width="554"/>
  <unicode hex="0023"/>
  <outline>
    <contour>
      <point x="123" y="454" type="line"/>
      <point x="125" y="465" type="line"/>
      <point x="572" y="465" type="line"/>
      <point x="570" y="454" type="line"/>
      <point x="458" y="454" type="line"/>
      <point x="454" y="454" type="line"/>
      <point x="253" y="454" type="line"/>
      <point x="250" y="454" type="line"/>
    </contour>
    <contour>
      <point x="48" y="240" type="line"/>
      <point x="50" y="251" type="line"/>
      <point x="166" y="251" type="line"/>
      <point x="170" y="251" type="line"/>
      <point x="368" y="251" type="line"/>
      <point x="374" y="251" type="line"/>
      <point x="497" y="251" type="line"/>
      <point x="496" y="240" type="line"/>
    </contour>
    <contour>
      <point x="549" y="700" type="line"/>
      <point x="560" y="700" type="line"/>
      <point x="274" y="0" type="line"/>
      <point x="263" y="0" type="line"/>
      <point x="362" y="244" type="line"/>
      <point x="364" y="246" type="line"/>
      <point x="450" y="458" type="line"/>
      <point x="451" y="462" type="line"/>
    </contour>
    <contour>
      <point x="345" y="700" type="line"/>
      <point x="356" y="700" type="line"/>
      <point x="258" y="462" type="line"/>
      <point x="257" y="458" type="line"/>
      <point x="170" y="244" type="line"/>
      <point x="170" y="243" type="line"/>
      <point x="70" y="0" type="line"/>
      <point x="60" y="0" type="line"/>
    </contour>
  </outline>
</glyph>
<glyph name="dollar" format="2">
  <advance width="562"/>
  <unicode hex="0024"/>
  <outline>
    <contour>
      <point x="350" y="818" type="line"/>
      <point x="360" y="818" type="line"/>
      <point x="340" y="700" type="line"/>
      <point x="330" y="700" type="line"/>
    </contour>
    <contour>
      <point x="226" y="-2" type="line"/>
      <point x="236" y="-2" type="line"/>
      <point x="218" y="-112" type="line"/>
      <point x="208" y="-112" type="line"/>
    </contour>
    <contour>
      <point x="484" y="548" type="line"/>
      <point x="473" y="620"/>
      <point x="432" y="696"/>
      <point x="336" y="696" type="curve" smooth="yes"/>
      <point x="248" y="696"/>
      <point x="169" y="634"/>
      <point x="156" y="550" type="curve" smooth="yes"/>
      <point x="142" y="454"/>
      <point x="226" y="402"/>
      <point x="304" y="368" type="curve" smooth="yes"/>
      <point x="385" y="333"/>
      <point x="453" y="275"/>
      <point x="440" y="175" type="curve" smooth="yes"/>
      <point x="426" y="75"/>
      <point x="354" y="-9"/>
      <point x="230" y="-8" type="curve" smooth="yes"/>
      <point x="111" y="-7"/>
      <point x="68" y="97"/>
      <point x="52" y="193" type="curve"/>
      <point x="62" y="197" type="line"/>
      <point x="76" y="105"/>
      <point x="116" y="5"/>
      <point x="230" y="4" type="curve" smooth="yes"/>
      <point x="346" y="3"/>
      <point x="416" y="77"/>
      <point x="430" y="175" type="curve" smooth="yes"/>
      <point x="442" y="270"/>
      <point x="372" y="326"/>
      <point x="298" y="359" type="curve" smooth="yes"/>
      <point x="220" y="393"/>
      <point x="130" y="448"/>
      <point x="144" y="550" type="curve" smooth="yes"/>
      <point x="157" y="642"/>
      <point x="244" y="708"/>
      <point x="337" y="708" type="curve" smooth="yes"/>
      <point x="440" y="708"/>
      <point x="484" y="626"/>
      <point x="494" y="550" type="curve"/>
    </contour>
  </outline>
</glyph>
<glyph name="percent" format="2">
  <advance width="680"/>
  <unicode hex="0025"/>
  <outline>
    <contour>
      <point x="102" y="560" type="curve" smooth="yes"/>
      <point x="115" y="640"/>
      <point x="183" y="710"/>
      <point x="271" y="710" type="curve" smooth="yes"/>
      <point x="358" y="710"/>
      <point x="402" y="638"/>
      <point x="390" y="560" type="curve" smooth="yes"/>
      <point x="377" y="480"/>
      <point x="309" y="410"/>
      <point x="221" y="410" type="curve" smooth="yes"/>
      <point x="134" y="410"/>
      <point x="90" y="482"/>
    </contour>
    <contour>
      <point x="112" y="560" type="curve" smooth="yes"/>
      <point x="100" y="490"/>
      <point x="140" y="420"/>
      <point x="222" y="420" type="curve" smooth="yes"/>
      <point x="304" y="420"/>
      <point x="368" y="486"/>
      <point x="380" y="560" type="curve" smooth="yes"/>
      <point x="392" y="631"/>
      <point x="351" y="700"/>
      <point x="270" y="700" type="curve" smooth="yes"/>
      <point x="188" y="700"/>
      <point x="124" y="634"/>
    </contour>
    <contour>
      <point x="356" y="140" type="curve" smooth="yes"/>
      <point x="369" y="220"/>
      <point x="436" y="290"/>
      <point x="524" y="290" type="curve" smooth="yes"/>
      <point x="611" y="290"/>
      <point x="656" y="218"/>
      <point x="644" y="140" type="curve" smooth="yes"/>
      <point x="631" y="60"/>
      <point x="562" y="-10"/>
      <point x="474" y="-10" type="curve" smooth="yes"/>
      <point x="387" y="-10"/>
      <point x="344" y="62"/>
    </contour>
    <contour>
      <point x="366" y="140" type="curve" smooth="yes"/>
      <point x="354" y="70"/>
      <point x="392" y="0"/>
      <point x="474" y="0" type="curve" smooth="yes"/>
      <point x="556" y="0"/>
      <point x="622" y="66"/>
      <point x="634" y="140" type="curve" smooth="yes"/>
      <point x="646" y="211"/>
      <point x="605" y="280"/>
      <point x="524" y="280" type="curve" smooth="yes"/>
      <point x="442" y="280"/>
      <point x="378" y="214"/>
    </contour>
    <contour>
      <point x="648" y="699" type="line"/>
      <point x="660" y="699" type="line"/>
      <point x="97" y="0" type="line"/>
      <point x="84" y="0" type="line"/>
    </contour>
  </outline>
</glyph>
<glyph name="ampersand" format="2">
  <advance width="655"/>
  <unicode hex="0026"/>
  <outline>
    <contour>
      <point x="226" y="427" type="line" smooth="yes"/>
      <point x="198" y="469"/>
      <point x="176" y="514"/>
      <point x="184" y="576" type="curve" smooth="yes"/>
      <point x="196" y="651"/>
      <point x="261" y="712"/>
      <point x="352" y="710" type="curve" smooth="yes"/>
      <point x="437" y="709"/>
      <point x="476" y="640"/>
      <point x="466" y="574" type="curve" smooth="yes"/>
      <point x="453" y="498"/>
      <point x="381" y="448"/>
      <point x="298" y="400" type="curve" smooth="yes"/>
      <point x="210" y="350"/>
      <point x="77" y="305"/>
      <point x="58" y="173" type="curve" smooth="yes"/>
      <point x="43" y="68"/>
      <point x="115" y="0"/>
      <point x="220" y="0" type="curve" smooth="yes"/>
      <point x="398" y="-1"/>
      <point x="507" y="188"/>
      <point x="617" y="316" type="curve"/>
      <point x="624" y="310" type="line"/>
      <point x="512" y="180"/>
      <point x="404" y="-10"/>
      <point x="220" y="-10" type="curve" smooth="yes"/>
      <point x="110" y="-10"/>
      <point x="32" y="62"/>
      <point x="48" y="173" type="curve" smooth="yes"/>
      <point x="67" y="309"/>
      <point x="205" y="359"/>
      <point x="292" y="407" type="curve" smooth="yes"/>
      <point x="372" y="452"/>
      <point x="443" y="503"/>
      <point x="456" y="574" type="curve" smooth="yes"/>
      <point x="466" y="634"/>
      <point x="432" y="698"/>
      <point x="352" y="700" type="curve" smooth="yes"/>
      <point x="267" y="702"/>
      <point x="206" y="644"/>
      <point x="194" y="576" type="curve" smooth="yes"/>
      <point x="186" y="516"/>
      <point x="208" y="475"/>
      <point x="234" y="435" type="curve" smooth="yes"/>
      <point x="538" y="0" type="line"/>
      <point x="525" y="0" type="line"/>
    </contour>
  </outline>
</glyph>
<glyph name="quotesingle" format="2">
  <advance width="216"/>
  <unicode hex="0027"/>
  <outline>
    <contour>
      <point x="227" y="700" type="line"/>
      <point x="240" y="700" type="line"/>
      <point x="141" y="420" type="line"/>
      <point x="134" y="420" type="line"/>
    </contour>
  </outline>
</glyph>
<glyph name="parenleft" format="2">
  <advance width="232"/>
  <unicode hex="0028"/>
  <outline>
    <contour>
      <point x="302" y="780" type="curve"/>
      <point x="308" y="780" type="line"/>
      <point x="214" y="626"/>
      <point x="151" y="464"/>
      <point x="124" y="290" type="curve" smooth="yes"/>
      <point x="100" y="126"/>
      <point x="110" y="-37"/>
      <point x="156" y="-200" type="curve"/>
      <point x="151" y="-200" type="line"/>
      <point x="98" y="-42"/>
      <point x="90" y="126"/>
      <point x="114" y="290" type="curve" smooth="yes"/>
      <point x="141" y="464"/>
      <point x="203" y="633"/>
    </contour>
  </outline>
</glyph>
<glyph name="parenright" format="2">
  <advance width="232"/>
  <unicode hex="0029"/>
  <outline>
    <contour>
      <point x="-14" y="-200" type="curve"/>
      <point x="-20" y="-200" type="line"/>
      <point x="74" y="-46"/>
      <point x="136" y="116"/>
      <point x="163" y="290" type="curve" smooth="yes"/>
      <point x="187" y="454"/>
      <point x="178" y="617"/>
      <point x="132" y="780" type="curve"/>
      <point x="137" y="780" type="line"/>
      <point x="190" y="622"/>
      <point x="198" y="454"/>
      <point x="174" y="290" type="curve" smooth="yes"/>
      <point x="147" y="116"/>
      <point x="85" y="-53"/>
    </contour>
  </outline>
</glyph>
<glyph name="asterisk" format="2">
  <advance width="574"/>
  <unicode hex="002A"/>
  <outline>
    <contour>
      <point x="520" y="584" type="line"/>
      <point x="521" y="572" type="line"/>
      <point x="350" y="522" type="line"/>
      <point x="348" y="528" type="line"/>
    </contour>
    <contour>
      <point x="431" y="387" type="line"/>
      <point x="420" y="380" type="line"/>
      <point x="347" y="522" type="line"/>
      <point x="352" y="527" type="line"/>
    </contour>
    <contour>
      <point x="230" y="381" type="line"/>
      <point x="220" y="388" type="line"/>
      <point x="348" y="527" type="line"/>
      <point x="351" y="522" type="line"/>
    </contour>
    <contour>
      <point x="194" y="573" type="line"/>
      <point x="200" y="584" type="line"/>
      <point x="352" y="528" type="line"/>
      <point x="349" y="522" type="line"/>
    </contour>
    <contour>
      <point x="374" y="700" type="line"/>
      <point x="386" y="700" type="line"/>
      <point x="352" y="526" type="line"/>
      <point x="346" y="526" type="line"/>
    </contour>
  </outline>
</glyph>
<glyph name="plus" format="2">
  <advance width="533"/>
  <unicode hex="002B"/>
  <outline>
    <contour>
      <point x="78" y="250" type="line"/>
      <point x="80" y="260" type="line"/>
      <point x="478" y="260" type="line"/>
      <point x="476" y="250" type="line"/>
    </contour>
    <contour>
      <point x="312" y="480" type="line"/>
      <point x="322" y="480" type="line"/>
      <point x="244" y="30" type="line"/>
      <point x="234" y="30" type="line"/>
    </contour>
  </outline>
</glyph>
<glyph name="comma" format="2">
  <advance width="267"/>
  <unicode hex="002C"/>
  <outline>
    <contour>
      <point x="160" y="93" type="line"/>
      <point x="170" y="88" type="line"/>
      <point x="18" y="-160" type="line"/>
      <point x="12" y="-158" type="line"/>
    </contour>
  </outline>
</glyph>
<glyph name="slash" format="2">
  <advance width="460"/>
  <unicode hex="002F"/>
  <outline>
    <contour>
      <point x="528" y="700" type="line"/>
      <point x="540" y="699" type="line"/>
      <point x="-27" y="-150" type="line"/>
      <point x="-39" y="-149" type="line"/>
    </contour>
  </outline>
</glyph>
<glyph name="one" format="2">
  <advance width="397"/>
  <unicode hex="0031"/>
  <outline>
    <contour>
      <point x="176" y="654" type="line"/>
      <point x="178" y="666" type="line"/>
      <point x="360" y="705" type="line"/>
      <point x="239" y="0" type="line"/>
      <point x="230" y="0" type="line"/>
      <point x="348" y="690" type="line"/>
    </contour>
  </outline>
</glyph>
<glyph name="two" format="2">
  <advance width="498"/>
  <unicode hex="0032"/>
  <outline>
    <contour>
      <point x="7" y="0" type="line"/>
      <point x="368" y="334" type="line" smooth="yes"/>
      <point x="422" y="385"/>
      <point x="478" y="438"/>
      <point x="490" y="519" type="curve" smooth="yes"/>
      <point x="504" y="602"/>
      <point x="462" y="700"/>
      <point x="346" y="700" type="curve" smooth="yes"/>
      <point x="219" y="701"/>
      <point x="138" y="585"/>
      <point x="116" y="460" type="curve"/>
      <point x="106" y="460" type="line"/>
      <point x="129" y="592"/>
      <point x="214" y="711"/>
      <point x="346" y="710" type="curve" smooth="yes"/>
      <point x="466" y="709"/>
      <point x="514" y="607"/>
      <point x="500" y="519" type="curve" smooth="yes"/>
      <point x="488" y="439"/>
      <point x="434" y="380"/>
      <point x="378" y="328" type="curve" smooth="yes"/>
      <point x="34" y="10" type="line"/>
      <point x="450" y="10" type="line"/>
      <point x="448" y="0" type="line"/>
    </contour>
  </outline>
</glyph>
<glyph name="three" format="2">
  <advance width="534"/>
  <unicode hex="0033"/>
  <outline>
    <contour>
      <point x="279" y="362" type="curve"/>
      <point x="280" y="370" type="line"/>
      <point x="375" y="376"/>
      <point x="491" y="429"/>
      <point x="508" y="533" type="curve" smooth="yes"/>
      <point x="522" y="617"/>
      <point x="467" y="699"/>
      <point x="365" y="700" type="curve" smooth="yes"/>
      <point x="257" y="701"/>
      <point x="186" y="621"/>
      <point x="165" y="526" type="curve"/>
      <point x="155" y="526" type="line"/>
      <point x="176" y="628"/>
      <point x="252" y="710"/>
      <point x="366" y="710" type="curve" smooth="yes"/>
      <point x="474" y="710"/>
      <point x="532" y="624"/>
      <point x="518" y="534" type="curve" smooth="yes"/>
      <point x="500" y="424"/>
      <point x="385" y="367"/>
    </contour>
    <contour>
      <point x="252" y="-10" type="curve" smooth="yes"/>
      <point x="126" y="-10"/>
      <point x="65" y="77"/>
      <point x="75" y="185" type="curve"/>
      <point x="84" y="185" type="line"/>
      <point x="74" y="81"/>
      <point x="130" y="0"/>
      <point x="252" y="0" type="curve" smooth="yes"/>
      <point x="364" y="0"/>
      <point x="457" y="74"/>
      <point x="472" y="175" type="curve" smooth="yes"/>
      <point x="488" y="294"/>
      <point x="372" y="354"/>
      <point x="278" y="360" type="curve"/>
      <point x="280" y="368" type="line"/>
      <point x="385" y="362"/>
      <point x="500" y="299"/>
      <point x="482" y="175" type="curve" smooth="yes"/>
      <point x="466" y="67"/>
      <point x="370" y="-10"/>
    </contour>
  </outline>
</glyph>
<glyph name="four" format="2">
  <advance width="536"/>
  <unicode hex="0034"/>
  <outline>
    <contour>
      <point x="21" y="140" type="line"/>
      <point x="488" y="700" type="line"/>
      <point x="490" y="700" type="line"/>
      <point x="369" y="0" type="line"/>
      <point x="358" y="0" type="line"/>
      <point x="384" y="142" type="line"/>
      <point x="384" y="147" type="line"/>
      <point x="473" y="664" type="line"/>
      <point x="42" y="150" type="line"/>
      <point x="388" y="150" type="line"/>
      <point x="391" y="150" type="line"/>
      <point x="501" y="150" type="line"/>
      <point x="500" y="140" type="line"/>
    </contour>
  </outline>
</glyph>
<glyph name="five" format="2">
  <advance width="540"/>
  <unicode hex="0035"/>
  <outline>
    <contour>
      <point x="493" y="230" type="curve" smooth="yes"/>
      <point x="475" y="88"/>
      <point x="368" y="-10"/>
      <point x="238" y="-10" type="curve" smooth="yes"/>
      <point x="137" y="-10"/>
      <point x="83" y="49"/>
      <point x="58" y="137" type="curve"/>
      <point x="66" y="142" type="line"/>
      <point x="91" y="57"/>
      <point x="140" y="0"/>
      <point x="238" y="0" type="curve" smooth="yes"/>
      <point x="363" y="0"/>
      <point x="466" y="95"/>
      <point x="484" y="230" type="curve" smooth="yes"/>
      <point x="498" y="336"/>
      <point x="440" y="434"/>
      <point x="332" y="436" type="curve" smooth="yes"/>
      <point x="244" y="437"/>
      <point x="173" y="390"/>
      <point x="115" y="328" type="curve"/>
      <point x="262" y="700" type="line"/>
      <point x="582" y="700" type="line"/>
      <point x="581" y="690" type="line"/>
      <point x="268" y="690" type="line"/>
      <point x="137" y="360" type="line"/>
      <point x="181" y="406"/>
      <point x="249" y="447"/>
      <point x="332" y="446" type="curve" smooth="yes"/>
      <point x="446" y="444"/>
      <point x="507" y="344"/>
    </contour>
  </outline>
</glyph>
<glyph name="six" format="2">
  <advance width="520"/>
  <unicode hex="0036"/>
  <outline>
    <contour>
      <point x="75" y="220" type="curve" smooth="yes"/>
      <point x="59" y="106"/>
      <point x="119" y="0"/>
      <point x="242" y="0" type="curve" smooth="yes"/>
      <point x="366" y="0"/>
      <point x="462" y="100"/>
      <point x="479" y="220" type="curve" smooth="yes"/>
      <point x="493" y="324"/>
      <point x="428" y="424"/>
      <point x="320" y="426" type="curve" smooth="yes"/>
      <point x="190" y="428"/>
      <point x="93" y="328"/>
    </contour>
    <contour>
      <point x="411" y="699" type="line"/>
      <point x="424" y="699" type="line"/>
      <point x="134" y="354" type="line"/>
      <point x="134" y="356" type="line"/>
      <point x="183" y="404"/>
      <point x="246" y="438"/>
      <point x="320" y="437" type="curve" smooth="yes"/>
      <point x="435" y="435"/>
      <point x="502" y="330"/>
      <point x="488" y="220" type="curve" smooth="yes"/>
      <point x="471" y="94"/>
      <point x="374" y="-10"/>
      <point x="242" y="-10" type="curve" smooth="yes"/>
      <point x="110" y="-10"/>
      <point x="48" y="98"/>
      <point x="65" y="220" type="curve" smooth="yes"/>
      <point x="75" y="278"/>
      <point x="109" y="337"/>
      <point x="144" y="379" type="curve" smooth="yes"/>
    </contour>
  </outline>
</glyph>
<glyph name="seven" format="2">
  <advance width="499"/>
  <unicode hex="0037"/>
  <outline>
    <contour>
      <point x="123" y="690" type="line"/>
      <point x="124" y="700" type="line"/>
      <point x="582" y="700" type="line"/>
      <point x="114" y="0" type="line"/>
      <point x="102" y="0" type="line"/>
      <point x="564" y="690" type="line"/>
    </contour>
  </outline>
</glyph>
<glyph name="eight" format="2">
  <advance width="500"/>
  <unicode hex="0038"/>
  <outline>
    <contour>
      <point x="148" y="541" type="curve" smooth="yes"/>
      <point x="162" y="629"/>
      <point x="246" y="710"/>
      <point x="344" y="710" type="curve" smooth="yes"/>
      <point x="440" y="710"/>
      <point x="498" y="625"/>
      <point x="484" y="540" type="curve" smooth="yes"/>
      <point x="470" y="447"/>
      <point x="376" y="368"/>
      <point x="286" y="368" type="curve" smooth="yes"/>
      <point x="198" y="368"/>
      <point x="135" y="451"/>
    </contour>
    <contour>
      <point x="157" y="541" type="curve" smooth="yes"/>
      <point x="145" y="457"/>
      <point x="208" y="377"/>
      <point x="286" y="376" type="curve" smooth="yes"/>
      <point x="366" y="375"/>
      <point x="460" y="453"/>
      <point x="474" y="541" type="curve" smooth="yes"/>
      <point x="488" y="622"/>
      <point x="435" y="700"/>
      <point x="344" y="700" type="curve" smooth="yes"/>
      <point x="252" y="700"/>
      <point x="171" y="625"/>
    </contour>
    <contour>
      <point x="67" y="185" type="curve" smooth="yes"/>
      <point x="84" y="288"/>
      <point x="183" y="372"/>
      <point x="286" y="372" type="curve" smooth="yes"/>
      <point x="387" y="372"/>
      <point x="456" y="285"/>
      <point x="442" y="185" type="curve" smooth="yes"/>
      <point x="426" y="79"/>
      <point x="340" y="-10"/>
      <point x="222" y="-10" type="curve" smooth="yes"/>
      <point x="104" y="-10"/>
      <point x="51" y="83"/>
    </contour>
    <contour>
      <point x="77" y="185" type="curve" smooth="yes"/>
      <point x="61" y="87"/>
      <point x="112" y="0"/>
      <point x="222" y="0" type="curve" smooth="yes"/>
      <point x="332" y="0"/>
      <point x="416" y="83"/>
      <point x="432" y="185" type="curve" smooth="yes"/>
      <point x="446" y="280"/>
      <point x="380" y="364"/>
      <point x="286" y="364" type="curve" smooth="yes"/>
      <point x="190" y="364"/>
      <point x="93" y="284"/>
    </contour>
  </outline>
</glyph>
<glyph name="nine" format="2">
  <advance width="520"/>
  <unicode hex="0039"/>
  <outline>
    <contour>
      <point x="519" y="480" type="curve" smooth="yes"/>
      <point x="535" y="594"/>
      <point x="474" y="700"/>
      <point x="351" y="700" type="curve" smooth="yes"/>
      <point x="227" y="700"/>
      <point x="132" y="600"/>
      <point x="115" y="480" type="curve" smooth="yes"/>
      <point x="101" y="376"/>
      <point x="166" y="276"/>
      <point x="274" y="274" type="curve" smooth="yes"/>
      <point x="404" y="272"/>
      <point x="501" y="372"/>
    </contour>
    <contour>
      <point x="182" y="0" type="line"/>
      <point x="170" y="0" type="line"/>
      <point x="458" y="345" type="line"/>
      <point x="460" y="344" type="line"/>
      <point x="411" y="296"/>
      <point x="348" y="262"/>
      <point x="274" y="263" type="curve" smooth="yes"/>
      <point x="159" y="265"/>
      <point x="91" y="370"/>
      <point x="105" y="480" type="curve" smooth="yes"/>
      <point x="122" y="606"/>
      <point x="220" y="710"/>
      <point x="352" y="710" type="curve" smooth="yes"/>
      <point x="484" y="710"/>
      <point x="545" y="602"/>
      <point x="528" y="480" type="curve" smooth="yes"/>
      <point x="518" y="422"/>
      <point x="485" y="363"/>
      <point x="450" y="321" type="curve" smooth="yes"/>
    </contour>
  </outline>
</glyph>
<glyph name="colon" format="2">
  <advance width="291"/>
  <unicode hex="003A"/>
  <outline>
    <contour>
      <point x="88" y="1" type="curve" smooth="yes"/>
      <point x="88" y="7"/>
      <point x="93" y="12"/>
      <point x="99" y="12" type="curve" smooth="yes"/>
      <point x="105" y="12"/>
      <point x="110" y="7"/>
      <point x="110" y="1" type="curve" smooth="yes"/>
      <point x="110" y="-5"/>
      <point x="105" y="-10"/>
      <point x="99" y="-10" type="curve" smooth="yes"/>
      <point x="93" y="-10"/>
      <point x="88" y="-5"/>
    </contour>
    <contour>
      <point x="148" y="349" type="curve" smooth="yes"/>
      <point x="148" y="355"/>
      <point x="152" y="360"/>
      <point x="158" y="360" type="curve" smooth="yes"/>
      <point x="164" y="360"/>
      <point x="170" y="355"/>
      <point x="170" y="349" type="curve" smooth="yes"/>
      <point x="170" y="343"/>
      <point x="164" y="338"/>
      <point x="158" y="338" type="curve" smooth="yes"/>
      <point x="152" y="338"/>
      <point x="148" y="343"/>
    </contour>
  </outline>
</glyph>
<glyph name="semicolon" format="2">
  <advance width="267"/>
  <unicode hex="003B"/>
  <outline>
    <contour>
      <point x="176" y="349" type="curve" smooth="yes"/>
      <point x="176" y="355"/>
      <point x="182" y="360"/>
      <point x="188" y="360" type="curve" smooth="yes"/>
      <point x="194" y="360"/>
      <point x="198" y="355"/>
      <point x="198" y="349" type="curve" smooth="yes"/>
      <point x="198" y="343"/>
      <point x="194" y="338"/>
      <point x="188" y="338" type="curve" smooth="yes"/>
      <point x="182" y="338"/>
      <point x="176" y="343"/>
    </contour>
    <contour>
      <point x="160" y="93" type="line"/>
      <point x="170" y="88" type="line"/>
      <point x="18" y="-160" type="line"/>
      <point x="12" y="-158" type="line"/>
    </contour>
  </outline>
</glyph>
<glyph name="less" format="2">
  <advance width="621"/>
  <unicode hex="003C"/>
  <outline>
    <contour>
      <point x="96" y="256" type="line"/>
      <point x="540" y="55" type="line"/>
      <point x="539" y="46" type="line"/>
      <point x="79" y="254" type="line"/>
      <point x="80" y="260" type="line"/>
      <point x="611" y="470" type="line"/>
      <point x="610" y="460" type="line"/>
    </contour>
  </outline>
</glyph>
<glyph name="greater" format="2">
  <advance width="621"/>
  <unicode hex="003E"/>
  <outline>
    <contour>
      <point x="558" y="258" type="line"/>
      <point x="114" y="460" type="line"/>
      <point x="116" y="470" type="line"/>
      <point x="576" y="261" type="line"/>
      <point x="574" y="255" type="line"/>
      <point x="44" y="46" type="line"/>
      <point x="45" y="56" type="line"/>
    </contour>
  </outline>
</glyph>
<glyph name="question" format="2">
  <advance width="525"/>
  <unicode hex="003F"/>
  <outline>
    <contour>
      <point x="500" y="520" type="curve" smooth="yes"/>
      <point x="516" y="616"/>
      <point x="460" y="700"/>
      <point x="349" y="700" type="curve" smooth="yes"/>
      <point x="259" y="700"/>
      <point x="196" y="650"/>
      <point x="144" y="588" type="curve"/>
      <point x="136" y="594" type="line"/>
      <point x="190" y="658"/>
      <point x="256" y="710"/>
      <point x="350" y="710" type="curve" smooth="yes"/>
      <point x="466" y="709"/>
      <point x="527" y="624"/>
      <point x="510" y="520" type="curve" smooth="yes"/>
      <point x="490" y="414"/>
      <point x="378" y="345"/>
      <point x="258" y="337" type="curve"/>
      <point x="230" y="170" type="line"/>
      <point x="222" y="170" type="line"/>
      <point x="247" y="345" type="line"/>
      <point x="248" y="345" type="line"/>
      <point x="369" y="351"/>
      <point x="480" y="415"/>
    </contour>
    <contour>
      <point x="180" y="1" type="curve" smooth="yes"/>
      <point x="180" y="7"/>
      <point x="186" y="12"/>
      <point x="192" y="12" type="curve" smooth="yes"/>
      <point x="198" y="12"/>
      <point x="202" y="7"/>
      <point x="202" y="1" type="curve" smooth="yes"/>
      <point x="202" y="-6"/>
      <point x="197" y="-10"/>
      <point x="191" y="-10" type="curve" smooth="yes"/>
      <point x="185" y="-10"/>
      <point x="180" y="-6"/>
    </contour>
  </outline>
</glyph>
<glyph name="at" format="2">
  <advance width="747"/>
  <unicode hex="0040"/>
  <outline>
    <contour>
      <point x="237" y="320" type="curve" smooth="yes"/>
      <point x="227" y="248"/>
      <point x="256" y="176"/>
      <point x="330" y="174" type="curve" smooth="yes"/>
      <point x="422" y="172"/>
      <point x="498" y="276"/>
      <point x="512" y="370" type="curve" smooth="yes"/>
      <point x="521" y="435"/>
      <point x="500" y="513"/>
      <point x="428" y="516" type="curve" smooth="yes"/>
      <point x="336" y="520"/>
      <point x="251" y="429"/>
    </contour>
    <contour>
      <point x="226" y="320" type="curve" smooth="yes"/>
      <point x="241" y="436"/>
      <point x="332" y="531"/>
      <point x="430" y="528" type="curve" smooth="yes"/>
      <point x="510" y="526"/>
      <point x="531" y="441"/>
      <point x="521" y="367" type="curve" smooth="yes"/>
      <point x="507" y="269"/>
      <point x="425" y="164"/>
      <point x="331" y="164" type="curve" smooth="yes"/>
      <point x="250" y="164"/>
      <point x="216" y="238"/>
    </contour>
    <contour>
      <point x="61" y="320" type="curve" smooth="yes"/>
      <point x="95" y="530"/>
      <point x="273" y="710"/>
      <point x="496" y="708" type="curve" smooth="yes"/>
      <point x="686" y="707"/>
      <point x="779" y="546"/>
      <point x="753" y="390" type="curve" smooth="yes"/>
      <point x="737" y="262"/>
      <point x="634" y="146"/>
      <point x="538" y="152" type="curve" smooth="yes"/>
      <point x="469" y="156"/>
      <point x="474" y="224"/>
      <point x="490" y="290" type="curve"/>
      <point x="488" y="290" type="line"/>
      <point x="567" y="520" type="line"/>
      <point x="579" y="520" type="line"/>
      <point x="498" y="289" type="line" smooth="yes"/>
      <point x="495" y="280"/>
      <point x="492" y="264"/>
      <point x="490" y="254" type="curve" smooth="yes"/>
      <point x="484" y="219"/>
      <point x="486" y="168"/>
      <point x="540" y="164" type="curve" smooth="yes"/>
      <point x="632" y="155"/>
      <point x="727" y="274"/>
      <point x="742" y="390" type="curve" smooth="yes"/>
      <point x="768" y="540"/>
      <point x="679" y="695"/>
      <point x="495" y="697" type="curve" smooth="yes"/>
      <point x="277" y="699"/>
      <point x="106" y="526"/>
      <point x="72" y="320" type="curve" smooth="yes"/>
      <point x="46" y="146"/>
      <point x="128" y="6"/>
      <point x="318" y="4" type="curve" smooth="yes"/>
      <point x="416" y="3"/>
      <point x="495" y="30"/>
      <point x="562" y="60" type="curve"/>
      <point x="567" y="50" type="line"/>
      <point x="497" y="20"/>
      <point x="416" y="-8"/>
      <point x="316" y="-8" type="curve" smooth="yes"/>
      <point x="119" y="-6"/>
      <point x="33" y="140"/>
    </contour>
  </outline>
</glyph>
<glyph name="B" format="2">
  <advance width="480"/>
  <unicode hex="0042"/>
  <outline>
    <contour>
      <point x="133" y="386" type="line"/>
      <point x="134" y="394" type="line"/>
      <point x="234" y="394" type="line"/>
      <point x="332" y="396"/>
      <point x="424" y="439"/>
      <point x="440" y="540" type="curve" smooth="yes"/>
      <point x="456" y="634"/>
      <point x="389" y="689"/>
      <point x="285" y="689" type="curve" smooth="yes"/>
      <point x="188" y="689" type="line"/>
      <point x="72" y="11" type="line"/>
      <point x="178" y="11" type="line" smooth="yes"/>
      <point x="302" y="11"/>
      <point x="399" y="76"/>
      <point x="418" y="200" type="curve" smooth="yes"/>
      <point x="434" y="309"/>
      <point x="342" y="384"/>
      <point x="242" y="384" type="curve" smooth="yes"/>
      <point x="132" y="384" type="line"/>
      <point x="134" y="392" type="line"/>
      <point x="252" y="392" type="line" smooth="yes"/>
      <point x="346" y="392"/>
      <point x="446" y="316"/>
      <point x="430" y="200" type="curve" smooth="yes"/>
      <point x="411" y="69"/>
      <point x="307" y="0"/>
      <point x="177" y="0" type="curve" smooth="yes"/>
      <point x="60" y="0" type="line"/>
      <point x="180" y="700" type="line"/>
      <point x="286" y="700" type="line" smooth="yes"/>
      <point x="396" y="700"/>
      <point x="469" y="640"/>
      <point x="452" y="540" type="curve" smooth="yes"/>
      <point x="436" y="436"/>
      <point x="345" y="388"/>
      <point x="243" y="386" type="curve"/>
    </contour>
  </outline>
</glyph>
<glyph name="D" format="2">
  <advance width="616"/>
  <unicode hex="0044"/>
  <outline>
    <contour>
      <point x="180" y="700" type="line"/>
      <point x="191" y="700" type="line"/>
      <point x="70" y="0" type="line"/>
      <point x="60" y="0" type="line"/>
    </contour>
    <contour>
      <point x="216" y="0" type="curve" smooth="yes"/>
      <point x="65" y="0" type="line"/>
      <point x="67" y="11" type="line"/>
      <point x="217" y="11" type="line" smooth="yes"/>
      <point x="416" y="11"/>
      <point x="559" y="157"/>
      <point x="590" y="350" type="curve" smooth="yes"/>
      <point x="618" y="533"/>
      <point x="530" y="689"/>
      <point x="334" y="689" type="curve" smooth="yes"/>
      <point x="182" y="689" type="line"/>
      <point x="184" y="700" type="line"/>
      <point x="334" y="700" type="line" smooth="yes"/>
      <point x="535" y="700"/>
      <point x="628" y="538"/>
      <point x="600" y="350" type="curve" smooth="yes"/>
      <point x="568" y="152"/>
      <point x="420" y="0"/>
    </contour>
  </outline>
</glyph>
<glyph name="F" format="2">
  <advance width="436"/>
  <unicode hex="0046"/>
  <outline>
    <contour>
      <point x="180" y="689" type="line"/>
      <point x="182" y="700" type="line"/>
      <point x="471" y="700" type="line"/>
      <point x="469" y="689" type="line"/>
    </contour>
    <contour>
      <point x="126" y="373" type="line"/>
      <point x="128" y="383" type="line"/>
      <point x="407" y="383" type="line"/>
      <point x="406" y="373" type="line"/>
    </contour>
    <contour>
      <point x="180" y="700" type="line"/>
      <point x="191" y="700" type="line"/>
      <point x="70" y="0" type="line"/>
      <point x="60" y="0" type="line"/>
    </contour>
  </outline>
</glyph>
<glyph name="H" format="2">
  <advance width="627"/>
  <unicode hex="0048"/>
  <outline>
    <contour>
      <point x="128" y="377" type="line"/>
      <point x="129" y="387" type="line"/>
      <point x="576" y="387" type="line"/>
      <point x="574" y="377" type="line"/>
    </contour>
    <contour>
      <point x="622" y="700" type="line"/>
      <point x="634" y="700" type="line"/>
      <point x="513" y="0" type="line"/>
      <point x="502" y="0" type="line"/>
    </contour>
    <contour>
      <point x="180" y="700" type="line"/>
      <point x="191" y="700" type="line"/>
      <point x="70" y="0" type="line"/>
      <point x="60" y="0" type="line"/>
    </contour>
  </outline>
</glyph>
<glyph name="I" format="2">
  <advance width="174"/>
  <unicode hex="0049"/>
  <outline>
    <contour>
      <point x="176" y="700" type="line"/>
      <point x="186" y="700" type="line"/>
      <point x="64" y="0" type="line"/>
      <point x="54" y="0" type="line"/>
    </contour>
  </outline>
</glyph>
<glyph name="J" format="2">
  <advance width="191"/>
  <unicode hex="004A"/>
  <outline>
    <contour>
      <point x="-178" y="-158" type="line"/>
      <point x="-154" y="-184"/>
      <point x="-122" y="-208"/>
      <point x="-80" y="-208" type="curve" smooth="yes"/>
      <point x="10" y="-210"/>
      <point x="44" y="-145"/>
      <point x="58" y="-50" type="curve" smooth="yes"/>
      <point x="186" y="700" type="line"/>
      <point x="197" y="700" type="line"/>
      <point x="67" y="-60" type="line" smooth="yes"/>
      <point x="53" y="-153"/>
      <point x="14" y="-222"/>
      <point x="-80" y="-220" type="curve" smooth="yes"/>
      <point x="-128" y="-220"/>
      <point x="-166" y="-191"/>
      <point x="-186" y="-165" type="curve"/>
    </contour>
  </outline>
</glyph>
<glyph name="L" format="2">
  <advance width="417"/>
  <unicode hex="004C"/>
  <outline>
    <contour>
      <point x="180" y="700" type="line"/>
      <point x="190" y="700" type="line"/>
      <point x="72" y="10" type="line"/>
      <point x="372" y="10" type="line"/>
      <point x="371" y="0" type="line"/>
      <point x="60" y="0" type="line"/>
    </contour>
  </outline>
</glyph>
<glyph name="M" format="2">
  <advance width="805"/>
  <unicode hex="004D"/>
  <outline>
    <contour>
      <point x="226" y="674" type="line"/>
      <point x="41" y="0" type="line"/>
      <point x="30" y="0" type="line"/>
      <point x="226" y="715" type="line"/>
      <point x="398" y="132" type="line"/>
      <point x="770" y="716" type="line"/>
      <point x="720" y="0" type="line"/>
      <point x="709" y="0" type="line"/>
      <point x="756" y="674" type="line"/>
      <point x="394" y="104" type="line"/>
    </contour>
  </outline>
</glyph>
<glyph name="N" format="2">
  <advance width="675"/>
  <unicode hex="004E"/>
  <outline>
    <contour>
      <point x="680" y="700" type="line"/>
      <point x="690" y="700" type="line"/>
      <point x="568" y="-15" type="line"/>
      <point x="168" y="678" type="line"/>
      <point x="52" y="0" type="line"/>
      <point x="40" y="0" type="line"/>
      <point x="164" y="715" type="line"/>
      <point x="562" y="17" type="line"/>
    </contour>
  </outline>
</glyph>
<glyph name="P" format="2">
  <advance width="465"/>
  <unicode hex="0050"/>
  <outline>
    <contour>
      <point x="180" y="700" type="line"/>
      <point x="191" y="700" type="line"/>
      <point x="70" y="0" type="line"/>
      <point x="60" y="0" type="line"/>
    </contour>
    <contour>
      <point x="184" y="690" type="line"/>
      <point x="186" y="700" type="line"/>
      <point x="300" y="700" type="line" smooth="yes"/>
      <point x="420" y="700"/>
      <point x="494" y="616"/>
      <point x="476" y="497" type="curve" smooth="yes"/>
      <point x="456" y="374"/>
      <point x="356" y="294"/>
      <point x="232" y="294" type="curve" smooth="yes"/>
      <point x="117" y="294" type="line"/>
      <point x="118" y="304" type="line"/>
      <point x="233" y="304" type="line" smooth="yes"/>
      <point x="351" y="304"/>
      <point x="445" y="380"/>
      <point x="464" y="497" type="curve" smooth="yes"/>
      <point x="482" y="611"/>
      <point x="416" y="690"/>
      <point x="300" y="690" type="curve" smooth="yes"/>
    </contour>
  </outline>
</glyph>
<glyph name="Q" format="2">
  <advance width="748"/>
  <unicode hex="0051"/>
  <outline>
    <contour>
      <point x="92" y="350" type="curve" smooth="yes"/>
      <point x="66" y="172"/>
      <point x="156" y="3"/>
      <point x="348" y="3" type="curve" smooth="yes"/>
      <point x="542" y="3"/>
      <point x="694" y="162"/>
      <point x="724" y="350" type="curve" smooth="yes"/>
      <point x="750" y="528"/>
      <point x="660" y="697"/>
      <point x="468" y="697" type="curve" smooth="yes"/>
      <point x="274" y="697"/>
      <point x="122" y="538"/>
    </contour>
    <contour>
      <point x="81" y="350" type="curve" smooth="yes"/>
      <point x="111" y="546"/>
      <point x="270" y="708"/>
      <point x="468" y="708" type="curve" smooth="yes"/>
      <point x="664" y="708"/>
      <point x="763" y="536"/>
      <point x="736" y="350" type="curve" smooth="yes"/>
      <point x="706" y="154"/>
      <point x="546" y="-8"/>
      <point x="348" y="-8" type="curve" smooth="yes"/>
      <point x="152" y="-8"/>
      <point x="54" y="164"/>
    </contour>
    <contour>
      <point x="412" y="300" type="line"/>
      <point x="427" y="300" type="line"/>
      <point x="688" y="0" type="line"/>
      <point x="672" y="0" type="line"/>
    </contour>
  </outline>
</glyph>
<glyph name="R" format="2">
  <advance width="454"/>
  <unicode hex="0052"/>
  <outline>
    <contour>
      <point x="220" y="317" type="line"/>
      <point x="232" y="317" type="line"/>
      <point x="393" y="0" type="line"/>
      <point x="380" y="0" type="line"/>
    </contour>
    <contour>
      <point x="180" y="700" type="line"/>
      <point x="191" y="700" type="line"/>
      <point x="70" y="0" type="line"/>
      <point x="60" y="0" type="line"/>
    </contour>
    <contour>
      <point x="180" y="689" type="line"/>
      <point x="182" y="700" type="line"/>
      <point x="291" y="700" type="line" smooth="yes"/>
      <point x="415" y="700"/>
      <point x="508" y="631"/>
      <point x="488" y="507" type="curve" smooth="yes"/>
      <point x="468" y="381"/>
      <point x="356" y="316"/>
      <point x="226" y="314" type="curve"/>
      <point x="116" y="314" type="line"/>
      <point x="118" y="324" type="line"/>
      <point x="226" y="324" type="line"/>
      <point x="351" y="326"/>
      <point x="457" y="387"/>
      <point x="477" y="507" type="curve" smooth="yes"/>
      <point x="497" y="625"/>
      <point x="410" y="687"/>
      <point x="290" y="689" type="curve"/>
    </contour>
  </outline>
</glyph>
<glyph name="S" format="2">
  <advance width="473"/>
  <unicode hex="0053"/>
  <outline>
    <contour>
      <point x="62" y="192" type="line"/>
      <point x="67" y="102"/>
      <point x="103" y="5"/>
      <point x="221" y="4" type="curve" smooth="yes"/>
      <point x="329" y="3"/>
      <point x="406" y="76"/>
      <point x="422" y="172" type="curve" smooth="yes"/>
      <point x="436" y="270"/>
      <point x="370" y="324"/>
      <point x="294" y="359" type="curve" smooth="yes"/>
      <point x="208" y="398"/>
      <point x="128" y="450"/>
      <point x="144" y="552" type="curve" smooth="yes"/>
      <point x="158" y="644"/>
      <point x="241" y="708"/>
      <point x="335" y="708" type="curve" smooth="yes"/>
      <point x="435" y="708"/>
      <point x="479" y="634"/>
      <point x="488" y="564" type="curve"/>
      <point x="478" y="561" type="line"/>
      <point x="468" y="626"/>
      <point x="430" y="696"/>
      <point x="334" y="696" type="curve" smooth="yes"/>
      <point x="246" y="696"/>
      <point x="169" y="638"/>
      <point x="155" y="552" type="curve" smooth="yes"/>
      <point x="139" y="455"/>
      <point x="215" y="406"/>
      <point x="300" y="368" type="curve" smooth="yes"/>
      <point x="380" y="332"/>
      <point x="447" y="275"/>
      <point x="433" y="172" type="curve" smooth="yes"/>
      <point x="417" y="70"/>
      <point x="334" y="-9"/>
      <point x="220" y="-8" type="curve" smooth="yes"/>
      <point x="98" y="-7"/>
      <point x="59" y="91"/>
      <point x="52" y="189" type="curve"/>
    </contour>
  </outline>
</glyph>
<glyph name="V" format="2">
  <advance width="582"/>
  <unicode hex="0056"/>
  <outline>
    <contour>
      <point x="276" y="15" type="line"/>
      <point x="646" y="700" type="line"/>
      <point x="659" y="700" type="line"/>
      <point x="271" y="-15" type="line"/>
      <point x="106" y="700" type="line"/>
      <point x="118" y="700" type="line"/>
    </contour>
  </outline>
</glyph>
<glyph name="W" format="2">
  <advance width="921"/>
  <unicode hex="0057"/>
  <outline>
    <contour>
      <point x="660" y="26" type="line"/>
      <point x="983" y="700" type="line"/>
      <point x="994" y="700" type="line"/>
      <point x="654" y="-16" type="line"/>
      <point x="548" y="676" type="line"/>
      <point x="228" y="-16" type="line"/>
      <point x="110" y="700" type="line"/>
      <point x="121" y="700" type="line"/>
      <point x="234" y="26" type="line"/>
      <point x="554" y="716" type="line"/>
    </contour>
  </outline>
</glyph>
<glyph name="X" format="2">
  <advance width="485"/>
  <unicode hex="0058"/>
  <outline>
    <contour>
      <point x="528" y="699" type="line"/>
      <point x="542" y="699" type="line"/>
      <point x="290" y="366" type="line"/>
      <point x="449" y="0" type="line"/>
      <point x="436" y="0" type="line"/>
      <point x="283" y="356" type="line"/>
      <point x="16" y="0" type="line"/>
      <point x="2" y="0" type="line"/>
      <point x="278" y="368" type="line"/>
      <point x="134" y="700" type="line"/>
      <point x="148" y="700" type="line"/>
      <point x="286" y="378" type="line"/>
    </contour>
  </outline>
</glyph>
<glyph name="Y" format="2">
  <advance width="492"/>
  <unicode hex="0059"/>
  <outline>
    <contour>
      <point x="558" y="699" type="line"/>
      <point x="570" y="699" type="line"/>
      <point x="265" y="266" type="line"/>
      <point x="219" y="0" type="line"/>
      <point x="208" y="0" type="line"/>
      <point x="254" y="266" type="line"/>
      <point x="107" y="700" type="line"/>
      <point x="120" y="700" type="line"/>
      <point x="261" y="282" type="line"/>
    </contour>
  </outline>
</glyph>
<glyph name="bracketleft" format="2">
  <advance width="252"/>
  <unicode hex="005B"/>
  <outline>
    <contour>
      <point x="210" y="769" type="line"/>
      <point x="58" y="-209" type="line"/>
      <point x="184" y="-209" type="line"/>
      <point x="182" y="-220" type="line"/>
      <point x="46" y="-220" type="line"/>
      <point x="200" y="780" type="line"/>
      <point x="336" y="780" type="line"/>
      <point x="334" y="769" type="line"/>
    </contour>
  </outline>
</glyph>
<glyph name="backslash" format="2">
  <advance width="422"/>
  <unicode hex="005C"/>
  <outline>
    <contour>
      <point x="107" y="700" type="line"/>
      <point x="120" y="700" type="line"/>
      <point x="380" y="0" type="line"/>
      <point x="368" y="0" type="line"/>
    </contour>
  </outline>
</glyph>
<glyph name="bracketright" format="2">
  <advance width="252"/>
  <unicode hex="005D"/>
  <outline>
    <contour>
      <point x="95" y="-209" type="line"/>
      <point x="246" y="769" type="line"/>
      <point x="120" y="769" type="line"/>
      <point x="122" y="780" type="line"/>
      <point x="258" y="780" type="line"/>
      <point x="104" y="-220" type="line"/>
      <point x="-32" y="-220" type="line"/>
      <point x="-30" y="-209" type="line"/>
    </contour>
  </outline>
</glyph>
<glyph name="underscore" format="2">
  <advance width="485"/>
  <unicode hex="005F"/>
  <outline>
    <contour>
      <point x="-46" y="-109" type="line"/>
      <point x="-44" y="-98" type="line"/>
      <point x="442" y="-98" type="line"/>
      <point x="440" y="-109" type="line"/>
    </contour>
  </outline>
</glyph>
<glyph name="grave" format="2">
  <advance width="342"/>
  <unicode hex="0060"/>
  <outline>
    <contour>
      <point x="186" y="692" type="line"/>
      <point x="194" y="700" type="line"/>
      <point x="336" y="540" type="line"/>
      <point x="331" y="536" type="line"/>
    </contour>
  </outline>
</glyph>
<glyph name="c" format="2">
  <advance width="473"/>
  <unicode hex="0063"/>
  <outline>
    <contour>
      <point x="66" y="230" type="curve" smooth="yes"/>
      <point x="50" y="110"/>
      <point x="122" y="0"/>
      <point x="248" y="0" type="curve" smooth="yes"/>
      <point x="316" y="0"/>
      <point x="372" y="32"/>
      <point x="408" y="60" type="curve"/>
      <point x="406" y="48" type="line"/>
      <point x="370" y="20"/>
      <point x="313" y="-10"/>
      <point x="247" y="-10" type="curve" smooth="yes"/>
      <point x="115" y="-10"/>
      <point x="40" y="104"/>
      <point x="57" y="230" type="curve" smooth="yes"/>
      <point x="75" y="362"/>
      <point x="186" y="470"/>
      <point x="320" y="470" type="curve" smooth="yes"/>
      <point x="382" y="470"/>
      <point x="434" y="442"/>
      <point x="462" y="412" type="curve"/>
      <point x="460" y="400" type="line"/>
      <point x="433" y="432"/>
      <point x="382" y="460"/>
      <point x="319" y="460" type="curve" smooth="yes"/>
      <point x="192" y="460"/>
      <point x="84" y="356"/>
    </contour>
  </outline>
</glyph>
<glyph name="e" format="2">
  <advance width="502"/>
  <unicode hex="0065"/>
  <outline>
    <contour>
      <point x="225" y="-10" type="curve" smooth="yes"/>
      <point x="124" y="-10"/>
      <point x="55" y="74"/>
      <point x="55" y="197" type="curve" smooth="yes"/>
      <point x="55" y="333"/>
      <point x="174" y="470"/>
      <point x="304" y="470" type="curve" smooth="yes"/>
      <point x="400" y="470"/>
      <point x="470" y="382"/>
      <point x="470" y="279" type="curve" smooth="yes"/>
      <point x="470" y="263"/>
      <point x="466" y="244"/>
      <point x="460" y="228" type="curve"/>
      <point x="68" y="228" type="line"/>
      <point x="68" y="238" type="line"/>
      <point x="454" y="238" type="line"/>
      <point x="448" y="229" type="line"/>
      <point x="453" y="240"/>
      <point x="460" y="258"/>
      <point x="460" y="280" type="curve" smooth="yes"/>
      <point x="460" y="378"/>
      <point x="395" y="460"/>
      <point x="304" y="460" type="curve" smooth="yes"/>
      <point x="180" y="460"/>
      <point x="65" y="327"/>
      <point x="65" y="197" type="curve" smooth="yes"/>
      <point x="65" y="81"/>
      <point x="130" y="0"/>
      <point x="225" y="0" type="curve" smooth="yes"/>
      <point x="307" y="0"/>
      <point x="372" y="38"/>
      <point x="426" y="113" type="curve"/>
      <point x="434" y="107" type="line"/>
      <point x="377" y="29"/>
      <point x="309" y="-10"/>
    </contour>
  </outline>
</glyph>
<glyph name="f" format="2">
  <advance width="269"/>
  <unicode hex="0066"/>
  <outline>
    <contour>
      <point x="100" y="460" type="line"/>
      <point x="289" y="460" type="line"/>
      <point x="288" y="450" type="line"/>
      <point x="98" y="450" type="line"/>
    </contour>
    <contour>
      <point x="372" y="733" type="line"/>
      <point x="357" y="754"/>
      <point x="337" y="777"/>
      <point x="304" y="778" type="curve" smooth="yes"/>
      <point x="229" y="780"/>
      <point x="197" y="706"/>
      <point x="186" y="650" type="curve" smooth="yes"/>
      <point x="74" y="0" type="line"/>
      <point x="64" y="0" type="line"/>
      <point x="176" y="650" type="line" smooth="yes"/>
      <point x="188" y="715"/>
      <point x="224" y="790"/>
      <point x="304" y="788" type="curve" smooth="yes"/>
      <point x="342" y="787"/>
      <point x="363" y="762"/>
      <point x="379" y="740" type="curve"/>
    </contour>
  </outline>
</glyph>
<glyph name="i" format="2">
  <advance width="184"/>
  <unicode hex="0069"/>
  <outline>
    <contour>
      <point x="174" y="695" type="curve" smooth="yes"/>
      <point x="174" y="701"/>
      <point x="178" y="705"/>
      <point x="184" y="705" type="curve" smooth="yes"/>
      <point x="190" y="705"/>
      <point x="194" y="701"/>
      <point x="194" y="695" type="curve" smooth="yes"/>
      <point x="194" y="689"/>
      <point x="190" y="685"/>
      <point x="184" y="685" type="curve" smooth="yes"/>
      <point x="178" y="685"/>
      <point x="174" y="689"/>
    </contour>
    <contour>
      <point x="140" y="460" type="line"/>
      <point x="150" y="460" type="line"/>
      <point x="70" y="0" type="line"/>
      <point x="60" y="0" type="line"/>
    </contour>
  </outline>
</glyph>
<glyph name="j" format="2">
  <advance width="174"/>
  <unicode hex="006A"/>
  <outline>
    <contour>
      <point x="164" y="695" type="curve" smooth="yes"/>
      <point x="164" y="701"/>
      <point x="168" y="705"/>
      <point x="174" y="705" type="curve" smooth="yes"/>
      <point x="180" y="705"/>
      <point x="184" y="701"/>
      <point x="184" y="695" type="curve" smooth="yes"/>
      <point x="184" y="689"/>
      <point x="180" y="685"/>
      <point x="174" y="685" type="curve" smooth="yes"/>
      <point x="168" y="685"/>
      <point x="164" y="689"/>
    </contour>
    <contour>
      <point x="-149" y="-165" type="line"/>
      <point x="-135" y="-185"/>
      <point x="-114" y="-210"/>
      <point x="-82" y="-210" type="curve" smooth="yes"/>
      <point x="-6" y="-210"/>
      <point x="26" y="-136"/>
      <point x="36" y="-82" type="curve" smooth="yes"/>
      <point x="130" y="460" type="line"/>
      <point x="140" y="460" type="line"/>
      <point x="46" y="-82" type="line" smooth="yes"/>
      <point x="34" y="-147"/>
      <point x="-2" y="-220"/>
      <point x="-82" y="-220" type="curve" smooth="yes"/>
      <point x="-120" y="-220"/>
      <point x="-141" y="-194"/>
      <point x="-157" y="-172" type="curve"/>
    </contour>
  </outline>
</glyph>
<glyph name="k" format="2">
  <advance width="361"/>
  <unicode hex="006B"/>
  <outline>
    <contour>
      <point x="184" y="780" type="line"/>
      <point x="194" y="780" type="line"/>
      <point x="60" y="0" type="line"/>
      <point x="50" y="0" type="line"/>
    </contour>
    <contour>
      <point x="370" y="459" type="line"/>
      <point x="386" y="459" type="line"/>
      <point x="117" y="270" type="line"/>
      <point x="324" y="0" type="line"/>
      <point x="312" y="0" type="line"/>
      <point x="104" y="270" type="line"/>
    </contour>
  </outline>
</glyph>
<glyph name="l" format="2">
  <advance width="174"/>
  <unicode hex="006C"/>
  <outline>
    <contour>
      <point x="189" y="780" type="line"/>
      <point x="199" y="780" type="line"/>
      <point x="64" y="0" type="line"/>
      <point x="54" y="0" type="line"/>
    </contour>
  </outline>
</glyph>
<glyph name="m" format="2">
  <advance width="669"/>
  <unicode hex="006D"/>
  <outline>
    <contour>
      <point x="615" y="320" type="curve" smooth="yes"/>
      <point x="560" y="0" type="line"/>
      <point x="550" y="0" type="line"/>
      <point x="605" y="320" type="line" smooth="yes"/>
      <point x="613" y="386"/>
      <point x="603" y="458"/>
      <point x="530" y="460" type="curve" smooth="yes"/>
      <point x="451" y="462"/>
      <point x="377" y="376"/>
      <point x="364" y="290" type="curve" smooth="yes"/>
      <point x="312" y="0" type="line"/>
      <point x="302" y="0" type="line"/>
      <point x="358" y="320" type="line" smooth="yes"/>
      <point x="366" y="386"/>
      <point x="355" y="458"/>
      <point x="282" y="460" type="curve" smooth="yes"/>
      <point x="204" y="462"/>
      <point x="131" y="376"/>
      <point x="117" y="290" type="curve" smooth="yes"/>
      <point x="64" y="0" type="line"/>
      <point x="54" y="0" type="line"/>
      <point x="134" y="460" type="line"/>
      <point x="144" y="460" type="line"/>
      <point x="124" y="336" type="line"/>
      <point x="148" y="408"/>
      <point x="212" y="472"/>
      <point x="283" y="470" type="curve" smooth="yes"/>
      <point x="357" y="468"/>
      <point x="376" y="403"/>
      <point x="370" y="339" type="curve"/>
      <point x="402" y="417"/>
      <point x="459" y="472"/>
      <point x="530" y="470" type="curve" smooth="yes"/>
      <point x="609" y="468"/>
      <point x="624" y="394"/>
    </contour>
  </outline>
</glyph>
<glyph name="n" format="2">
  <advance width="460"/>
  <unicode hex="006E"/>
  <outline>
    <contour>
      <point x="396" y="320" type="line" smooth="yes"/>
      <point x="406" y="392"/>
      <point x="388" y="459"/>
      <point x="302" y="460" type="curve" smooth="yes"/>
      <point x="210" y="461"/>
      <point x="131" y="379"/>
      <point x="117" y="290" type="curve" smooth="yes"/>
      <point x="64" y="0" type="line"/>
      <point x="54" y="0" type="line"/>
      <point x="134" y="460" type="line"/>
      <point x="144" y="460" type="line"/>
      <point x="124" y="336" type="line"/>
      <point x="150" y="412"/>
      <point x="218" y="470"/>
      <point x="302" y="470" type="curve" smooth="yes"/>
      <point x="394" y="470"/>
      <point x="416" y="399"/>
      <point x="406" y="320" type="curve" smooth="yes"/>
      <point x="350" y="0" type="line"/>
      <point x="341" y="0" type="line"/>
    </contour>
  </outline>
</glyph>
<glyph name="o" format="2">
  <advance width="539"/>
  <unicode hex="006F"/>
  <outline>
    <contour>
      <point x="62" y="230" type="curve" smooth="yes"/>
      <point x="80" y="362"/>
      <point x="190" y="470"/>
      <point x="324" y="470" type="curve" smooth="yes"/>
      <point x="456" y="470"/>
      <point x="531" y="356"/>
      <point x="514" y="230" type="curve" smooth="yes"/>
      <point x="496" y="98"/>
      <point x="386" y="-10"/>
      <point x="252" y="-10" type="curve" smooth="yes"/>
      <point x="120" y="-10"/>
      <point x="45" y="104"/>
    </contour>
    <contour>
      <point x="72" y="230" type="curve" smooth="yes"/>
      <point x="56" y="110"/>
      <point x="126" y="0"/>
      <point x="252" y="0" type="curve" smooth="yes"/>
      <point x="379" y="0"/>
      <point x="486" y="104"/>
      <point x="504" y="230" type="curve" smooth="yes"/>
      <point x="520" y="350"/>
      <point x="450" y="460"/>
      <point x="324" y="460" type="curve" smooth="yes"/>
      <point x="197" y="460"/>
      <point x="90" y="356"/>
    </contour>
  </outline>
</glyph>
<glyph name="p" format="2">
  <advance width="525"/>
  <unicode hex="0070"/>
  <outline>
    <contour>
      <point x="22" y="-220" type="line"/>
      <point x="12" y="-220" type="line"/>
      <point x="130" y="460" type="line"/>
      <point x="140" y="460" type="line"/>
    </contour>
    <contour>
      <point x="494" y="230" type="curve" smooth="yes"/>
      <point x="474" y="98"/>
      <point x="372" y="-12"/>
      <point x="246" y="-10" type="curve" smooth="yes"/>
      <point x="122" y="-8"/>
      <point x="78" y="124"/>
      <point x="94" y="230" type="curve" smooth="yes"/>
      <point x="112" y="344"/>
      <point x="202" y="470"/>
      <point x="327" y="470" type="curve" smooth="yes"/>
      <point x="453" y="470"/>
      <point x="511" y="354"/>
    </contour>
    <contour>
      <point x="484" y="230" type="curve" smooth="yes"/>
      <point x="500" y="349"/>
      <point x="446" y="461"/>
      <point x="324" y="460" type="curve" smooth="yes"/>
      <point x="210" y="459"/>
      <point x="118" y="340"/>
      <point x="100" y="230" type="curve" smooth="yes"/>
      <point x="85" y="128"/>
      <point x="130" y="2"/>
      <point x="244" y="0" type="curve" smooth="yes"/>
      <point x="366" y="-2"/>
      <point x="465" y="104"/>
    </contour>
  </outline>
</glyph>
<glyph name="s" format="2">
  <advance width="391"/>
  <unicode hex="0073"/>
  <outline>
    <contour>
      <point x="56" y="132" type="line"/>
      <point x="58" y="68"/>
      <point x="84" y="0"/>
      <point x="174" y="0" type="curve" smooth="yes"/>
      <point x="244" y="0"/>
      <point x="305" y="47"/>
      <point x="314" y="117" type="curve" smooth="yes"/>
      <point x="323" y="181"/>
      <point x="270" y="211"/>
      <point x="210" y="231" type="curve" smooth="yes"/>
      <point x="144" y="253"/>
      <point x="91" y="279"/>
      <point x="103" y="359" type="curve" smooth="yes"/>
      <point x="113" y="427"/>
      <point x="174" y="468"/>
      <point x="240" y="468" type="curve" smooth="yes"/>
      <point x="314" y="468"/>
      <point x="347" y="422"/>
      <point x="361" y="368" type="curve"/>
      <point x="351" y="365" type="line"/>
      <point x="338" y="415"/>
      <point x="310" y="458"/>
      <point x="240" y="458" type="curve" smooth="yes"/>
      <point x="179" y="459"/>
      <point x="123" y="421"/>
      <point x="113" y="359" type="curve" smooth="yes"/>
      <point x="101" y="283"/>
      <point x="154" y="261"/>
      <point x="216" y="240" type="curve" smooth="yes"/>
      <point x="276" y="220"/>
      <point x="333" y="186"/>
      <point x="324" y="117" type="curve" smooth="yes"/>
      <point x="314" y="43"/>
      <point x="250" y="-10"/>
      <point x="174" y="-10" type="curve" smooth="yes"/>
      <point x="78" y="-10"/>
      <point x="48" y="61"/>
      <point x="46" y="130" type="curve"/>
    </contour>
  </outline>
</glyph>
<glyph name="t" format="2">
  <advance width="184"/>
  <unicode hex="0074"/>
  <outline>
    <contour>
      <point x="68" y="460" type="line"/>
      <point x="224" y="460" type="line"/>
      <point x="222" y="450" type="line"/>
      <point x="66" y="450" type="line"/>
    </contour>
    <contour>
      <point x="166" y="620" type="line"/>
      <point x="176" y="620" type="line"/>
      <point x="70" y="0" type="line"/>
      <point x="60" y="0" type="line"/>
    </contour>
  </outline>
</glyph>
<glyph name="u" format="2">
  <advance width="460"/>
  <unicode hex="0075"/>
  <outline>
    <contour>
      <point x="90" y="150" type="line" smooth="yes"/>
      <point x="80" y="72"/>
      <point x="95" y="1"/>
      <point x="184" y="1" type="curve" smooth="yes"/>
      <point x="278" y="0"/>
      <point x="357" y="87"/>
      <point x="370" y="172" type="curve" smooth="yes"/>
      <point x="420" y="460" type="line"/>
      <point x="430" y="460" type="line"/>
      <point x="351" y="0" type="line"/>
      <point x="341" y="0" type="line"/>
      <point x="360" y="120" type="line"/>
      <point x="329" y="46"/>
      <point x="267" y="-11"/>
      <point x="183" y="-10" type="curve" smooth="yes"/>
      <point x="88" y="-10"/>
      <point x="69" y="66"/>
      <point x="80" y="150" type="curve" smooth="yes"/>
      <point x="134" y="460" type="line"/>
      <point x="144" y="460" type="line"/>
    </contour>
  </outline>
</glyph>
<glyph name="v" format="2">
  <advance width="407"/>
  <unicode hex="0076"/>
  <outline>
    <contour>
      <point x="64" y="460" type="line"/>
      <point x="75" y="460" type="line"/>
      <point x="188" y="10" type="line"/>
      <point x="440" y="460" type="line"/>
      <point x="452" y="460" type="line"/>
      <point x="184" y="-15" type="line"/>
    </contour>
  </outline>
</glyph>
<glyph name="w" format="2">
  <advance width="601"/>
  <unicode hex="0077"/>
  <outline>
    <contour>
      <point x="66" y="460" type="line"/>
      <point x="76" y="460" type="line"/>
      <point x="132" y="19" type="line"/>
      <point x="350" y="476" type="line"/>
      <point x="420" y="18" type="line"/>
      <point x="630" y="460" type="line"/>
      <point x="640" y="460" type="line"/>
      <point x="414" y="-16" type="line"/>
      <point x="345" y="440" type="line"/>
      <point x="126" y="-16" type="line"/>
    </contour>
  </outline>
</glyph>
<glyph name="x" format="2">
  <advance width="368"/>
  <unicode hex="0078"/>
  <outline>
    <contour>
      <point x="389" y="459" type="line"/>
      <point x="403" y="459" type="line"/>
      <point x="210" y="236" type="line"/>
      <point x="342" y="0" type="line"/>
      <point x="328" y="0" type="line"/>
      <point x="203" y="229" type="line"/>
      <point x="7" y="0" type="line"/>
      <point x="-8" y="0" type="line"/>
      <point x="198" y="238" type="line"/>
      <point x="73" y="460" type="line"/>
      <point x="86" y="460" type="line"/>
      <point x="205" y="245" type="line"/>
    </contour>
  </outline>
</glyph>
<glyph name="y" format="2">
  <advance width="412"/>
  <unicode hex="0079"/>
  <outline>
    <contour>
      <point x="455" y="460" type="line"/>
      <point x="46" y="-220" type="line"/>
      <point x="36" y="-219" type="line"/>
      <point x="180" y="20" type="line"/>
      <point x="61" y="460" type="line"/>
      <point x="72" y="460" type="line"/>
      <point x="191" y="20" type="line"/>
      <point x="180" y="20" type="line"/>
      <point x="444" y="460" type="line"/>
    </contour>
  </outline>
</glyph>
<glyph name="z" format="2">
  <advance width="417"/>
  <unicode hex="007A"/>
  <outline>
    <contour>
      <point x="417" y="450" type="line"/>
      <point x="88" y="450" type="line"/>
      <point x="90" y="460" type="line"/>
      <point x="440" y="460" type="line"/>
      <point x="14" y="10" type="line"/>
      <point x="372" y="10" type="line"/>
      <point x="371" y="0" type="line"/>
      <point x="-8" y="0" type="line"/>
    </contour>
  </outline>
</glyph>
<glyph name="braceleft" format="2">
  <advance width="272"/>
  <unicode hex="007B"/>
  <outline>
    <contour>
      <point x="225" y="640" type="curve" smooth="yes"/>
      <point x="193" y="430" type="line" smooth="yes"/>
      <point x="183" y="356"/>
      <point x="148" y="302"/>
      <point x="104" y="288" type="curve"/>
      <point x="106" y="292" type="line"/>
      <point x="144" y="274"/>
      <point x="158" y="220"/>
      <point x="150" y="150" type="curve" smooth="yes"/>
      <point x="117" y="-60" type="line" smooth="yes"/>
      <point x="109" y="-134"/>
      <point x="109" y="-190"/>
      <point x="178" y="-190" type="curve" smooth="yes"/>
      <point x="198" y="-190" type="line"/>
      <point x="196" y="-200" type="line"/>
      <point x="176" y="-200" type="line" smooth="yes"/>
      <point x="99" y="-200"/>
      <point x="100" y="-138"/>
      <point x="108" y="-60" type="curve" smooth="yes"/>
      <point x="140" y="150" type="line" smooth="yes"/>
      <point x="147" y="212"/>
      <point x="136" y="259"/>
      <point x="104" y="285" type="curve"/>
      <point x="106" y="295" type="line"/>
      <point x="146" y="317"/>
      <point x="173" y="364"/>
      <point x="183" y="430" type="curve" smooth="yes"/>
      <point x="215" y="640" type="line" smooth="yes"/>
      <point x="226" y="723"/>
      <point x="251" y="780"/>
      <point x="327" y="780" type="curve" smooth="yes"/>
      <point x="347" y="780" type="line"/>
      <point x="346" y="770" type="line"/>
      <point x="326" y="770" type="line" smooth="yes"/>
      <point x="258" y="770"/>
      <point x="235" y="718"/>
    </contour>
  </outline>
</glyph>
<glyph name="bar" format="2">
  <advance width="203"/>
  <unicode hex="007C"/>
  <outline>
    <contour>
      <point x="201" y="785" type="line"/>
      <point x="211" y="785" type="line"/>
      <point x="56" y="-215" type="line"/>
      <point x="46" y="-215" type="line"/>
    </contour>
  </outline>
</glyph>
<glyph name="braceright" format="2">
  <advance width="272"/>
  <unicode hex="007D"/>
  <outline>
    <contour>
      <point x="102" y="-60" type="curve" smooth="yes"/>
      <point x="134" y="150" type="line" smooth="yes"/>
      <point x="144" y="224"/>
      <point x="179" y="278"/>
      <point x="223" y="292" type="curve"/>
      <point x="222" y="288" type="line"/>
      <point x="184" y="306"/>
      <point x="170" y="360"/>
      <point x="178" y="430" type="curve" smooth="yes"/>
      <point x="210" y="640" type="line" smooth="yes"/>
      <point x="218" y="714"/>
      <point x="219" y="770"/>
      <point x="150" y="770" type="curve" smooth="yes"/>
      <point x="130" y="770" type="line"/>
      <point x="132" y="780" type="line"/>
      <point x="151" y="780" type="line" smooth="yes"/>
      <point x="228" y="780"/>
      <point x="228" y="718"/>
      <point x="220" y="640" type="curve" smooth="yes"/>
      <point x="188" y="430" type="line" smooth="yes"/>
      <point x="181" y="368"/>
      <point x="192" y="321"/>
      <point x="224" y="295" type="curve"/>
      <point x="222" y="285" type="line"/>
      <point x="182" y="263"/>
      <point x="155" y="216"/>
      <point x="145" y="150" type="curve" smooth="yes"/>
      <point x="113" y="-60" type="line" smooth="yes"/>
      <point x="102" y="-143"/>
      <point x="76" y="-200"/>
      <point x="0" y="-200" type="curve" smooth="yes"/>
      <point x="-19" y="-200" type="line"/>
      <point x="-18" y="-190" type="line"/>
      <point x="2" y="-190" type="line" smooth="yes"/>
      <point x="70" y="-190"/>
      <point x="92" y="-138"/>
    </contour>
  </outline>
</glyph>
<glyph name="asciitilde" format="2">
  <advance width="558"/>
  <unicode hex="007E"/>
  <outline>
    <contour>
      <point x="96" y="178" type="curve"/>
      <point x="86" y="182" type="line"/>
      <point x="86" y="190"/>
      <point x="85" y="198"/>
      <point x="86" y="206" type="curve" smooth="yes"/>
      <point x="91" y="238"/>
      <point x="105" y="268"/>
      <point x="126" y="290" type="curve" smooth="yes"/>
      <point x="147" y="312"/>
      <point x="178" y="326"/>
      <point x="212" y="326" type="curve" smooth="yes"/>
      <point x="265" y="326"/>
      <point x="291" y="284"/>
      <point x="314" y="250" type="curve" smooth="yes"/>
      <point x="334" y="220"/>
      <point x="358" y="182"/>
      <point x="402" y="182" type="curve" smooth="yes"/>
      <point x="460" y="181"/>
      <point x="496" y="234"/>
      <point x="504" y="290" type="curve" smooth="yes"/>
      <point x="506" y="299"/>
      <point x="506" y="310"/>
      <point x="504" y="320" type="curve"/>
      <point x="514" y="318" type="line"/>
      <point x="514" y="310"/>
      <point x="516" y="300"/>
      <point x="514" y="290" type="curve" smooth="yes"/>
      <point x="510" y="260"/>
      <point x="498" y="228"/>
      <point x="479" y="207" type="curve" smooth="yes"/>
      <point x="461" y="187"/>
      <point x="432" y="172"/>
      <point x="402" y="172" type="curve" smooth="yes"/>
      <point x="354" y="172"/>
      <point x="329" y="210"/>
      <point x="306" y="243" type="curve" smooth="yes"/>
      <point x="284" y="274"/>
      <point x="261" y="316"/>
      <point x="211" y="316" type="curve" smooth="yes"/>
      <point x="145" y="316"/>
      <point x="103" y="261"/>
      <point x="95" y="200" type="curve" smooth="yes"/>
      <point x="94" y="193"/>
      <point x="95" y="186"/>
    </contour>
  </outline>
</glyph>
<glyph name="exclamdown" format="2">
  <advance width="291"/>
  <unicode hex="00A1"/>
  <outline>
    <contour>
      <point x="102" y="-244" type="line"/>
      <point x="88" y="-244" type="line"/>
      <point x="178" y="254" type="line"/>
      <point x="184" y="254" type="line"/>
    </contour>
    <contour>
      <point x="225" y="454" type="curve" smooth="yes"/>
      <point x="225" y="448"/>
      <point x="218" y="443"/>
      <point x="212" y="443" type="curve" smooth="yes"/>
      <point x="206" y="443"/>
      <point x="204" y="448"/>
      <point x="204" y="454" type="curve" smooth="yes"/>
      <point x="204" y="460"/>
      <point x="210" y="465"/>
      <point x="216" y="465" type="curve" smooth="yes"/>
      <point x="222" y="465"/>
      <point x="225" y="460"/>
    </contour>
  </outline>
</glyph>
<glyph name="cent" format="2">
  <advance width="562"/>
  <unicode hex="00A2"/>
  <outline>
    <contour>
      <point x="280" y="-4" type="line"/>
      <point x="284" y="-4" type="line"/>
      <point x="268" y="-112" type="line"/>
      <point x="255" y="-112" type="line"/>
    </contour>
    <contour>
      <point x="105" y="230" type="curve" smooth="yes"/>
      <point x="87" y="112"/>
      <point x="156" y="0"/>
      <point x="282" y="0" type="curve" smooth="yes"/>
      <point x="350" y="0"/>
      <point x="408" y="32"/>
      <point x="444" y="60" type="curve"/>
      <point x="442" y="48" type="line"/>
      <point x="406" y="20"/>
      <point x="348" y="-10"/>
      <point x="282" y="-10" type="curve" smooth="yes"/>
      <point x="150" y="-10"/>
      <point x="78" y="105"/>
      <point x="96" y="230" type="curve" smooth="yes"/>
      <point x="117" y="362"/>
      <point x="228" y="470"/>
      <point x="362" y="470" type="curve" smooth="yes"/>
      <point x="424" y="470"/>
      <point x="476" y="443"/>
      <point x="504" y="412" type="curve"/>
      <point x="502" y="400" type="line"/>
      <point x="476" y="432"/>
      <point x="424" y="460"/>
      <point x="362" y="460" type="curve" smooth="yes"/>
      <point x="234" y="460"/>
      <point x="125" y="354"/>
    </contour>
    <contour>
      <point x="374" y="578" type="line"/>
      <point x="388" y="578" type="line"/>
      <point x="362" y="464" type="line"/>
      <point x="358" y="464" type="line"/>
    </contour>
  </outline>
</glyph>
<glyph name="sterling" format="2">
  <advance width="562"/>
  <unicode hex="00A3"/>
  <outline>
    <contour>
      <point x="109" y="305" type="line"/>
      <point x="410" y="305" type="line"/>
      <point x="408" y="295" type="line"/>
      <point x="108" y="295" type="line"/>
    </contour>
    <contour>
      <point x="524" y="498" type="line"/>
      <point x="532" y="578"/>
      <point x="511" y="699"/>
      <point x="395" y="700" type="curve" smooth="yes"/>
      <point x="297" y="701"/>
      <point x="220" y="620"/>
      <point x="206" y="538" type="curve" smooth="yes"/>
      <point x="190" y="429"/>
      <point x="293" y="365"/>
      <point x="278" y="264" type="curve" smooth="yes"/>
      <point x="260" y="154"/>
      <point x="131" y="64"/>
      <point x="78" y="0" type="curve"/>
      <point x="76" y="10" type="line"/>
      <point x="457" y="10" type="line"/>
      <point x="456" y="0" type="line"/>
      <point x="64" y="0" type="line"/>
      <point x="145" y="90"/>
      <point x="250" y="162"/>
      <point x="268" y="264" type="curve" smooth="yes"/>
      <point x="283" y="362"/>
      <point x="180" y="428"/>
      <point x="196" y="538" type="curve" smooth="yes"/>
      <point x="211" y="628"/>
      <point x="292" y="710"/>
      <point x="396" y="710" type="curve" smooth="yes"/>
      <point x="522" y="710"/>
      <point x="542" y="581"/>
      <point x="534" y="498" type="curve"/>
    </contour>
  </outline>
</glyph>
<glyph name="currency" format="2">
  <advance width="543"/>
  <unicode hex="00A4"/>
  <outline>
    <contour>
      <point x="117" y="523" type="line"/>
      <point x="128" y="533" type="line"/>
      <point x="180" y="469" type="line"/>
      <point x="169" y="460" type="line"/>
    </contour>
    <contour>
      <point x="49" y="68" type="line"/>
      <point x="41" y="78" type="line"/>
      <point x="114" y="140" type="line"/>
      <point x="122" y="130" type="line"/>
    </contour>
    <contour>
      <point x="487" y="460" type="line"/>
      <point x="478" y="470" type="line"/>
      <point x="552" y="532" type="line"/>
      <point x="560" y="522" type="line"/>
    </contour>
    <contour>
      <point x="421" y="131" type="line"/>
      <point x="432" y="140" type="line"/>
      <point x="483" y="77" type="line"/>
      <point x="473" y="67" type="line"/>
    </contour>
    <contour>
      <point x="74" y="300" type="curve" smooth="yes"/>
      <point x="94" y="430"/>
      <point x="206" y="540"/>
      <point x="336" y="540" type="curve" smooth="yes"/>
      <point x="464" y="540"/>
      <point x="536" y="424"/>
      <point x="518" y="300" type="curve" smooth="yes"/>
      <point x="498" y="170"/>
      <point x="386" y="60"/>
      <point x="256" y="60" type="curve" smooth="yes"/>
      <point x="128" y="60"/>
      <point x="56" y="176"/>
    </contour>
    <contour>
      <point x="84" y="300" type="curve" smooth="yes"/>
      <point x="66" y="184"/>
      <point x="134" y="70"/>
      <point x="256" y="70" type="curve" smooth="yes"/>
      <point x="380" y="70"/>
      <point x="488" y="177"/>
      <point x="508" y="300" type="curve" smooth="yes"/>
      <point x="526" y="416"/>
      <point x="458" y="530"/>
      <point x="336" y="530" type="curve" smooth="yes"/>
      <point x="212" y="530"/>
      <point x="104" y="423"/>
    </contour>
  </outline>
</glyph>
<glyph name="brokenbar" format="2">
  <advance width="203"/>
  <unicode hex="00A6"/>
  <outline>
    <contour>
      <point x="190" y="694" type="line"/>
      <point x="200" y="694" type="line"/>
      <point x="156" y="456" type="line"/>
      <point x="146" y="456" type="line"/>
    </contour>
    <contour>
      <point x="122" y="244" type="line"/>
      <point x="80" y="6" type="line"/>
      <point x="70" y="6" type="line"/>
      <point x="112" y="244" type="line"/>
    </contour>
  </outline>
</glyph>
<glyph name="section" format="2">
  <advance width="386"/>
  <unicode hex="00A7"/>
  <outline>
    <contour>
      <point x="425" y="616" type="line"/>
      <point x="406" y="668"/>
      <point x="351" y="700"/>
      <point x="290" y="700" type="curve" smooth="yes"/>
      <point x="230" y="700"/>
      <point x="152" y="667"/>
      <point x="142" y="599" type="curve" smooth="yes"/>
      <point x="132" y="531"/>
      <point x="223" y="505"/>
      <point x="272" y="483" type="curve" smooth="yes"/>
      <point x="330" y="457"/>
      <point x="402" y="427"/>
      <point x="392" y="360" type="curve" smooth="yes"/>
      <point x="380" y="276"/>
      <point x="301" y="244"/>
      <point x="213" y="240" type="curve"/>
      <point x="212" y="240" type="line"/>
      <point x="292" y="260"/>
      <point x="372" y="286"/>
      <point x="382" y="360" type="curve" smooth="yes"/>
      <point x="390" y="420"/>
      <point x="313" y="454"/>
      <point x="264" y="475" type="curve" smooth="yes"/>
      <point x="206" y="499"/>
      <point x="120" y="524"/>
      <point x="132" y="599" type="curve" smooth="yes"/>
      <point x="143" y="672"/>
      <point x="218" y="710"/>
      <point x="290" y="710" type="curve" smooth="yes"/>
      <point x="358" y="710"/>
      <point x="414" y="675"/>
      <point x="432" y="620" type="curve"/>
    </contour>
    <contour>
      <point x="32" y="127" type="line"/>
      <point x="40" y="57"/>
      <point x="99" y="1"/>
      <point x="181" y="0" type="curve" smooth="yes"/>
      <point x="244" y="-1"/>
      <point x="326" y="26"/>
      <point x="338" y="100" type="curve" smooth="yes"/>
      <point x="350" y="176"/>
      <point x="274" y="206"/>
      <point x="216" y="233" type="curve" smooth="yes"/>
      <point x="160" y="259"/>
      <point x="81" y="292"/>
      <point x="91" y="360" type="curve" smooth="yes"/>
      <point x="104" y="432"/>
      <point x="177" y="476"/>
      <point x="271" y="480" type="curve"/>
      <point x="272" y="480" type="line"/>
      <point x="188" y="463"/>
      <point x="111" y="422"/>
      <point x="101" y="358" type="curve" smooth="yes"/>
      <point x="93" y="294"/>
      <point x="176" y="263"/>
      <point x="224" y="241" type="curve" smooth="yes"/>
      <point x="285" y="213"/>
      <point x="360" y="181"/>
      <point x="348" y="100" type="curve" smooth="yes"/>
      <point x="336" y="24"/>
      <point x="256" y="-10"/>
      <point x="180" y="-10" type="curve" smooth="yes"/>
      <point x="97" y="-10"/>
      <point x="31" y="47"/>
      <point x="23" y="123" type="curve"/>
    </contour>
  </outline>
</glyph>
<glyph name="dieresis" format="2">
  <advance width="409"/>
  <unicode hex="00A8"/>
  <outline>
    <contour>
      <point x="380" y="689" type="curve" smooth="yes"/>
      <point x="380" y="695"/>
      <point x="386" y="700"/>
      <point x="392" y="700" type="curve" smooth="yes"/>
      <point x="398" y="700"/>
      <point x="402" y="695"/>
      <point x="402" y="689" type="curve" smooth="yes"/>
      <point x="402" y="683"/>
      <point x="395" y="678"/>
      <point x="389" y="678" type="curve" smooth="yes"/>
      <point x="383" y="678"/>
      <point x="380" y="683"/>
    </contour>
    <contour>
      <point x="186" y="689" type="curve" smooth="yes"/>
      <point x="186" y="695"/>
      <point x="192" y="700"/>
      <point x="198" y="700" type="curve" smooth="yes"/>
      <point x="204" y="700"/>
      <point x="208" y="695"/>
      <point x="208" y="689" type="curve" smooth="yes"/>
      <point x="208" y="683"/>
      <point x="201" y="678"/>
      <point x="195" y="678" type="curve" smooth="yes"/>
      <point x="189" y="678"/>
      <point x="186" y="683"/>
    </contour>
  </outline>
</glyph>
<glyph name="copyright" format="2">
  <advance width="776"/>
  <unicode hex="00A9"/>
  <outline>
    <contour>
      <point x="229" y="350" type="curve" smooth="yes"/>
      <point x="215" y="244"/>
      <point x="269" y="143"/>
      <point x="382" y="142" type="curve" smooth="yes"/>
      <point x="438" y="142"/>
      <point x="482" y="162"/>
      <point x="522" y="192" type="curve"/>
      <point x="520" y="182" type="line"/>
      <point x="480" y="154"/>
      <point x="438" y="136"/>
      <point x="382" y="136" type="curve" smooth="yes"/>
      <point x="265" y="137"/>
      <point x="207" y="238"/>
      <point x="222" y="350" type="curve" smooth="yes"/>
      <point x="238" y="467"/>
      <point x="329" y="564"/>
      <point x="447" y="564" type="curve" smooth="yes"/>
      <point x="501" y="564"/>
      <point x="538" y="548"/>
      <point x="572" y="518" type="curve"/>
      <point x="570" y="508" type="line"/>
      <point x="538" y="541"/>
      <point x="498" y="558"/>
      <point x="447" y="558" type="curve" smooth="yes"/>
      <point x="333" y="558"/>
      <point x="245" y="464"/>
    </contour>
    <contour>
      <point x="86" y="350" type="curve" smooth="yes"/>
      <point x="60" y="165"/>
      <point x="178" y="0"/>
      <point x="370" y="0" type="curve" smooth="yes"/>
      <point x="566" y="0"/>
      <point x="736" y="157"/>
      <point x="764" y="350" type="curve" smooth="yes"/>
      <point x="790" y="535"/>
      <point x="672" y="700"/>
      <point x="480" y="700" type="curve" smooth="yes"/>
      <point x="284" y="700"/>
      <point x="114" y="543"/>
    </contour>
    <contour>
      <point x="76" y="350" type="curve" smooth="yes"/>
      <point x="105" y="550"/>
      <point x="275" y="710"/>
      <point x="480" y="710" type="curve" smooth="yes"/>
      <point x="682" y="710"/>
      <point x="800" y="542"/>
      <point x="774" y="350" type="curve" smooth="yes"/>
      <point x="745" y="150"/>
      <point x="575" y="-10"/>
      <point x="370" y="-10" type="curve" smooth="yes"/>
      <point x="168" y="-10"/>
      <point x="50" y="158"/>
    </contour>
  </outline>
</glyph>
<glyph name="ordfeminine" format="2">
  <advance width="230"/>
  <unicode hex="00AA"/>
  <outline>
    <contour>
      <point x="92" y="528" type="curve" smooth="yes"/>
      <point x="86" y="486"/>
      <point x="114" y="461"/>
      <point x="150" y="460" type="curve" smooth="yes"/>
      <point x="196" y="459"/>
      <point x="231" y="501"/>
      <point x="243" y="540" type="curve"/>
      <point x="246" y="539" type="line"/>
      <point x="234" y="498"/>
      <point x="201" y="455"/>
      <point x="150" y="456" type="curve" smooth="yes"/>
      <point x="111" y="457"/>
      <point x="82" y="484"/>
      <point x="88" y="528" type="curve" smooth="yes"/>
      <point x="95" y="573"/>
      <point x="144" y="600"/>
      <point x="188" y="600" type="curve" smooth="yes"/>
      <point x="218" y="600"/>
      <point x="236" y="588"/>
      <point x="250" y="578" type="curve"/>
      <point x="250" y="572" type="line"/>
      <point x="235" y="584"/>
      <point x="216" y="596"/>
      <point x="188" y="596" type="curve" smooth="yes"/>
      <point x="147" y="597"/>
      <point x="98" y="571"/>
    </contour>
    <contour>
      <point x="132" y="662" type="curve"/>
      <point x="129" y="666" type="line"/>
      <point x="149" y="681"/>
      <point x="177" y="702"/>
      <point x="210" y="700" type="curve" smooth="yes"/>
      <point x="253" y="698"/>
      <point x="266" y="664"/>
      <point x="262" y="625" type="curve"/>
      <point x="233" y="460" type="line"/>
      <point x="228" y="460" type="line"/>
      <point x="258" y="625" type="line"/>
      <point x="262" y="662"/>
      <point x="250" y="692"/>
      <point x="210" y="694" type="curve" smooth="yes"/>
      <point x="179" y="696"/>
      <point x="152" y="678"/>
    </contour>
  </outline>
</glyph>
<glyph name="guillemotleft" format="2">
  <advance width="470"/>
  <unicode hex="00AB"/>
  <outline>
    <contour>
      <point x="220" y="255" type="line"/>
      <point x="380" y="27" type="line"/>
      <point x="372" y="20" type="line"/>
      <point x="210" y="256" type="line"/>
      <point x="452" y="489" type="line"/>
      <point x="458" y="482" type="line"/>
    </contour>
    <contour>
      <point x="64" y="255" type="line"/>
      <point x="225" y="27" type="line"/>
      <point x="218" y="20" type="line"/>
      <point x="55" y="256" type="line"/>
      <point x="298" y="489" type="line"/>
      <point x="304" y="482" type="line"/>
    </contour>
  </outline>
</glyph>
<glyph name="logicalnot" format="2">
  <advance width="601"/>
  <unicode hex="00AC"/>
  <outline>
    <contour>
      <point x="98" y="365" type="line"/>
      <point x="100" y="375" type="line"/>
      <point x="576" y="375" type="line"/>
      <point x="540" y="176" type="line"/>
      <point x="530" y="176" type="line"/>
      <point x="564" y="365" type="line"/>
    </contour>
  </outline>
</glyph>
<glyph name="registered" format="2">
  <advance width="776"/>
  <unicode hex="00AE"/>
  <outline>
    <contour>
      <point x="389" y="340" type="line"/>
      <point x="397" y="340" type="line"/>
      <point x="498" y="150" type="line"/>
      <point x="488" y="150" type="line"/>
    </contour>
    <contour>
      <point x="362" y="570" type="line"/>
      <point x="370" y="570" type="line"/>
      <point x="304" y="150" type="line"/>
      <point x="296" y="150" type="line"/>
    </contour>
    <contour>
      <point x="362" y="563" type="line"/>
      <point x="362" y="570" type="line"/>
      <point x="428" y="570" type="line"/>
      <point x="502" y="568"/>
      <point x="560" y="529"/>
      <point x="549" y="454" type="curve" smooth="yes"/>
      <point x="538" y="378"/>
      <point x="469" y="340"/>
      <point x="393" y="338" type="curve"/>
      <point x="327" y="338" type="line"/>
      <point x="328" y="344" type="line"/>
      <point x="394" y="344" type="line"/>
      <point x="468" y="346"/>
      <point x="532" y="382"/>
      <point x="542" y="454" type="curve" smooth="yes"/>
      <point x="552" y="526"/>
      <point x="499" y="560"/>
      <point x="428" y="562" type="curve"/>
    </contour>
    <contour>
      <point x="86" y="350" type="curve" smooth="yes"/>
      <point x="60" y="165"/>
      <point x="178" y="0"/>
      <point x="370" y="0" type="curve" smooth="yes"/>
      <point x="566" y="0"/>
      <point x="736" y="157"/>
      <point x="764" y="350" type="curve" smooth="yes"/>
      <point x="790" y="535"/>
      <point x="672" y="700"/>
      <point x="480" y="700" type="curve" smooth="yes"/>
      <point x="284" y="700"/>
      <point x="114" y="543"/>
    </contour>
    <contour>
      <point x="76" y="350" type="curve" smooth="yes"/>
      <point x="105" y="550"/>
      <point x="275" y="710"/>
      <point x="480" y="710" type="curve" smooth="yes"/>
      <point x="682" y="710"/>
      <point x="800" y="542"/>
      <point x="774" y="350" type="curve" smooth="yes"/>
      <point x="745" y="150"/>
      <point x="575" y="-10"/>
      <point x="370" y="-10" type="curve" smooth="yes"/>
      <point x="168" y="-10"/>
      <point x="50" y="158"/>
    </contour>
  </outline>
</glyph>
<glyph name="degree" format="2">
  <advance width="269"/>
  <unicode hex="00B0"/>
  <outline>
    <contour>
      <point x="94" y="600" type="curve" smooth="yes"/>
      <point x="104" y="666"/>
      <point x="162" y="720"/>
      <point x="230" y="720" type="curve" smooth="yes"/>
      <point x="297" y="720"/>
      <point x="336" y="664"/>
      <point x="326" y="600" type="curve" smooth="yes"/>
      <point x="316" y="534"/>
      <point x="258" y="480"/>
      <point x="190" y="480" type="curve" smooth="yes"/>
      <point x="123" y="480"/>
      <point x="84" y="536"/>
    </contour>
    <contour>
      <point x="104" y="600" type="curve" smooth="yes"/>
      <point x="95" y="542"/>
      <point x="130" y="491"/>
      <point x="190" y="490" type="curve" smooth="yes"/>
      <point x="250" y="489"/>
      <point x="306" y="540"/>
      <point x="316" y="600" type="curve" smooth="yes"/>
      <point x="325" y="658"/>
      <point x="290" y="709"/>
      <point x="230" y="710" type="curve" smooth="yes"/>
      <point x="170" y="711"/>
      <point x="114" y="660"/>
    </contour>
  </outline>
</glyph>
<glyph name="plusminus" format="2">
  <advance width="591"/>
  <unicode hex="00B1"/>
  <outline>
    <contour>
      <point x="46" y="0" type="line"/>
      <point x="48" y="10" type="line"/>
      <point x="514" y="10" type="line"/>
      <point x="512" y="0" type="line"/>
    </contour>
    <contour>
      <point x="104" y="380" type="line"/>
      <point x="106" y="390" type="line"/>
      <point x="572" y="390" type="line"/>
      <point x="570" y="380" type="line"/>
    </contour>
    <contour>
      <point x="370" y="620" type="line"/>
      <point x="380" y="620" type="line"/>
      <point x="306" y="150" type="line"/>
      <point x="296" y="150" type="line"/>
    </contour>
  </outline>
</glyph>
<glyph name="uni00B2" format="2">
  <advance width="322"/>
  <unicode hex="00B2"/>
  <outline>
    <contour>
      <point x="50" y="282" type="line"/>
      <point x="270" y="483" type="line" smooth="yes"/>
      <point x="302" y="513"/>
      <point x="337" y="546"/>
      <point x="345" y="594" type="curve" smooth="yes"/>
      <point x="354" y="643"/>
      <point x="329" y="701"/>
      <point x="260" y="702" type="curve" smooth="yes"/>
      <point x="184" y="704"/>
      <point x="136" y="633"/>
      <point x="120" y="559" type="curve"/>
      <point x="114" y="559" type="line"/>
      <point x="130" y="637"/>
      <point x="180" y="710"/>
      <point x="260" y="708" type="curve" smooth="yes"/>
      <point x="332" y="707"/>
      <point x="360" y="646"/>
      <point x="351" y="594" type="curve" smooth="yes"/>
      <point x="343" y="546"/>
      <point x="310" y="510"/>
      <point x="276" y="479" type="curve" smooth="yes"/>
      <point x="66" y="288" type="line"/>
      <point x="315" y="288" type="line"/>
      <point x="314" y="282" type="line"/>
    </contour>
  </outline>
</glyph>
<glyph name="uni00B3" format="2">
  <advance width="298"/>
  <unicode hex="00B3"/>
  <outline>
    <contour>
      <point x="193" y="498" type="curve"/>
      <point x="194" y="502" type="line"/>
      <point x="251" y="507"/>
      <point x="320" y="538"/>
      <point x="332" y="600" type="curve" smooth="yes"/>
      <point x="341" y="650"/>
      <point x="310" y="699"/>
      <point x="250" y="700" type="curve" smooth="yes"/>
      <point x="185" y="701"/>
      <point x="141" y="653"/>
      <point x="126" y="597" type="curve"/>
      <point x="120" y="597" type="line"/>
      <point x="136" y="657"/>
      <point x="181" y="707"/>
      <point x="250" y="706" type="curve" smooth="yes"/>
      <point x="315" y="705"/>
      <point x="348" y="653"/>
      <point x="338" y="600" type="curve" smooth="yes"/>
      <point x="326" y="534"/>
      <point x="257" y="502"/>
    </contour>
    <contour>
      <point x="174" y="274" type="curve" smooth="yes"/>
      <point x="97" y="274"/>
      <point x="64" y="327"/>
      <point x="69" y="391" type="curve"/>
      <point x="75" y="391" type="line"/>
      <point x="71" y="329"/>
      <point x="100" y="280"/>
      <point x="174" y="280" type="curve" smooth="yes"/>
      <point x="241" y="280"/>
      <point x="298" y="325"/>
      <point x="308" y="385" type="curve" smooth="yes"/>
      <point x="319" y="457"/>
      <point x="250" y="490"/>
      <point x="194" y="496" type="curve"/>
      <point x="194" y="500" type="line"/>
      <point x="256" y="494"/>
      <point x="326" y="459"/>
      <point x="314" y="384" type="curve" smooth="yes"/>
      <point x="304" y="320"/>
      <point x="244" y="274"/>
    </contour>
  </outline>
</glyph>
<glyph name="acute" format="2">
  <advance width="342"/>
  <unicode hex="00B4"/>
  <outline>
    <contour>
      <point x="336" y="691" type="line"/>
      <point x="142" y="536" type="line"/>
      <point x="138" y="541" type="line"/>
      <point x="328" y="699" type="line"/>
    </contour>
  </outline>
</glyph>
<glyph name="mu" format="2">
  <advance width="460"/>
  <unicode hex="00B5"/>
  <outline>
    <contour>
      <point x="144" y="460" type="line"/>
      <point x="88" y="141" type="line"/>
      <point x="80" y="65"/>
      <point x="99" y="0"/>
      <point x="184" y="0" type="curve" smooth="yes"/>
      <point x="278" y="-1"/>
      <point x="355" y="82"/>
      <point x="369" y="172" type="curve" smooth="yes"/>
      <point x="420" y="460" type="line"/>
      <point x="430" y="460" type="line"/>
      <point x="351" y="0" type="line"/>
      <point x="341" y="0" type="line"/>
      <point x="361" y="122" type="line"/>
      <point x="332" y="48"/>
      <point x="268" y="-11"/>
      <point x="183" y="-10" type="curve" smooth="yes"/>
      <point x="116" y="-10"/>
      <point x="87" y="27"/>
      <point x="79" y="78" type="curve"/>
      <point x="10" y="-320" type="line"/>
      <point x="0" y="-320" type="line"/>
      <point x="134" y="460" type="line"/>
    </contour>
  </outline>
</glyph>
<glyph name="paragraph" format="2">
  <advance width="434"/>
  <unicode hex="00B6"/>
  <outline>
    <contour>
      <point x="298" y="270" type="line"/>
      <point x="176" y="277"/>
      <point x="94" y="356"/>
      <point x="114" y="485" type="curve" smooth="yes"/>
      <point x="136" y="619"/>
      <point x="244" y="700"/>
      <point x="372" y="700" type="curve" smooth="yes"/>
      <point x="470" y="700" type="line"/>
      <point x="312" y="-220" type="line"/>
      <point x="302" y="-220" type="line"/>
      <point x="458" y="690" type="line"/>
      <point x="381" y="690" type="line"/>
      <point x="224" y="-220" type="line"/>
      <point x="214" y="-220" type="line"/>
    </contour>
  </outline>
</glyph>
<glyph name="periodcentered" format="2">
  <advance width="234"/>
  <unicode hex="00B7"/>
  <outline>
    <contour>
      <point x="117" y="221" type="curve" smooth="yes"/>
      <point x="117" y="227"/>
      <point x="124" y="232"/>
      <point x="130" y="232" type="curve" smooth="yes"/>
      <point x="136" y="232"/>
      <point x="139" y="227"/>
      <point x="139" y="221" type="curve" smooth="yes"/>
      <point x="139" y="215"/>
      <point x="132" y="210"/>
      <point x="126" y="210" type="curve" smooth="yes"/>
      <point x="120" y="210"/>
      <point x="117" y="215"/>
    </contour>
  </outline>
</glyph>
<glyph name="cedilla" format="2">
  <advance width="339"/>
  <unicode hex="00B8"/>
  <outline>
    <contour>
      <point x="144" y="0" type="line"/>
      <point x="156" y="0" type="line"/>
      <point x="88" y="-76" type="line"/>
      <point x="112" y="-63"/>
      <point x="131" y="-50"/>
      <point x="160" y="-52" type="curve" smooth="yes"/>
      <point x="196" y="-54"/>
      <point x="223" y="-84"/>
      <point x="218" y="-126" type="curve" smooth="yes"/>
      <point x="211" y="-183"/>
      <point x="152" y="-220"/>
      <point x="98" y="-220" type="curve" smooth="yes"/>
      <point x="64" y="-220"/>
      <point x="42" y="-206"/>
      <point x="18" y="-182" type="curve"/>
      <point x="26" y="-176" type="line"/>
      <point x="50" y="-197"/>
      <point x="70" y="-210"/>
      <point x="100" y="-210" type="curve" smooth="yes"/>
      <point x="148" y="-210"/>
      <point x="202" y="-178"/>
      <point x="209" y="-126" type="curve" smooth="yes"/>
      <point x="213" y="-89"/>
      <point x="189" y="-64"/>
      <point x="158" y="-62" type="curve" smooth="yes"/>
      <point x="128" y="-60"/>
      <point x="99" y="-74"/>
      <point x="75" y="-88" type="curve"/>
    </contour>
  </outline>
</glyph>
<glyph name="uni00B9" format="2">
  <advance width="456"/>
  <unicode hex="00B9"/>
  <outline>
    <contour>
      <point x="226" y="666" type="line"/>
      <point x="226" y="674" type="line"/>
      <point x="336" y="697" type="line"/>
      <point x="262" y="274" type="line"/>
      <point x="256" y="274" type="line"/>
      <point x="328" y="688" type="line"/>
    </contour>
  </outline>
</glyph>
<glyph name="ordmasculine" format="2">
  <advance width="269"/>
  <unicode hex="00BA"/>
  <outline>
    <contour>
      <point x="91" y="580" type="curve" smooth="yes"/>
      <point x="101" y="646"/>
      <point x="159" y="700"/>
      <point x="227" y="700" type="curve" smooth="yes"/>
      <point x="294" y="700"/>
      <point x="332" y="644"/>
      <point x="322" y="580" type="curve" smooth="yes"/>
      <point x="312" y="514"/>
      <point x="254" y="460"/>
      <point x="186" y="460" type="curve" smooth="yes"/>
      <point x="119" y="460"/>
      <point x="81" y="516"/>
    </contour>
    <contour>
      <point x="100" y="580" type="curve" smooth="yes"/>
      <point x="91" y="522"/>
      <point x="127" y="471"/>
      <point x="187" y="470" type="curve" smooth="yes"/>
      <point x="247" y="469"/>
      <point x="303" y="520"/>
      <point x="313" y="580" type="curve" smooth="yes"/>
      <point x="322" y="638"/>
      <point x="286" y="689"/>
      <point x="226" y="690" type="curve" smooth="yes"/>
      <point x="166" y="691"/>
      <point x="110" y="640"/>
    </contour>
  </outline>
</glyph>
<glyph name="guillemotright" format="2">
  <advance width="470"/>
  <unicode hex="00BB"/>
  <outline>
    <contour>
      <point x="284" y="255" type="line"/>
      <point x="123" y="483" type="line"/>
      <point x="130" y="490" type="line"/>
      <point x="294" y="254" type="line"/>
      <point x="50" y="21" type="line"/>
      <point x="45" y="28" type="line"/>
    </contour>
    <contour>
      <point x="439" y="255" type="line"/>
      <point x="278" y="483" type="line"/>
      <point x="286" y="490" type="line"/>
      <point x="448" y="254" type="line"/>
      <point x="206" y="21" type="line"/>
      <point x="200" y="28" type="line"/>
    </contour>
  </outline>
</glyph>
<glyph name="onequarter" format="2">
  <advance width="731"/>
  <unicode hex="00BC"/>
  <outline>
    <contour>
      <point x="744" y="699" type="line"/>
      <point x="756" y="699" type="line"/>
      <point x="80" y="0" type="line"/>
      <point x="68" y="0" type="line"/>
    </contour>
    <contour>
      <point x="107" y="666" type="line"/>
      <point x="108" y="674" type="line"/>
      <point x="218" y="697" type="line"/>
      <point x="144" y="274" type="line"/>
      <point x="138" y="274" type="line"/>
      <point x="210" y="688" type="line"/>
    </contour>
    <contour>
      <point x="376" y="84" type="line"/>
      <point x="383" y="90" type="line"/>
      <point x="596" y="90" type="line"/>
      <point x="598" y="90" type="line"/>
      <point x="664" y="90" type="line"/>
      <point x="664" y="84" type="line"/>
    </contour>
    <contour>
      <point x="382" y="85" type="line"/>
      <point x="376" y="85" type="line"/>
      <point x="657" y="418" type="line"/>
      <point x="656" y="420" type="line"/>
      <point x="585" y="0" type="line"/>
      <point x="579" y="0" type="line"/>
      <point x="594" y="85" type="line"/>
      <point x="594" y="88" type="line"/>
      <point x="648" y="398" type="line"/>
    </contour>
  </outline>
</glyph>
<glyph name="onehalf" format="2">
  <advance width="794"/>
  <unicode hex="00BD"/>
  <outline>
    <contour>
      <point x="744" y="699" type="line"/>
      <point x="756" y="699" type="line"/>
      <point x="80" y="0" type="line"/>
      <point x="68" y="0" type="line"/>
    </contour>
    <contour>
      <point x="107" y="666" type="line"/>
      <point x="108" y="674" type="line"/>
      <point x="218" y="697" type="line"/>
      <point x="144" y="274" type="line"/>
      <point x="138" y="274" type="line"/>
      <point x="210" y="688" type="line"/>
    </contour>
    <contour>
      <point x="454" y="2" type="line"/>
      <point x="674" y="202" type="line" smooth="yes"/>
      <point x="706" y="232"/>
      <point x="742" y="265"/>
      <point x="750" y="313" type="curve" smooth="yes"/>
      <point x="759" y="362"/>
      <point x="734" y="420"/>
      <point x="665" y="422" type="curve" smooth="yes"/>
      <point x="589" y="424"/>
      <point x="540" y="353"/>
      <point x="524" y="279" type="curve"/>
      <point x="518" y="279" type="line"/>
      <point x="534" y="357"/>
      <point x="585" y="430"/>
      <point x="665" y="428" type="curve" smooth="yes"/>
      <point x="737" y="426"/>
      <point x="765" y="365"/>
      <point x="756" y="313" type="curve" smooth="yes"/>
      <point x="748" y="265"/>
      <point x="714" y="230"/>
      <point x="680" y="199" type="curve" smooth="yes"/>
      <point x="470" y="8" type="line"/>
      <point x="720" y="8" type="line"/>
      <point x="718" y="2" type="line"/>
    </contour>
  </outline>
</glyph>
<glyph name="threequarters" format="2">
  <advance width="795"/>
  <unicode hex="00BE"/>
  <outline>
    <contour>
      <point x="808" y="699" type="line"/>
      <point x="821" y="699" type="line"/>
      <point x="144" y="0" type="line"/>
      <point x="132" y="0" type="line"/>
    </contour>
    <contour>
      <point x="198" y="498" type="curve"/>
      <point x="199" y="502" type="line"/>
      <point x="256" y="507"/>
      <point x="326" y="538"/>
      <point x="338" y="600" type="curve" smooth="yes"/>
      <point x="347" y="650"/>
      <point x="314" y="699"/>
      <point x="254" y="700" type="curve" smooth="yes"/>
      <point x="189" y="701"/>
      <point x="146" y="653"/>
      <point x="131" y="597" type="curve"/>
      <point x="125" y="597" type="line"/>
      <point x="141" y="657"/>
      <point x="185" y="707"/>
      <point x="254" y="706" type="curve" smooth="yes"/>
      <point x="319" y="705"/>
      <point x="354" y="653"/>
      <point x="344" y="600" type="curve" smooth="yes"/>
      <point x="332" y="534"/>
      <point x="262" y="502"/>
    </contour>
    <contour>
      <point x="178" y="274" type="curve" smooth="yes"/>
      <point x="101" y="274"/>
      <point x="69" y="327"/>
      <point x="74" y="391" type="curve"/>
      <point x="80" y="391" type="line"/>
      <point x="76" y="329"/>
      <point x="104" y="280"/>
      <point x="178" y="280" type="curve" smooth="yes"/>
      <point x="245" y="280"/>
      <point x="302" y="325"/>
      <point x="312" y="385" type="curve" smooth="yes"/>
      <point x="323" y="457"/>
      <point x="254" y="490"/>
      <point x="198" y="496" type="curve"/>
      <point x="199" y="500" type="line"/>
      <point x="261" y="494"/>
      <point x="330" y="459"/>
      <point x="318" y="384" type="curve" smooth="yes"/>
      <point x="308" y="320"/>
      <point x="248" y="274"/>
    </contour>
    <contour>
      <point x="442" y="84" type="line"/>
      <point x="448" y="90" type="line"/>
      <point x="662" y="90" type="line"/>
      <point x="664" y="90" type="line"/>
      <point x="730" y="90" type="line"/>
      <point x="729" y="84" type="line"/>
    </contour>
    <contour>
      <point x="448" y="85" type="line"/>
      <point x="440" y="85" type="line"/>
      <point x="722" y="418" type="line"/>
      <point x="722" y="420" type="line"/>
      <point x="650" y="0" type="line"/>
      <point x="644" y="0" type="line"/>
      <point x="659" y="85" type="line"/>
      <point x="660" y="88" type="line"/>
      <point x="713" y="398" type="line"/>
    </contour>
  </outline>
</glyph>
<glyph name="questiondown" format="2">
  <advance width="525"/>
  <unicode hex="00BF"/>
  <outline>
    <contour>
      <point x="91" y="180" type="curve" smooth="yes"/>
      <point x="72" y="84"/>
      <point x="133" y="0"/>
      <point x="242" y="0" type="curve" smooth="yes"/>
      <point x="332" y="0"/>
      <point x="394" y="50"/>
      <point x="446" y="112" type="curve"/>
      <point x="455" y="106" type="line"/>
      <point x="401" y="42"/>
      <point x="336" y="-10"/>
      <point x="242" y="-10" type="curve" smooth="yes"/>
      <point x="126" y="-9"/>
      <point x="64" y="76"/>
      <point x="81" y="180" type="curve" smooth="yes"/>
      <point x="101" y="286"/>
      <point x="212" y="355"/>
      <point x="332" y="363" type="curve"/>
      <point x="362" y="530" type="line"/>
      <point x="369" y="530" type="line"/>
      <point x="345" y="355" type="line"/>
      <point x="345" y="356" type="line"/>
      <point x="187" y="345"/>
      <point x="104" y="259"/>
    </contour>
    <contour>
      <point x="410" y="699" type="curve" smooth="yes"/>
      <point x="410" y="693"/>
      <point x="404" y="688"/>
      <point x="398" y="688" type="curve" smooth="yes"/>
      <point x="392" y="688"/>
      <point x="389" y="693"/>
      <point x="389" y="699" type="curve" smooth="yes"/>
      <point x="389" y="705"/>
      <point x="396" y="710"/>
      <point x="402" y="710" type="curve" smooth="yes"/>
      <point x="408" y="710"/>
      <point x="410" y="705"/>
    </contour>
  </outline>
</glyph>
<glyph name="Agrave" format="2">
  <advance width="582"/>
  <unicode hex="00C0"/>
  <outline>
    <contour>
      <point x="142" y="272" type="line"/>
      <point x="144" y="282" type="line"/>
      <point x="479" y="282" type="line"/>
      <point x="478" y="272" type="line"/>
    </contour>
    <contour>
      <point x="382" y="688" type="line"/>
      <point x="152" y="277" type="line"/>
      <point x="151" y="273" type="line"/>
      <point x="-2" y="0" type="line"/>
      <point x="-14" y="0" type="line"/>
      <point x="386" y="715" type="line"/>
      <point x="540" y="0" type="line"/>
      <point x="528" y="0" type="line"/>
      <point x="472" y="273" type="line"/>
      <point x="472" y="276" type="line"/>
    </contour>
    <contour>
      <point x="290" y="932" type="line"/>
      <point x="300" y="940" type="line"/>
      <point x="438" y="780" type="line"/>
      <point x="434" y="776" type="line"/>
    </contour>
  </outline>
</glyph>
<glyph name="Aacute" format="2">
  <advance width="582"/>
  <unicode hex="00C1"/>
  <outline>
    <contour>
      <point x="142" y="272" type="line"/>
      <point x="144" y="282" type="line"/>
      <point x="479" y="282" type="line"/>
      <point x="478" y="272" type="line"/>
    </contour>
    <contour>
      <point x="382" y="688" type="line"/>
      <point x="152" y="277" type="line"/>
      <point x="151" y="273" type="line"/>
      <point x="-2" y="0" type="line"/>
      <point x="-14" y="0" type="line"/>
      <point x="386" y="715" type="line"/>
      <point x="540" y="0" type="line"/>
      <point x="528" y="0" type="line"/>
      <point x="472" y="273" type="line"/>
      <point x="472" y="276" type="line"/>
    </contour>
    <contour>
      <point x="556" y="931" type="line"/>
      <point x="359" y="776" type="line"/>
      <point x="356" y="781" type="line"/>
      <point x="549" y="939" type="line"/>
    </contour>
  </outline>
</glyph>
<glyph name="Acircumflex" format="2">
  <advance width="582"/>
  <unicode hex="00C2"/>
  <outline>
    <contour>
      <point x="142" y="272" type="line"/>
      <point x="144" y="282" type="line"/>
      <point x="479" y="282" type="line"/>
      <point x="478" y="272" type="line"/>
    </contour>
    <contour>
      <point x="382" y="688" type="line"/>
      <point x="152" y="277" type="line"/>
      <point x="151" y="273" type="line"/>
      <point x="-2" y="0" type="line"/>
      <point x="-14" y="0" type="line"/>
      <point x="386" y="715" type="line"/>
      <point x="540" y="0" type="line"/>
      <point x="528" y="0" type="line"/>
      <point x="472" y="273" type="line"/>
      <point x="472" y="276" type="line"/>
    </contour>
    <contour>
      <point x="420" y="910" type="line"/>
      <point x="248" y="776" type="line"/>
      <point x="242" y="783" type="line"/>
      <point x="421" y="922" type="line"/>
      <point x="553" y="782" type="line"/>
      <point x="546" y="775" type="line"/>
    </contour>
  </outline>
</glyph>
<glyph name="Atilde" format="2">
  <advance width="582"/>
  <unicode hex="00C3"/>
  <outline>
    <contour>
      <point x="142" y="272" type="line"/>
      <point x="144" y="282" type="line"/>
      <point x="479" y="282" type="line"/>
      <point x="478" y="272" type="line"/>
    </contour>
    <contour>
      <point x="382" y="688" type="line"/>
      <point x="152" y="277" type="line"/>
      <point x="151" y="273" type="line"/>
      <point x="-2" y="0" type="line"/>
      <point x="-14" y="0" type="line"/>
      <point x="386" y="715" type="line"/>
      <point x="540" y="0" type="line"/>
      <point x="528" y="0" type="line"/>
      <point x="472" y="273" type="line"/>
      <point x="472" y="276" type="line"/>
    </contour>
    <contour>
      <point x="277" y="796" type="line"/>
      <point x="287" y="824"/>
      <point x="306" y="854"/>
      <point x="347" y="854" type="curve" smooth="yes"/>
      <point x="399" y="854"/>
      <point x="413" y="807"/>
      <point x="460" y="808" type="curve" smooth="yes"/>
      <point x="489" y="808"/>
      <point x="505" y="828"/>
      <point x="522" y="854" type="curve"/>
      <point x="532" y="852" type="line"/>
      <point x="514" y="822"/>
      <point x="491" y="800"/>
      <point x="459" y="800" type="curve" smooth="yes"/>
      <point x="407" y="800"/>
      <point x="390" y="846"/>
      <point x="348" y="846" type="curve" smooth="yes"/>
      <point x="312" y="846"/>
      <point x="296" y="820"/>
      <point x="287" y="796" type="curve"/>
    </contour>
  </outline>
</glyph>
<glyph name="Adieresis" format="2">
  <advance width="582"/>
  <unicode hex="00C4"/>
  <outline>
    <contour>
      <point x="142" y="272" type="line"/>
      <point x="144" y="282" type="line"/>
      <point x="479" y="282" type="line"/>
      <point x="478" y="272" type="line"/>
    </contour>
    <contour>
      <point x="382" y="688" type="line"/>
      <point x="152" y="277" type="line"/>
      <point x="151" y="273" type="line"/>
      <point x="-2" y="0" type="line"/>
      <point x="-14" y="0" type="line"/>
      <point x="386" y="715" type="line"/>
      <point x="540" y="0" type="line"/>
      <point x="528" y="0" type="line"/>
      <point x="472" y="273" type="line"/>
      <point x="472" y="276" type="line"/>
    </contour>
    <contour>
      <point x="488" y="806" type="curve" smooth="yes"/>
      <point x="488" y="812"/>
      <point x="494" y="817"/>
      <point x="500" y="817" type="curve" smooth="yes"/>
      <point x="506" y="817"/>
      <point x="510" y="812"/>
      <point x="510" y="806" type="curve" smooth="yes"/>
      <point x="510" y="800"/>
      <point x="503" y="795"/>
      <point x="497" y="795" type="curve" smooth="yes"/>
      <point x="491" y="795"/>
      <point x="488" y="800"/>
    </contour>
    <contour>
      <point x="294" y="806" type="curve" smooth="yes"/>
      <point x="294" y="812"/>
      <point x="300" y="817"/>
      <point x="306" y="817" type="curve" smooth="yes"/>
      <point x="312" y="817"/>
      <point x="316" y="812"/>
      <point x="316" y="806" type="curve" smooth="yes"/>
      <point x="316" y="800"/>
      <point x="309" y="795"/>
      <point x="303" y="795" type="curve" smooth="yes"/>
      <point x="297" y="795"/>
      <point x="294" y="800"/>
    </contour>
  </outline>
</glyph>
<glyph name="Aring" format="2">
  <advance width="582"/>
  <unicode hex="00C5"/>
  <outline>
    <contour>
      <point x="142" y="272" type="line"/>
      <point x="144" y="282" type="line"/>
      <point x="479" y="282" type="line"/>
      <point x="478" y="272" type="line"/>
    </contour>
    <contour>
      <point x="382" y="688" type="line"/>
      <point x="152" y="277" type="line"/>
      <point x="151" y="273" type="line"/>
      <point x="-2" y="0" type="line"/>
      <point x="-14" y="0" type="line"/>
      <point x="386" y="715" type="line"/>
      <point x="540" y="0" type="line"/>
      <point x="528" y="0" type="line"/>
      <point x="472" y="273" type="line"/>
      <point x="472" y="276" type="line"/>
    </contour>
    <contour>
      <point x="302" y="808" type="curve" smooth="yes"/>
      <point x="310" y="864"/>
      <point x="365" y="908"/>
      <point x="419" y="908" type="curve" smooth="yes"/>
      <point x="472" y="908"/>
      <point x="510" y="862"/>
      <point x="502" y="808" type="curve" smooth="yes"/>
      <point x="494" y="752"/>
      <point x="439" y="708"/>
      <point x="385" y="708" type="curve" smooth="yes"/>
      <point x="332" y="708"/>
      <point x="294" y="754"/>
    </contour>
    <contour>
      <point x="312" y="808" type="curve" smooth="yes"/>
      <point x="305" y="760"/>
      <point x="338" y="719"/>
      <point x="386" y="718" type="curve" smooth="yes"/>
      <point x="434" y="717"/>
      <point x="484" y="759"/>
      <point x="492" y="808" type="curve" smooth="yes"/>
      <point x="499" y="856"/>
      <point x="466" y="897"/>
      <point x="418" y="898" type="curve" smooth="yes"/>
      <point x="370" y="899"/>
      <point x="320" y="857"/>
    </contour>
  </outline>
</glyph>
<glyph name="AE" format="2">
  <advance width="869"/>
  <unicode hex="00C6"/>
  <outline>
    <contour>
      <point x="222" y="280" type="line"/>
      <point x="223" y="290" type="line"/>
      <point x="505" y="290" type="line"/>
      <point x="503" y="280" type="line"/>
    </contour>
    <contour>
      <point x="563" y="700" type="line"/>
      <point x="576" y="699" type="line"/>
      <point x="-10" y="0" type="line"/>
      <point x="-23" y="0" type="line"/>
    </contour>
    <contour>
      <point x="455" y="0" type="line"/>
      <point x="457" y="10" type="line"/>
      <point x="766" y="10" type="line"/>
      <point x="765" y="0" type="line"/>
    </contour>
    <contour>
      <point x="576" y="690" type="line"/>
      <point x="563" y="700" type="line"/>
      <point x="884" y="700" type="line"/>
      <point x="882" y="690" type="line"/>
    </contour>
    <contour>
      <point x="520" y="384" type="line"/>
      <point x="522" y="394" type="line"/>
      <point x="812" y="394" type="line"/>
      <point x="811" y="384" type="line"/>
    </contour>
    <contour>
      <point x="568" y="700" type="line"/>
      <point x="580" y="700" type="line"/>
      <point x="458" y="0" type="line"/>
      <point x="448" y="0" type="line"/>
    </contour>
  </outline>
</glyph>
<glyph name="Ccedilla" format="2">
  <advance width="664"/>
  <unicode hex="00C7"/>
  <outline>
    <contour>
      <point x="93" y="350" type="curve" smooth="yes"/>
      <point x="67" y="174"/>
      <point x="153" y="6"/>
      <point x="342" y="4" type="curve" smooth="yes"/>
      <point x="436" y="4"/>
      <point x="510" y="35"/>
      <point x="576" y="87" type="curve"/>
      <point x="572" y="72" type="line"/>
      <point x="506" y="24"/>
      <point x="435" y="-8"/>
      <point x="341" y="-8" type="curve" smooth="yes"/>
      <point x="145" y="-7"/>
      <point x="54" y="166"/>
      <point x="81" y="350" type="curve" smooth="yes"/>
      <point x="111" y="546"/>
      <point x="264" y="707"/>
      <point x="462" y="708" type="curve" smooth="yes"/>
      <point x="550" y="708"/>
      <point x="613" y="681"/>
      <point x="668" y="628" type="curve"/>
      <point x="665" y="614" type="line"/>
      <point x="613" y="671"/>
      <point x="545" y="696"/>
      <point x="461" y="696" type="curve" smooth="yes"/>
      <point x="270" y="695"/>
      <point x="123" y="539"/>
    </contour>
    <contour>
      <point x="336" y="-2" type="line"/>
      <point x="348" y="-2" type="line"/>
      <point x="280" y="-76" type="line"/>
      <point x="304" y="-63"/>
      <point x="323" y="-52"/>
      <point x="352" y="-54" type="curve" smooth="yes"/>
      <point x="388" y="-56"/>
      <point x="415" y="-86"/>
      <point x="410" y="-128" type="curve" smooth="yes"/>
      <point x="403" y="-185"/>
      <point x="344" y="-220"/>
      <point x="290" y="-220" type="curve" smooth="yes"/>
      <point x="256" y="-220"/>
      <point x="234" y="-207"/>
      <point x="210" y="-183" type="curve"/>
      <point x="218" y="-177" type="line"/>
      <point x="242" y="-198"/>
      <point x="262" y="-210"/>
      <point x="292" y="-210" type="curve" smooth="yes"/>
      <point x="340" y="-210"/>
      <point x="393" y="-179"/>
      <point x="400" y="-127" type="curve" smooth="yes"/>
      <point x="404" y="-90"/>
      <point x="381" y="-66"/>
      <point x="350" y="-64" type="curve" smooth="yes"/>
      <point x="320" y="-62"/>
      <point x="291" y="-74"/>
      <point x="267" y="-88" type="curve"/>
    </contour>
  </outline>
</glyph>
<glyph name="Egrave" format="2">
  <advance width="494"/>
  <unicode hex="00C8"/>
  <outline>
    <contour>
      <point x="62" y="0" type="line"/>
      <point x="64" y="10" type="line"/>
      <point x="392" y="10" type="line"/>
      <point x="390" y="0" type="line"/>
    </contour>
    <contour>
      <point x="180" y="690" type="line"/>
      <point x="182" y="700" type="line"/>
      <point x="510" y="700" type="line"/>
      <point x="508" y="690" type="line"/>
    </contour>
    <contour>
      <point x="128" y="384" type="line"/>
      <point x="130" y="394" type="line"/>
      <point x="438" y="394" type="line"/>
      <point x="436" y="384" type="line"/>
    </contour>
    <contour>
      <point x="180" y="700" type="line"/>
      <point x="191" y="700" type="line"/>
      <point x="70" y="0" type="line"/>
      <point x="60" y="0" type="line"/>
    </contour>
    <contour>
      <point x="232" y="925" type="line"/>
      <point x="240" y="932" type="line"/>
      <point x="379" y="773" type="line"/>
      <point x="374" y="768" type="line"/>
    </contour>
  </outline>
</glyph>
<glyph name="Eacute" format="2">
  <advance width="494"/>
  <unicode hex="00C9"/>
  <outline>
    <contour>
      <point x="62" y="0" type="line"/>
      <point x="64" y="10" type="line"/>
      <point x="392" y="10" type="line"/>
      <point x="390" y="0" type="line"/>
    </contour>
    <contour>
      <point x="180" y="690" type="line"/>
      <point x="182" y="700" type="line"/>
      <point x="510" y="700" type="line"/>
      <point x="508" y="690" type="line"/>
    </contour>
    <contour>
      <point x="128" y="384" type="line"/>
      <point x="130" y="394" type="line"/>
      <point x="438" y="394" type="line"/>
      <point x="436" y="384" type="line"/>
    </contour>
    <contour>
      <point x="180" y="700" type="line"/>
      <point x="191" y="700" type="line"/>
      <point x="70" y="0" type="line"/>
      <point x="60" y="0" type="line"/>
    </contour>
    <contour>
      <point x="535" y="924" type="line"/>
      <point x="338" y="769" type="line"/>
      <point x="335" y="774" type="line"/>
      <point x="528" y="932" type="line"/>
    </contour>
  </outline>
</glyph>
<glyph name="Edieresis" format="2">
  <advance width="494"/>
  <unicode hex="00CB"/>
  <outline>
    <contour>
      <point x="62" y="0" type="line"/>
      <point x="64" y="10" type="line"/>
      <point x="392" y="10" type="line"/>
      <point x="390" y="0" type="line"/>
    </contour>
    <contour>
      <point x="180" y="690" type="line"/>
      <point x="182" y="700" type="line"/>
      <point x="510" y="700" type="line"/>
      <point x="508" y="690" type="line"/>
    </contour>
    <contour>
      <point x="128" y="384" type="line"/>
      <point x="130" y="394" type="line"/>
      <point x="438" y="394" type="line"/>
      <point x="436" y="384" type="line"/>
    </contour>
    <contour>
      <point x="180" y="700" type="line"/>
      <point x="191" y="700" type="line"/>
      <point x="70" y="0" type="line"/>
      <point x="60" y="0" type="line"/>
    </contour>
    <contour>
      <point x="448" y="799" type="curve" smooth="yes"/>
      <point x="448" y="805"/>
      <point x="454" y="810"/>
      <point x="460" y="810" type="curve" smooth="yes"/>
      <point x="466" y="810"/>
      <point x="470" y="805"/>
      <point x="470" y="799" type="curve" smooth="yes"/>
      <point x="470" y="793"/>
      <point x="463" y="788"/>
      <point x="457" y="788" type="curve" smooth="yes"/>
      <point x="451" y="788"/>
      <point x="448" y="793"/>
    </contour>
    <contour>
      <point x="254" y="799" type="curve" smooth="yes"/>
      <point x="254" y="805"/>
      <point x="260" y="810"/>
      <point x="266" y="810" type="curve" smooth="yes"/>
      <point x="272" y="810"/>
      <point x="276" y="805"/>
      <point x="276" y="799" type="curve" smooth="yes"/>
      <point x="276" y="793"/>
      <point x="269" y="788"/>
      <point x="263" y="788" type="curve" smooth="yes"/>
      <point x="257" y="788"/>
      <point x="254" y="793"/>
    </contour>
  </outline>
</glyph>
<glyph name="Igrave" format="2">
  <advance width="174"/>
  <unicode hex="00CC"/>
  <outline>
    <contour>
      <point x="176" y="700" type="line"/>
      <point x="186" y="700" type="line"/>
      <point x="64" y="0" type="line"/>
      <point x="54" y="0" type="line"/>
    </contour>
    <contour>
      <point x="66" y="925" type="line"/>
      <point x="75" y="932" type="line"/>
      <point x="214" y="773" type="line"/>
      <point x="210" y="768" type="line"/>
    </contour>
  </outline>
</glyph>
<glyph name="Icircumflex" format="2">
  <advance width="174"/>
  <unicode hex="00CE"/>
  <outline>
    <contour>
      <point x="176" y="700" type="line"/>
      <point x="186" y="700" type="line"/>
      <point x="64" y="0" type="line"/>
      <point x="54" y="0" type="line"/>
    </contour>
    <contour>
      <point x="215" y="902" type="line"/>
      <point x="42" y="769" type="line"/>
      <point x="36" y="776" type="line"/>
      <point x="216" y="914" type="line"/>
      <point x="348" y="775" type="line"/>
      <point x="340" y="768" type="line"/>
    </contour>
  </outline>
</glyph>
<glyph name="Idieresis" format="2">
  <advance width="174"/>
  <unicode hex="00CF"/>
  <outline>
    <contour>
      <point x="176" y="700" type="line"/>
      <point x="186" y="700" type="line"/>
      <point x="64" y="0" type="line"/>
      <point x="54" y="0" type="line"/>
    </contour>
    <contour>
      <point x="254" y="799" type="curve" smooth="yes"/>
      <point x="254" y="805"/>
      <point x="260" y="810"/>
      <point x="266" y="810" type="curve" smooth="yes"/>
      <point x="272" y="810"/>
      <point x="276" y="805"/>
      <point x="276" y="799" type="curve" smooth="yes"/>
      <point x="276" y="793"/>
      <point x="269" y="788"/>
      <point x="263" y="788" type="curve" smooth="yes"/>
      <point x="257" y="788"/>
      <point x="254" y="793"/>
    </contour>
    <contour>
      <point x="118" y="799" type="curve" smooth="yes"/>
      <point x="118" y="805"/>
      <point x="124" y="810"/>
      <point x="130" y="810" type="curve" smooth="yes"/>
      <point x="136" y="810"/>
      <point x="140" y="805"/>
      <point x="140" y="799" type="curve" smooth="yes"/>
      <point x="140" y="793"/>
      <point x="133" y="788"/>
      <point x="127" y="788" type="curve" smooth="yes"/>
      <point x="121" y="788"/>
      <point x="118" y="793"/>
    </contour>
  </outline>
</glyph>
<glyph name="Ntilde" format="2">
  <advance width="645"/>
  <unicode hex="00D1"/>
  <outline>
    <contour>
      <point x="660" y="700" type="line"/>
      <point x="670" y="700" type="line"/>
      <point x="548" y="-15" type="line"/>
      <point x="148" y="678" type="line"/>
      <point x="32" y="0" type="line"/>
      <point x="20" y="0" type="line"/>
      <point x="144" y="715" type="line"/>
      <point x="542" y="17" type="line"/>
    </contour>
    <contour>
      <point x="300" y="756" type="line"/>
      <point x="310" y="784"/>
      <point x="329" y="814"/>
      <point x="370" y="814" type="curve" smooth="yes"/>
      <point x="418" y="814"/>
      <point x="435" y="767"/>
      <point x="482" y="768" type="curve" smooth="yes"/>
      <point x="511" y="768"/>
      <point x="528" y="788"/>
      <point x="545" y="814" type="curve"/>
      <point x="554" y="812" type="line"/>
      <point x="536" y="782"/>
      <point x="513" y="760"/>
      <point x="481" y="760" type="curve" smooth="yes"/>
      <point x="434" y="760"/>
      <point x="413" y="806"/>
      <point x="371" y="806" type="curve" smooth="yes"/>
      <point x="334" y="806"/>
      <point x="317" y="780"/>
      <point x="309" y="756" type="curve"/>
    </contour>
  </outline>
</glyph>
<glyph name="Ograve" format="2">
  <advance width="751"/>
  <unicode hex="00D2"/>
  <outline>
    <contour>
      <point x="92" y="350" type="curve" smooth="yes"/>
      <point x="66" y="172"/>
      <point x="156" y="3"/>
      <point x="348" y="3" type="curve" smooth="yes"/>
      <point x="542" y="3"/>
      <point x="694" y="162"/>
      <point x="724" y="350" type="curve" smooth="yes"/>
      <point x="750" y="528"/>
      <point x="660" y="697"/>
      <point x="468" y="697" type="curve" smooth="yes"/>
      <point x="274" y="697"/>
      <point x="122" y="538"/>
    </contour>
    <contour>
      <point x="81" y="350" type="curve" smooth="yes"/>
      <point x="111" y="546"/>
      <point x="270" y="708"/>
      <point x="468" y="708" type="curve" smooth="yes"/>
      <point x="664" y="708"/>
      <point x="763" y="536"/>
      <point x="736" y="350" type="curve" smooth="yes"/>
      <point x="706" y="154"/>
      <point x="546" y="-8"/>
      <point x="348" y="-8" type="curve" smooth="yes"/>
      <point x="152" y="-8"/>
      <point x="54" y="164"/>
    </contour>
    <contour>
      <point x="375" y="925" type="line"/>
      <point x="384" y="932" type="line"/>
      <point x="522" y="773" type="line"/>
      <point x="516" y="768" type="line"/>
    </contour>
  </outline>
</glyph>
<glyph name="Ocircumflex" format="2">
  <advance width="751"/>
  <unicode hex="00D4"/>
  <outline>
    <contour>
      <point x="92" y="350" type="curve" smooth="yes"/>
      <point x="66" y="172"/>
      <point x="156" y="3"/>
      <point x="348" y="3" type="curve" smooth="yes"/>
      <point x="542" y="3"/>
      <point x="694" y="162"/>
      <point x="724" y="350" type="curve" smooth="yes"/>
      <point x="750" y="528"/>
      <point x="660" y="697"/>
      <point x="468" y="697" type="curve" smooth="yes"/>
      <point x="274" y="697"/>
      <point x="122" y="538"/>
    </contour>
    <contour>
      <point x="81" y="350" type="curve" smooth="yes"/>
      <point x="111" y="546"/>
      <point x="270" y="708"/>
      <point x="468" y="708" type="curve" smooth="yes"/>
      <point x="664" y="708"/>
      <point x="763" y="536"/>
      <point x="736" y="350" type="curve" smooth="yes"/>
      <point x="706" y="154"/>
      <point x="546" y="-8"/>
      <point x="348" y="-8" type="curve" smooth="yes"/>
      <point x="152" y="-8"/>
      <point x="54" y="164"/>
    </contour>
    <contour>
      <point x="503" y="902" type="line"/>
      <point x="331" y="769" type="line"/>
      <point x="325" y="776" type="line"/>
      <point x="504" y="914" type="line"/>
      <point x="636" y="775" type="line"/>
      <point x="628" y="768" type="line"/>
    </contour>
  </outline>
</glyph>
<glyph name="Otilde" format="2">
  <advance width="751"/>
  <unicode hex="00D5"/>
  <outline>
    <contour>
      <point x="92" y="350" type="curve" smooth="yes"/>
      <point x="66" y="172"/>
      <point x="156" y="3"/>
      <point x="348" y="3" type="curve" smooth="yes"/>
      <point x="542" y="3"/>
      <point x="694" y="162"/>
      <point x="724" y="350" type="curve" smooth="yes"/>
      <point x="750" y="528"/>
      <point x="660" y="697"/>
      <point x="468" y="697" type="curve" smooth="yes"/>
      <point x="274" y="697"/>
      <point x="122" y="538"/>
    </contour>
    <contour>
      <point x="81" y="350" type="curve" smooth="yes"/>
      <point x="111" y="546"/>
      <point x="270" y="708"/>
      <point x="468" y="708" type="curve" smooth="yes"/>
      <point x="664" y="708"/>
      <point x="763" y="536"/>
      <point x="736" y="350" type="curve" smooth="yes"/>
      <point x="706" y="154"/>
      <point x="546" y="-8"/>
      <point x="348" y="-8" type="curve" smooth="yes"/>
      <point x="152" y="-8"/>
      <point x="54" y="164"/>
    </contour>
    <contour>
      <point x="361" y="790" type="line"/>
      <point x="370" y="818"/>
      <point x="390" y="846"/>
      <point x="432" y="846" type="curve" smooth="yes"/>
      <point x="480" y="846"/>
      <point x="497" y="799"/>
      <point x="544" y="800" type="curve" smooth="yes"/>
      <point x="573" y="800"/>
      <point x="590" y="822"/>
      <point x="607" y="848" type="curve"/>
      <point x="614" y="844" type="line"/>
      <point x="596" y="814"/>
      <point x="574" y="792"/>
      <point x="542" y="792" type="curve" smooth="yes"/>
      <point x="495" y="792"/>
      <point x="475" y="838"/>
      <point x="433" y="838" type="curve" smooth="yes"/>
      <point x="395" y="838"/>
      <point x="378" y="812"/>
      <point x="369" y="788" type="curve"/>
    </contour>
  </outline>
</glyph>
<glyph name="Odieresis" format="2">
  <advance width="751"/>
  <unicode hex="00D6"/>
  <outline>
    <contour>
      <point x="92" y="350" type="curve" smooth="yes"/>
      <point x="66" y="172"/>
      <point x="156" y="3"/>
      <point x="348" y="3" type="curve" smooth="yes"/>
      <point x="542" y="3"/>
      <point x="694" y="162"/>
      <point x="724" y="350" type="curve" smooth="yes"/>
      <point x="750" y="528"/>
      <point x="660" y="697"/>
      <point x="468" y="697" type="curve" smooth="yes"/>
      <point x="274" y="697"/>
      <point x="122" y="538"/>
    </contour>
    <contour>
      <point x="81" y="350" type="curve" smooth="yes"/>
      <point x="111" y="546"/>
      <point x="270" y="708"/>
      <point x="468" y="708" type="curve" smooth="yes"/>
      <point x="664" y="708"/>
      <point x="763" y="536"/>
      <point x="736" y="350" type="curve" smooth="yes"/>
      <point x="706" y="154"/>
      <point x="546" y="-8"/>
      <point x="348" y="-8" type="curve" smooth="yes"/>
      <point x="152" y="-8"/>
      <point x="54" y="164"/>
    </contour>
    <contour>
      <point x="582" y="809" type="curve" smooth="yes"/>
      <point x="582" y="815"/>
      <point x="589" y="820"/>
      <point x="595" y="820" type="curve" smooth="yes"/>
      <point x="601" y="820"/>
      <point x="604" y="815"/>
      <point x="604" y="809" type="curve" smooth="yes"/>
      <point x="604" y="803"/>
      <point x="598" y="798"/>
      <point x="592" y="798" type="curve" smooth="yes"/>
      <point x="586" y="798"/>
      <point x="582" y="803"/>
    </contour>
    <contour>
      <point x="369" y="809" type="curve" smooth="yes"/>
      <point x="369" y="815"/>
      <point x="376" y="820"/>
      <point x="382" y="820" type="curve" smooth="yes"/>
      <point x="388" y="820"/>
      <point x="390" y="815"/>
      <point x="390" y="809" type="curve" smooth="yes"/>
      <point x="390" y="803"/>
      <point x="384" y="798"/>
      <point x="378" y="798" type="curve" smooth="yes"/>
      <point x="372" y="798"/>
      <point x="369" y="803"/>
    </contour>
  </outline>
</glyph>
<glyph name="multiply" format="2">
  <advance width="560"/>
  <unicode hex="00D7"/>
  <outline>
    <contour>
      <point x="66" y="47" type="line"/>
      <point x="60" y="54" type="line"/>
      <point x="292" y="254" type="line"/>
      <point x="128" y="456" type="line"/>
      <point x="136" y="463" type="line"/>
      <point x="297" y="260" type="line"/>
      <point x="528" y="462" type="line"/>
      <point x="534" y="455" type="line"/>
      <point x="302" y="254" type="line"/>
      <point x="464" y="53" type="line"/>
      <point x="457" y="46" type="line"/>
      <point x="296" y="248" type="line"/>
    </contour>
  </outline>
</glyph>
<glyph name="Ugrave" format="2">
  <advance width="558"/>
  <unicode hex="00D9"/>
  <outline>
    <contour>
      <point x="176" y="700" type="line"/>
      <point x="186" y="700" type="line"/>
      <point x="104" y="220" type="line" smooth="yes"/>
      <point x="89" y="104"/>
      <point x="129" y="2"/>
      <point x="252" y="2" type="curve" smooth="yes"/>
      <point x="375" y="2"/>
      <point x="456" y="98"/>
      <point x="476" y="220" type="curve" smooth="yes"/>
      <point x="558" y="700" type="line"/>
      <point x="570" y="700" type="line"/>
      <point x="488" y="220" type="line" smooth="yes"/>
      <point x="467" y="92"/>
      <point x="386" y="-10"/>
      <point x="252" y="-10" type="curve" smooth="yes"/>
      <point x="118" y="-10"/>
      <point x="77" y="98"/>
      <point x="93" y="220" type="curve" smooth="yes"/>
    </contour>
    <contour>
      <point x="278" y="925" type="line"/>
      <point x="286" y="932" type="line"/>
      <point x="426" y="773" type="line"/>
      <point x="421" y="768" type="line"/>
    </contour>
  </outline>
</glyph>
<glyph name="Uacute" format="2">
  <advance width="558"/>
  <unicode hex="00DA"/>
  <outline>
    <contour>
      <point x="176" y="700" type="line"/>
      <point x="186" y="700" type="line"/>
      <point x="104" y="220" type="line" smooth="yes"/>
      <point x="89" y="104"/>
      <point x="129" y="2"/>
      <point x="252" y="2" type="curve" smooth="yes"/>
      <point x="375" y="2"/>
      <point x="456" y="98"/>
      <point x="476" y="220" type="curve" smooth="yes"/>
      <point x="558" y="700" type="line"/>
      <point x="570" y="700" type="line"/>
      <point x="488" y="220" type="line" smooth="yes"/>
      <point x="467" y="92"/>
      <point x="386" y="-10"/>
      <point x="252" y="-10" type="curve" smooth="yes"/>
      <point x="118" y="-10"/>
      <point x="77" y="98"/>
      <point x="93" y="220" type="curve" smooth="yes"/>
    </contour>
    <contour>
      <point x="543" y="924" type="line"/>
      <point x="346" y="769" type="line"/>
      <point x="343" y="774" type="line"/>
      <point x="536" y="932" type="line"/>
    </contour>
  </outline>
</glyph>
<glyph name="Ucircumflex" format="2">
  <advance width="558"/>
  <unicode hex="00DB"/>
  <outline>
    <contour>
      <point x="176" y="700" type="line"/>
      <point x="186" y="700" type="line"/>
      <point x="104" y="220" type="line" smooth="yes"/>
      <point x="89" y="104"/>
      <point x="129" y="2"/>
      <point x="252" y="2" type="curve" smooth="yes"/>
      <point x="375" y="2"/>
      <point x="456" y="98"/>
      <point x="476" y="220" type="curve" smooth="yes"/>
      <point x="558" y="700" type="line"/>
      <point x="570" y="700" type="line"/>
      <point x="488" y="220" type="line" smooth="yes"/>
      <point x="467" y="92"/>
      <point x="386" y="-10"/>
      <point x="252" y="-10" type="curve" smooth="yes"/>
      <point x="118" y="-10"/>
      <point x="77" y="98"/>
      <point x="93" y="220" type="curve" smooth="yes"/>
    </contour>
    <contour>
      <point x="407" y="902" type="line"/>
      <point x="234" y="769" type="line"/>
      <point x="229" y="776" type="line"/>
      <point x="408" y="914" type="line"/>
      <point x="540" y="775" type="line"/>
      <point x="532" y="768" type="line"/>
    </contour>
  </outline>
</glyph>
<glyph name="Udieresis" format="2">
  <advance width="558"/>
  <unicode hex="00DC"/>
  <outline>
    <contour>
      <point x="176" y="700" type="line"/>
      <point x="186" y="700" type="line"/>
      <point x="104" y="220" type="line" smooth="yes"/>
      <point x="89" y="104"/>
      <point x="129" y="2"/>
      <point x="252" y="2" type="curve" smooth="yes"/>
      <point x="375" y="2"/>
      <point x="456" y="98"/>
      <point x="476" y="220" type="curve" smooth="yes"/>
      <point x="558" y="700" type="line"/>
      <point x="570" y="700" type="line"/>
      <point x="488" y="220" type="line" smooth="yes"/>
      <point x="467" y="92"/>
      <point x="386" y="-10"/>
      <point x="252" y="-10" type="curve" smooth="yes"/>
      <point x="118" y="-10"/>
      <point x="77" y="98"/>
      <point x="93" y="220" type="curve" smooth="yes"/>
    </contour>
    <contour>
      <point x="462" y="779" type="curve" smooth="yes"/>
      <point x="462" y="785"/>
      <point x="468" y="790"/>
      <point x="474" y="790" type="curve" smooth="yes"/>
      <point x="480" y="790"/>
      <point x="484" y="785"/>
      <point x="484" y="779" type="curve" smooth="yes"/>
      <point x="484" y="773"/>
      <point x="477" y="768"/>
      <point x="471" y="768" type="curve" smooth="yes"/>
      <point x="465" y="768"/>
      <point x="462" y="773"/>
    </contour>
    <contour>
      <point x="287" y="779" type="curve" smooth="yes"/>
      <point x="287" y="785"/>
      <point x="294" y="790"/>
      <point x="300" y="790" type="curve" smooth="yes"/>
      <point x="306" y="790"/>
      <point x="309" y="785"/>
      <point x="309" y="779" type="curve" smooth="yes"/>
      <point x="309" y="773"/>
      <point x="302" y="768"/>
      <point x="296" y="768" type="curve" smooth="yes"/>
      <point x="290" y="768"/>
      <point x="287" y="773"/>
    </contour>
  </outline>
</glyph>
<glyph name="Yacute" format="2">
  <advance width="492"/>
  <unicode hex="00DD"/>
  <outline>
    <contour>
      <point x="528" y="924" type="line"/>
      <point x="332" y="769" type="line"/>
      <point x="328" y="774" type="line"/>
      <point x="522" y="932" type="line"/>
    </contour>
    <contour>
      <point x="558" y="699" type="line"/>
      <point x="570" y="699" type="line"/>
      <point x="265" y="266" type="line"/>
      <point x="219" y="0" type="line"/>
      <point x="208" y="0" type="line"/>
      <point x="254" y="266" type="line"/>
      <point x="107" y="700" type="line"/>
      <point x="120" y="700" type="line"/>
      <point x="261" y="282" type="line"/>
    </contour>
  </outline>
</glyph>
<glyph name="atilde" format="2">
  <advance width="525"/>
  <unicode hex="00E3"/>
  <outline>
    <contour>
      <point x="490" y="460" type="line"/>
      <point x="500" y="460" type="line"/>
      <point x="420" y="0" type="line"/>
      <point x="410" y="0" type="line"/>
    </contour>
    <contour>
      <point x="56" y="230" type="curve" smooth="yes"/>
      <point x="76" y="362"/>
      <point x="177" y="472"/>
      <point x="303" y="470" type="curve" smooth="yes"/>
      <point x="427" y="468"/>
      <point x="471" y="336"/>
      <point x="455" y="230" type="curve" smooth="yes"/>
      <point x="437" y="116"/>
      <point x="347" y="-10"/>
      <point x="222" y="-10" type="curve" smooth="yes"/>
      <point x="96" y="-10"/>
      <point x="39" y="106"/>
    </contour>
    <contour>
      <point x="66" y="230" type="curve" smooth="yes"/>
      <point x="50" y="111"/>
      <point x="104" y="-1"/>
      <point x="226" y="0" type="curve" smooth="yes"/>
      <point x="340" y="1"/>
      <point x="432" y="120"/>
      <point x="450" y="230" type="curve" smooth="yes"/>
      <point x="465" y="332"/>
      <point x="419" y="458"/>
      <point x="305" y="460" type="curve" smooth="yes"/>
      <point x="183" y="462"/>
      <point x="85" y="356"/>
    </contour>
    <contour>
      <point x="194" y="552" type="line"/>
      <point x="187" y="578"/>
      <point x="234" y="608"/>
      <point x="264" y="608" type="curve" smooth="yes"/>
      <point x="312" y="608"/>
      <point x="330" y="561"/>
      <point x="377" y="562" type="curve" smooth="yes"/>
      <point x="406" y="562"/>
      <point x="423" y="584"/>
      <point x="440" y="610" type="curve"/>
      <point x="450" y="606" type="line"/>
      <point x="432" y="576"/>
      <point x="408" y="554"/>
      <point x="376" y="554" type="curve" smooth="yes"/>
      <point x="329" y="554"/>
      <point x="308" y="600"/>
      <point x="266" y="600" type="curve" smooth="yes"/>
      <point x="230" y="600"/>
      <point x="213" y="574"/>
      <point x="204" y="550" type="curve"/>
    </contour>
  </outline>
</glyph>
<glyph name="aring" format="2">
  <advance width="525"/>
  <unicode hex="00E5"/>
  <outline>
    <contour>
      <point x="490" y="460" type="line"/>
      <point x="500" y="460" type="line"/>
      <point x="420" y="0" type="line"/>
      <point x="410" y="0" type="line"/>
    </contour>
    <contour>
      <point x="56" y="230" type="curve" smooth="yes"/>
      <point x="76" y="362"/>
      <point x="177" y="472"/>
      <point x="303" y="470" type="curve" smooth="yes"/>
      <point x="427" y="468"/>
      <point x="471" y="336"/>
      <point x="455" y="230" type="curve" smooth="yes"/>
      <point x="437" y="116"/>
      <point x="347" y="-10"/>
      <point x="222" y="-10" type="curve" smooth="yes"/>
      <point x="96" y="-10"/>
      <point x="39" y="106"/>
    </contour>
    <contour>
      <point x="66" y="230" type="curve" smooth="yes"/>
      <point x="50" y="111"/>
      <point x="104" y="-1"/>
      <point x="226" y="0" type="curve" smooth="yes"/>
      <point x="340" y="1"/>
      <point x="432" y="120"/>
      <point x="450" y="230" type="curve" smooth="yes"/>
      <point x="465" y="332"/>
      <point x="419" y="458"/>
      <point x="305" y="460" type="curve" smooth="yes"/>
      <point x="183" y="462"/>
      <point x="85" y="356"/>
    </contour>
    <contour>
      <point x="232" y="630" type="curve" smooth="yes"/>
      <point x="240" y="686"/>
      <point x="294" y="730"/>
      <point x="348" y="730" type="curve" smooth="yes"/>
      <point x="401" y="730"/>
      <point x="438" y="684"/>
      <point x="430" y="630" type="curve" smooth="yes"/>
      <point x="422" y="574"/>
      <point x="368" y="530"/>
      <point x="314" y="530" type="curve" smooth="yes"/>
      <point x="261" y="530"/>
      <point x="224" y="576"/>
    </contour>
    <contour>
      <point x="241" y="630" type="curve" smooth="yes"/>
      <point x="234" y="582"/>
      <point x="266" y="541"/>
      <point x="314" y="540" type="curve" smooth="yes"/>
      <point x="362" y="539"/>
      <point x="412" y="581"/>
      <point x="420" y="630" type="curve" smooth="yes"/>
      <point x="427" y="678"/>
      <point x="395" y="719"/>
      <point x="347" y="720" type="curve" smooth="yes"/>
      <point x="299" y="721"/>
      <point x="249" y="679"/>
    </contour>
  </outline>
</glyph>
<glyph name="ae" format="2">
  <advance width="825"/>
  <unicode hex="00E6"/>
  <outline>
    <contour>
      <point x="158" y="-10" type="curve" smooth="yes"/>
      <point x="68" y="-10"/>
      <point x="13" y="50"/>
      <point x="27" y="132" type="curve" smooth="yes"/>
      <point x="42" y="222"/>
      <point x="126" y="281"/>
      <point x="237" y="281" type="curve" smooth="yes"/>
      <point x="294" y="281"/>
      <point x="341" y="263"/>
      <point x="364" y="234" type="curve"/>
      <point x="359" y="233" type="line"/>
      <point x="374" y="320" type="line" smooth="yes"/>
      <point x="389" y="411"/>
      <point x="358" y="460"/>
      <point x="280" y="460" type="curve" smooth="yes"/>
      <point x="226" y="460"/>
      <point x="164" y="437"/>
      <point x="115" y="395" type="curve"/>
      <point x="110" y="403" type="line"/>
      <point x="161" y="445"/>
      <point x="224" y="470"/>
      <point x="282" y="470" type="curve" smooth="yes"/>
      <point x="374" y="470"/>
      <point x="404" y="408"/>
      <point x="376" y="282" type="curve"/>
      <point x="372" y="282" type="line"/>
      <point x="410" y="391"/>
      <point x="515" y="470"/>
      <point x="624" y="470" type="curve" smooth="yes"/>
      <point x="738" y="470"/>
      <point x="814" y="374"/>
      <point x="794" y="253" type="curve" smooth="yes"/>
      <point x="792" y="243"/>
      <point x="791" y="241"/>
      <point x="787" y="228" type="curve"/>
      <point x="364" y="228" type="line"/>
      <point x="370" y="230" type="line"/>
      <point x="346" y="90"/>
      <point x="408" y="0"/>
      <point x="528" y="0" type="curve" smooth="yes"/>
      <point x="612" y="0"/>
      <point x="696" y="41"/>
      <point x="755" y="113" type="curve"/>
      <point x="762" y="107" type="line"/>
      <point x="704" y="33"/>
      <point x="619" y="-10"/>
      <point x="529" y="-10" type="curve" smooth="yes"/>
      <point x="417" y="-10"/>
      <point x="353" y="58"/>
      <point x="356" y="178" type="curve"/>
      <point x="361" y="178" type="line"/>
      <point x="329" y="59"/>
      <point x="254" y="-10"/>
    </contour>
    <contour>
      <point x="158" y="0" type="curve" smooth="yes"/>
      <point x="252" y="0"/>
      <point x="327" y="73"/>
      <point x="358" y="198" type="curve"/>
      <point x="354" y="179" type="line"/>
      <point x="358" y="230" type="line"/>
      <point x="360" y="224" type="line"/>
      <point x="338" y="253"/>
      <point x="292" y="271"/>
      <point x="236" y="271" type="curve" smooth="yes"/>
      <point x="132" y="271"/>
      <point x="51" y="214"/>
      <point x="37" y="132" type="curve" smooth="yes"/>
      <point x="25" y="56"/>
      <point x="75" y="0"/>
    </contour>
    <contour>
      <point x="370" y="236" type="curve"/>
      <point x="366" y="238" type="line"/>
      <point x="786" y="238" type="line"/>
      <point x="778" y="234" type="line"/>
      <point x="780" y="238"/>
      <point x="781" y="244"/>
      <point x="783" y="252" type="curve" smooth="yes"/>
      <point x="803" y="368"/>
      <point x="731" y="460"/>
      <point x="621" y="460" type="curve" smooth="yes"/>
      <point x="503" y="460"/>
      <point x="390" y="360"/>
    </contour>
  </outline>
</glyph>
<glyph name="ccedilla" format="2">
  <advance width="473"/>
  <unicode hex="00E7"/>
  <outline>
    <contour>
      <point x="60" y="230" type="curve" smooth="yes"/>
      <point x="42" y="110"/>
      <point x="112" y="0"/>
      <point x="238" y="0" type="curve" smooth="yes"/>
      <point x="306" y="0"/>
      <point x="363" y="32"/>
      <point x="399" y="60" type="curve"/>
      <point x="397" y="48" type="line"/>
      <point x="361" y="20"/>
      <point x="302" y="-10"/>
      <point x="236" y="-10" type="curve" smooth="yes"/>
      <point x="104" y="-10"/>
      <point x="32" y="105"/>
      <point x="50" y="230" type="curve" smooth="yes"/>
      <point x="70" y="362"/>
      <point x="184" y="470"/>
      <point x="318" y="470" type="curve" smooth="yes"/>
      <point x="380" y="470"/>
      <point x="431" y="443"/>
      <point x="459" y="412" type="curve"/>
      <point x="457" y="400" type="line"/>
      <point x="431" y="432"/>
      <point x="379" y="460"/>
      <point x="317" y="460" type="curve" smooth="yes"/>
      <point x="189" y="460"/>
      <point x="80" y="356"/>
    </contour>
    <contour>
      <point x="232" y="-4" type="line"/>
      <point x="244" y="-4" type="line"/>
      <point x="176" y="-78" type="line"/>
      <point x="200" y="-65"/>
      <point x="219" y="-54"/>
      <point x="248" y="-56" type="curve" smooth="yes"/>
      <point x="284" y="-58"/>
      <point x="311" y="-88"/>
      <point x="306" y="-130" type="curve" smooth="yes"/>
      <point x="299" y="-187"/>
      <point x="240" y="-222"/>
      <point x="186" y="-222" type="curve" smooth="yes"/>
      <point x="152" y="-222"/>
      <point x="130" y="-209"/>
      <point x="106" y="-185" type="curve"/>
      <point x="114" y="-179" type="line"/>
      <point x="138" y="-200"/>
      <point x="158" y="-212"/>
      <point x="188" y="-212" type="curve" smooth="yes"/>
      <point x="236" y="-212"/>
      <point x="289" y="-181"/>
      <point x="296" y="-129" type="curve" smooth="yes"/>
      <point x="300" y="-92"/>
      <point x="277" y="-68"/>
      <point x="246" y="-66" type="curve" smooth="yes"/>
      <point x="216" y="-64"/>
      <point x="187" y="-76"/>
      <point x="163" y="-90" type="curve"/>
    </contour>
  </outline>
</glyph>
<glyph name="ecircumflex" format="2">
  <advance width="487"/>
  <unicode hex="00EA"/>
  <outline>
    <contour>
      <point x="68" y="228" type="line"/>
      <point x="70" y="238" type="line"/>
      <point x="452" y="238" type="line"/>
      <point x="474" y="344"/>
      <point x="416" y="458"/>
      <point x="302" y="459" type="curve" smooth="yes"/>
      <point x="187" y="460"/>
      <point x="90" y="357"/>
      <point x="72" y="233" type="curve"/>
      <point x="72" y="232" type="line"/>
      <point x="60" y="118"/>
      <point x="109" y="1"/>
      <point x="225" y="0" type="curve" smooth="yes"/>
      <point x="325" y="-1"/>
      <point x="384" y="58"/>
      <point x="428" y="112" type="curve"/>
      <point x="436" y="106" type="line"/>
      <point x="390" y="52"/>
      <point x="332" y="-10"/>
      <point x="224" y="-10" type="curve" smooth="yes"/>
      <point x="102" y="-10"/>
      <point x="48" y="112"/>
      <point x="62" y="232" type="curve" smooth="yes"/>
      <point x="66" y="258"/>
      <point x="74" y="284"/>
      <point x="84" y="308" type="curve" smooth="yes"/>
      <point x="122" y="396"/>
      <point x="202" y="470"/>
      <point x="302" y="470" type="curve" smooth="yes"/>
      <point x="412" y="469"/>
      <point x="480" y="364"/>
      <point x="466" y="254" type="curve" smooth="yes"/>
      <point x="464" y="246"/>
      <point x="462" y="236"/>
      <point x="460" y="228" type="curve"/>
    </contour>
    <contour>
      <point x="330" y="664" type="line"/>
      <point x="158" y="531" type="line"/>
      <point x="152" y="538" type="line"/>
      <point x="331" y="676" type="line"/>
      <point x="463" y="537" type="line"/>
      <point x="456" y="530" type="line"/>
    </contour>
  </outline>
</glyph>
<glyph name="edieresis" format="2">
  <advance width="487"/>
  <unicode hex="00EB"/>
  <outline>
    <contour>
      <point x="68" y="228" type="line"/>
      <point x="70" y="238" type="line"/>
      <point x="452" y="238" type="line"/>
      <point x="474" y="344"/>
      <point x="416" y="458"/>
      <point x="302" y="459" type="curve" smooth="yes"/>
      <point x="187" y="460"/>
      <point x="90" y="357"/>
      <point x="72" y="233" type="curve"/>
      <point x="72" y="232" type="line"/>
      <point x="60" y="118"/>
      <point x="109" y="1"/>
      <point x="225" y="0" type="curve" smooth="yes"/>
      <point x="325" y="-1"/>
      <point x="384" y="58"/>
      <point x="428" y="112" type="curve"/>
      <point x="436" y="106" type="line"/>
      <point x="390" y="52"/>
      <point x="332" y="-10"/>
      <point x="224" y="-10" type="curve" smooth="yes"/>
      <point x="102" y="-10"/>
      <point x="48" y="112"/>
      <point x="62" y="232" type="curve" smooth="yes"/>
      <point x="66" y="258"/>
      <point x="74" y="284"/>
      <point x="84" y="308" type="curve" smooth="yes"/>
      <point x="122" y="396"/>
      <point x="202" y="470"/>
      <point x="302" y="470" type="curve" smooth="yes"/>
      <point x="412" y="469"/>
      <point x="480" y="364"/>
      <point x="466" y="254" type="curve" smooth="yes"/>
      <point x="464" y="246"/>
      <point x="462" y="236"/>
      <point x="460" y="228" type="curve"/>
    </contour>
    <contour>
      <point x="394" y="541" type="curve" smooth="yes"/>
      <point x="394" y="547"/>
      <point x="400" y="552"/>
      <point x="406" y="552" type="curve" smooth="yes"/>
      <point x="412" y="552"/>
      <point x="416" y="547"/>
      <point x="416" y="541" type="curve" smooth="yes"/>
      <point x="416" y="535"/>
      <point x="409" y="530"/>
      <point x="403" y="530" type="curve" smooth="yes"/>
      <point x="397" y="530"/>
      <point x="394" y="535"/>
    </contour>
    <contour>
      <point x="200" y="541" type="curve" smooth="yes"/>
      <point x="200" y="547"/>
      <point x="206" y="552"/>
      <point x="212" y="552" type="curve" smooth="yes"/>
      <point x="218" y="552"/>
      <point x="222" y="547"/>
      <point x="222" y="541" type="curve" smooth="yes"/>
      <point x="222" y="535"/>
      <point x="215" y="530"/>
      <point x="209" y="530" type="curve" smooth="yes"/>
      <point x="203" y="530"/>
      <point x="200" y="535"/>
    </contour>
  </outline>
</glyph>
<glyph name="igrave" format="2">
  <advance width="184"/>
  <unicode hex="00EC"/>
  <outline>
    <contour>
      <point x="140" y="460" type="line"/>
      <point x="149" y="460" type="line"/>
      <point x="70" y="0" type="line"/>
      <point x="60" y="0" type="line"/>
    </contour>
    <contour>
      <point x="32" y="687" type="line"/>
      <point x="40" y="694" type="line"/>
      <point x="179" y="535" type="line"/>
      <point x="172" y="530" type="line"/>
    </contour>
  </outline>
</glyph>
<glyph name="iacute" format="2">
  <advance width="184"/>
  <unicode hex="00ED"/>
  <outline>
    <contour>
      <point x="140" y="460" type="line"/>
      <point x="149" y="460" type="line"/>
      <point x="70" y="0" type="line"/>
      <point x="60" y="0" type="line"/>
    </contour>
    <contour>
      <point x="334" y="686" type="line"/>
      <point x="139" y="531" type="line"/>
      <point x="134" y="536" type="line"/>
      <point x="326" y="694" type="line"/>
    </contour>
  </outline>
</glyph>
<glyph name="icircumflex" format="2">
  <advance width="184"/>
  <unicode hex="00EE"/>
  <outline>
    <contour>
      <point x="140" y="460" type="line"/>
      <point x="149" y="460" type="line"/>
      <point x="70" y="0" type="line"/>
      <point x="60" y="0" type="line"/>
    </contour>
    <contour>
      <point x="179" y="664" type="line"/>
      <point x="7" y="531" type="line"/>
      <point x="1" y="538" type="line"/>
      <point x="180" y="676" type="line"/>
      <point x="312" y="537" type="line"/>
      <point x="304" y="530" type="line"/>
    </contour>
  </outline>
</glyph>
<glyph name="idieresis" format="2">
  <advance width="184"/>
  <unicode hex="00EF"/>
  <outline>
    <contour>
      <point x="140" y="460" type="line"/>
      <point x="149" y="460" type="line"/>
      <point x="70" y="0" type="line"/>
      <point x="60" y="0" type="line"/>
    </contour>
    <contour>
      <point x="224" y="541" type="curve" smooth="yes"/>
      <point x="224" y="547"/>
      <point x="230" y="552"/>
      <point x="236" y="552" type="curve" smooth="yes"/>
      <point x="242" y="552"/>
      <point x="246" y="547"/>
      <point x="246" y="541" type="curve" smooth="yes"/>
      <point x="246" y="535"/>
      <point x="240" y="530"/>
      <point x="234" y="530" type="curve" smooth="yes"/>
      <point x="228" y="530"/>
      <point x="224" y="535"/>
    </contour>
    <contour>
      <point x="69" y="541" type="curve" smooth="yes"/>
      <point x="69" y="547"/>
      <point x="76" y="552"/>
      <point x="82" y="552" type="curve" smooth="yes"/>
      <point x="88" y="552"/>
      <point x="90" y="547"/>
      <point x="90" y="541" type="curve" smooth="yes"/>
      <point x="90" y="535"/>
      <point x="84" y="530"/>
      <point x="78" y="530" type="curve" smooth="yes"/>
      <point x="72" y="530"/>
      <point x="69" y="535"/>
    </contour>
  </outline>
</glyph>
<glyph name="ntilde" format="2">
  <advance width="460"/>
  <unicode hex="00F1"/>
  <outline>
    <contour>
      <point x="144" y="460" type="line"/>
      <point x="64" y="0" type="line"/>
      <point x="54" y="0" type="line"/>
      <point x="134" y="460" type="line"/>
    </contour>
    <contour>
      <point x="396" y="320" type="line" smooth="yes"/>
      <point x="406" y="392"/>
      <point x="388" y="459"/>
      <point x="302" y="460" type="curve" smooth="yes"/>
      <point x="206" y="461"/>
      <point x="132" y="369"/>
      <point x="112" y="281" type="curve"/>
      <point x="107" y="281" type="line"/>
      <point x="127" y="379"/>
      <point x="200" y="470"/>
      <point x="302" y="470" type="curve" smooth="yes"/>
      <point x="394" y="470"/>
      <point x="416" y="399"/>
      <point x="406" y="320" type="curve" smooth="yes"/>
      <point x="350" y="0" type="line"/>
      <point x="341" y="0" type="line"/>
    </contour>
    <contour>
      <point x="175" y="552" type="line"/>
      <point x="185" y="580"/>
      <point x="204" y="608"/>
      <point x="245" y="608" type="curve" smooth="yes"/>
      <point x="293" y="608"/>
      <point x="311" y="561"/>
      <point x="358" y="562" type="curve" smooth="yes"/>
      <point x="387" y="562"/>
      <point x="403" y="584"/>
      <point x="420" y="610" type="curve"/>
      <point x="430" y="606" type="line"/>
      <point x="412" y="576"/>
      <point x="388" y="554"/>
      <point x="356" y="554" type="curve" smooth="yes"/>
      <point x="309" y="554"/>
      <point x="288" y="600"/>
      <point x="246" y="600" type="curve" smooth="yes"/>
      <point x="209" y="600"/>
      <point x="192" y="574"/>
      <point x="184" y="550" type="curve"/>
    </contour>
  </outline>
</glyph>
<glyph name="ocircumflex" format="2">
  <advance width="539"/>
  <unicode hex="00F4"/>
  <outline>
    <contour>
      <point x="56" y="230" type="curve" smooth="yes"/>
      <point x="76" y="361"/>
      <point x="188" y="470"/>
      <point x="322" y="470" type="curve" smooth="yes"/>
      <point x="454" y="470"/>
      <point x="526" y="355"/>
      <point x="508" y="230" type="curve" smooth="yes"/>
      <point x="488" y="99"/>
      <point x="376" y="-10"/>
      <point x="242" y="-10" type="curve" smooth="yes"/>
      <point x="110" y="-10"/>
      <point x="38" y="105"/>
    </contour>
    <contour>
      <point x="66" y="230" type="curve" smooth="yes"/>
      <point x="48" y="110"/>
      <point x="116" y="0"/>
      <point x="242" y="0" type="curve" smooth="yes"/>
      <point x="370" y="0"/>
      <point x="478" y="104"/>
      <point x="498" y="230" type="curve" smooth="yes"/>
      <point x="516" y="350"/>
      <point x="448" y="460"/>
      <point x="322" y="460" type="curve" smooth="yes"/>
      <point x="194" y="460"/>
      <point x="86" y="356"/>
    </contour>
    <contour>
      <point x="360" y="684" type="line"/>
      <point x="188" y="551" type="line"/>
      <point x="182" y="558" type="line"/>
      <point x="362" y="696" type="line"/>
      <point x="494" y="557" type="line"/>
      <point x="486" y="550" type="line"/>
    </contour>
  </outline>
</glyph>
<glyph name="otilde" format="2">
  <advance width="539"/>
  <unicode hex="00F5"/>
  <outline>
    <contour>
      <point x="56" y="230" type="curve" smooth="yes"/>
      <point x="76" y="361"/>
      <point x="188" y="470"/>
      <point x="322" y="470" type="curve" smooth="yes"/>
      <point x="454" y="470"/>
      <point x="526" y="355"/>
      <point x="508" y="230" type="curve" smooth="yes"/>
      <point x="488" y="99"/>
      <point x="376" y="-10"/>
      <point x="242" y="-10" type="curve" smooth="yes"/>
      <point x="110" y="-10"/>
      <point x="38" y="105"/>
    </contour>
    <contour>
      <point x="66" y="230" type="curve" smooth="yes"/>
      <point x="48" y="110"/>
      <point x="116" y="0"/>
      <point x="242" y="0" type="curve" smooth="yes"/>
      <point x="370" y="0"/>
      <point x="478" y="104"/>
      <point x="498" y="230" type="curve" smooth="yes"/>
      <point x="516" y="350"/>
      <point x="448" y="460"/>
      <point x="322" y="460" type="curve" smooth="yes"/>
      <point x="194" y="460"/>
      <point x="86" y="356"/>
    </contour>
    <contour>
      <point x="214" y="552" type="line"/>
      <point x="207" y="578"/>
      <point x="254" y="608"/>
      <point x="284" y="608" type="curve" smooth="yes"/>
      <point x="332" y="608"/>
      <point x="349" y="561"/>
      <point x="396" y="562" type="curve" smooth="yes"/>
      <point x="425" y="562"/>
      <point x="443" y="584"/>
      <point x="460" y="610" type="curve"/>
      <point x="469" y="606" type="line"/>
      <point x="451" y="576"/>
      <point x="428" y="554"/>
      <point x="396" y="554" type="curve" smooth="yes"/>
      <point x="349" y="554"/>
      <point x="328" y="600"/>
      <point x="286" y="600" type="curve" smooth="yes"/>
      <point x="250" y="600"/>
      <point x="233" y="574"/>
      <point x="224" y="550" type="curve"/>
    </contour>
  </outline>
</glyph>
<glyph name="odieresis" format="2">
  <advance width="539"/>
  <unicode hex="00F6"/>
  <outline>
    <contour>
      <point x="56" y="230" type="curve" smooth="yes"/>
      <point x="76" y="361"/>
      <point x="188" y="470"/>
      <point x="322" y="470" type="curve" smooth="yes"/>
      <point x="454" y="470"/>
      <point x="526" y="355"/>
      <point x="508" y="230" type="curve" smooth="yes"/>
      <point x="488" y="99"/>
      <point x="376" y="-10"/>
      <point x="242" y="-10" type="curve" smooth="yes"/>
      <point x="110" y="-10"/>
      <point x="38" y="105"/>
    </contour>
    <contour>
      <point x="66" y="230" type="curve" smooth="yes"/>
      <point x="48" y="110"/>
      <point x="116" y="0"/>
      <point x="242" y="0" type="curve" smooth="yes"/>
      <point x="370" y="0"/>
      <point x="478" y="104"/>
      <point x="498" y="230" type="curve" smooth="yes"/>
      <point x="516" y="350"/>
      <point x="448" y="460"/>
      <point x="322" y="460" type="curve" smooth="yes"/>
      <point x="194" y="460"/>
      <point x="86" y="356"/>
    </contour>
    <contour>
      <point x="424" y="561" type="curve" smooth="yes"/>
      <point x="424" y="567"/>
      <point x="431" y="572"/>
      <point x="437" y="572" type="curve" smooth="yes"/>
      <point x="443" y="572"/>
      <point x="446" y="567"/>
      <point x="446" y="561" type="curve" smooth="yes"/>
      <point x="446" y="555"/>
      <point x="440" y="550"/>
      <point x="434" y="550" type="curve" smooth="yes"/>
      <point x="428" y="550"/>
      <point x="424" y="555"/>
    </contour>
    <contour>
      <point x="230" y="561" type="curve" smooth="yes"/>
      <point x="230" y="567"/>
      <point x="237" y="572"/>
      <point x="243" y="572" type="curve" smooth="yes"/>
      <point x="249" y="572"/>
      <point x="252" y="567"/>
      <point x="252" y="561" type="curve" smooth="yes"/>
      <point x="252" y="555"/>
      <point x="246" y="550"/>
      <point x="240" y="550" type="curve" smooth="yes"/>
      <point x="234" y="550"/>
      <point x="230" y="555"/>
    </contour>
  </outline>
</glyph>
<glyph name="divide" format="2">
  <advance width="604"/>
  <unicode hex="00F7"/>
  <outline>
    <contour>
      <point x="340" y="451" type="curve" smooth="yes"/>
      <point x="340" y="457"/>
      <point x="346" y="462"/>
      <point x="352" y="462" type="curve" smooth="yes"/>
      <point x="358" y="462"/>
      <point x="362" y="457"/>
      <point x="362" y="451" type="curve" smooth="yes"/>
      <point x="362" y="445"/>
      <point x="355" y="440"/>
      <point x="349" y="440" type="curve" smooth="yes"/>
      <point x="343" y="440"/>
      <point x="340" y="445"/>
    </contour>
    <contour>
      <point x="268" y="31" type="curve" smooth="yes"/>
      <point x="268" y="37"/>
      <point x="274" y="42"/>
      <point x="280" y="42" type="curve" smooth="yes"/>
      <point x="286" y="42"/>
      <point x="290" y="37"/>
      <point x="290" y="31" type="curve" smooth="yes"/>
      <point x="290" y="25"/>
      <point x="284" y="20"/>
      <point x="278" y="20" type="curve" smooth="yes"/>
      <point x="272" y="20"/>
      <point x="268" y="25"/>
    </contour>
    <contour>
      <point x="71" y="235" type="line"/>
      <point x="73" y="245" type="line"/>
      <point x="558" y="245" type="line"/>
      <point x="556" y="235" type="line"/>
    </contour>
  </outline>
</glyph>
<glyph name="oslash" format="2">
  <advance width="529"/>
  <unicode hex="00F8"/>
  <outline>
    <contour>
      <point x="56" y="230" type="curve" smooth="yes"/>
      <point x="76" y="361"/>
      <point x="188" y="470"/>
      <point x="322" y="470" type="curve" smooth="yes"/>
      <point x="454" y="470"/>
      <point x="526" y="355"/>
      <point x="508" y="230" type="curve" smooth="yes"/>
      <point x="488" y="99"/>
      <point x="376" y="-10"/>
      <point x="242" y="-10" type="curve" smooth="yes"/>
      <point x="110" y="-10"/>
      <point x="38" y="105"/>
    </contour>
    <contour>
      <point x="66" y="230" type="curve" smooth="yes"/>
      <point x="48" y="110"/>
      <point x="116" y="0"/>
      <point x="242" y="0" type="curve" smooth="yes"/>
      <point x="370" y="0"/>
      <point x="478" y="104"/>
      <point x="498" y="230" type="curve" smooth="yes"/>
      <point x="516" y="350"/>
      <point x="448" y="460"/>
      <point x="322" y="460" type="curve" smooth="yes"/>
      <point x="194" y="460"/>
      <point x="86" y="356"/>
    </contour>
    <contour>
      <point x="502" y="492" type="line"/>
      <point x="510" y="486" type="line"/>
      <point x="41" y="-36" type="line"/>
      <point x="33" y="-30" type="line"/>
    </contour>
  </outline>
</glyph>
<glyph name="ugrave" format="2">
  <advance width="460"/>
  <unicode hex="00F9"/>
  <outline>
    <contour>
      <point x="341" y="0" type="line"/>
      <point x="420" y="460" type="line"/>
      <point x="430" y="460" type="line"/>
      <point x="351" y="0" type="line"/>
    </contour>
    <contour>
      <point x="90" y="150" type="line" smooth="yes"/>
      <point x="80" y="72"/>
      <point x="95" y="0"/>
      <point x="184" y="0" type="curve" smooth="yes"/>
      <point x="280" y="-1"/>
      <point x="353" y="91"/>
      <point x="373" y="179" type="curve"/>
      <point x="378" y="179" type="line"/>
      <point x="358" y="81"/>
      <point x="285" y="-11"/>
      <point x="183" y="-10" type="curve" smooth="yes"/>
      <point x="88" y="-10"/>
      <point x="69" y="66"/>
      <point x="80" y="150" type="curve" smooth="yes"/>
      <point x="134" y="460" type="line"/>
      <point x="144" y="460" type="line"/>
    </contour>
    <contour>
      <point x="171" y="697" type="line"/>
      <point x="180" y="704" type="line"/>
      <point x="318" y="545" type="line"/>
      <point x="313" y="540" type="line"/>
    </contour>
  </outline>
</glyph>
<glyph name="uacute" format="2">
  <advance width="460"/>
  <unicode hex="00FA"/>
  <outline>
    <contour>
      <point x="341" y="0" type="line"/>
      <point x="420" y="460" type="line"/>
      <point x="430" y="460" type="line"/>
      <point x="351" y="0" type="line"/>
    </contour>
    <contour>
      <point x="90" y="150" type="line" smooth="yes"/>
      <point x="80" y="72"/>
      <point x="95" y="0"/>
      <point x="184" y="0" type="curve" smooth="yes"/>
      <point x="280" y="-1"/>
      <point x="353" y="91"/>
      <point x="373" y="179" type="curve"/>
      <point x="378" y="179" type="line"/>
      <point x="358" y="81"/>
      <point x="285" y="-11"/>
      <point x="183" y="-10" type="curve" smooth="yes"/>
      <point x="88" y="-10"/>
      <point x="69" y="66"/>
      <point x="80" y="150" type="curve" smooth="yes"/>
      <point x="134" y="460" type="line"/>
      <point x="144" y="460" type="line"/>
    </contour>
    <contour>
      <point x="474" y="696" type="line"/>
      <point x="278" y="541" type="line"/>
      <point x="274" y="546" type="line"/>
      <point x="467" y="704" type="line"/>
    </contour>
  </outline>
</glyph>
<glyph name="ucircumflex" format="2">
  <advance width="460"/>
  <unicode hex="00FB"/>
  <outline>
    <contour>
      <point x="341" y="0" type="line"/>
      <point x="420" y="460" type="line"/>
      <point x="430" y="460" type="line"/>
      <point x="351" y="0" type="line"/>
    </contour>
    <contour>
      <point x="90" y="150" type="line" smooth="yes"/>
      <point x="80" y="72"/>
      <point x="95" y="0"/>
      <point x="184" y="0" type="curve" smooth="yes"/>
      <point x="280" y="-1"/>
      <point x="353" y="91"/>
      <point x="373" y="179" type="curve"/>
      <point x="378" y="179" type="line"/>
      <point x="358" y="81"/>
      <point x="285" y="-11"/>
      <point x="183" y="-10" type="curve" smooth="yes"/>
      <point x="88" y="-10"/>
      <point x="69" y="66"/>
      <point x="80" y="150" type="curve" smooth="yes"/>
      <point x="134" y="460" type="line"/>
      <point x="144" y="460" type="line"/>
    </contour>
    <contour>
      <point x="320" y="674" type="line"/>
      <point x="146" y="541" type="line"/>
      <point x="142" y="548" type="line"/>
      <point x="321" y="686" type="line"/>
      <point x="453" y="547" type="line"/>
      <point x="444" y="540" type="line"/>
    </contour>
  </outline>
</glyph>
<glyph name="udieresis" format="2">
  <advance width="460"/>
  <unicode hex="00FC"/>
  <outline>
    <contour>
      <point x="341" y="0" type="line"/>
      <point x="420" y="460" type="line"/>
      <point x="430" y="460" type="line"/>
      <point x="351" y="0" type="line"/>
    </contour>
    <contour>
      <point x="90" y="150" type="line" smooth="yes"/>
      <point x="80" y="72"/>
      <point x="95" y="0"/>
      <point x="184" y="0" type="curve" smooth="yes"/>
      <point x="280" y="-1"/>
      <point x="353" y="91"/>
      <point x="373" y="179" type="curve"/>
      <point x="378" y="179" type="line"/>
      <point x="358" y="81"/>
      <point x="285" y="-11"/>
      <point x="183" y="-10" type="curve" smooth="yes"/>
      <point x="88" y="-10"/>
      <point x="69" y="66"/>
      <point x="80" y="150" type="curve" smooth="yes"/>
      <point x="134" y="460" type="line"/>
      <point x="144" y="460" type="line"/>
    </contour>
    <contour>
      <point x="366" y="562" type="curve" smooth="yes"/>
      <point x="366" y="568"/>
      <point x="373" y="572"/>
      <point x="379" y="572" type="curve" smooth="yes"/>
      <point x="385" y="572"/>
      <point x="387" y="567"/>
      <point x="387" y="561" type="curve" smooth="yes"/>
      <point x="387" y="555"/>
      <point x="382" y="550"/>
      <point x="376" y="550" type="curve" smooth="yes"/>
      <point x="370" y="550"/>
      <point x="366" y="556"/>
    </contour>
    <contour>
      <point x="210" y="562" type="curve" smooth="yes"/>
      <point x="210" y="568"/>
      <point x="218" y="572"/>
      <point x="224" y="572" type="curve" smooth="yes"/>
      <point x="230" y="572"/>
      <point x="232" y="567"/>
      <point x="232" y="561" type="curve" smooth="yes"/>
      <point x="232" y="555"/>
      <point x="226" y="550"/>
      <point x="220" y="550" type="curve" smooth="yes"/>
      <point x="214" y="550"/>
      <point x="210" y="556"/>
    </contour>
  </outline>
</glyph>
<glyph name="yacute" format="2">
  <advance width="412"/>
  <unicode hex="00FD"/>
  <outline>
    <contour>
      <point x="455" y="460" type="line"/>
      <point x="46" y="-220" type="line"/>
      <point x="36" y="-219" type="line"/>
      <point x="180" y="20" type="line"/>
      <point x="61" y="460" type="line"/>
      <point x="73" y="460" type="line"/>
      <point x="190" y="20" type="line"/>
      <point x="180" y="20" type="line"/>
      <point x="444" y="460" type="line"/>
    </contour>
    <contour>
      <point x="448" y="686" type="line"/>
      <point x="252" y="531" type="line"/>
      <point x="248" y="536" type="line"/>
      <point x="441" y="694" type="line"/>
    </contour>
  </outline>
</glyph>
<glyph name="ydieresis" format="2">
  <advance width="412"/>
  <unicode hex="00FF"/>
  <outline>
    <contour>
      <point x="455" y="460" type="line"/>
      <point x="46" y="-220" type="line"/>
      <point x="36" y="-219" type="line"/>
      <point x="180" y="20" type="line"/>
      <point x="61" y="460" type="line"/>
      <point x="73" y="460" type="line"/>
      <point x="190" y="20" type="line"/>
      <point x="180" y="20" type="line"/>
      <point x="444" y="460" type="line"/>
    </contour>
    <contour>
      <point x="342" y="561" type="curve" smooth="yes"/>
      <point x="342" y="567"/>
      <point x="348" y="572"/>
      <point x="354" y="572" type="curve" smooth="yes"/>
      <point x="360" y="572"/>
      <point x="364" y="566"/>
      <point x="364" y="560" type="curve" smooth="yes"/>
      <point x="364" y="554"/>
      <point x="356" y="550"/>
      <point x="350" y="550" type="curve" smooth="yes"/>
      <point x="344" y="550"/>
      <point x="342" y="555"/>
    </contour>
    <contour>
      <point x="187" y="561" type="curve" smooth="yes"/>
      <point x="187" y="567"/>
      <point x="192" y="572"/>
      <point x="198" y="572" type="curve" smooth="yes"/>
      <point x="204" y="572"/>
      <point x="208" y="566"/>
      <point x="208" y="560" type="curve" smooth="yes"/>
      <point x="208" y="554"/>
      <point x="201" y="550"/>
      <point x="195" y="550" type="curve" smooth="yes"/>
      <point x="189" y="550"/>
      <point x="187" y="555"/>
    </contour>
  </outline>
</glyph>
<glyph name="amacron" format="2">
  <advance width="525"/>
  <unicode hex="0101"/>
  <outline>
    <contour>
      <point x="490" y="460" type="line"/>
      <point x="500" y="460" type="line"/>
      <point x="420" y="0" type="line"/>
      <point x="410" y="0" type="line"/>
    </contour>
    <contour>
      <point x="56" y="230" type="curve" smooth="yes"/>
      <point x="76" y="362"/>
      <point x="177" y="472"/>
      <point x="303" y="470" type="curve" smooth="yes"/>
      <point x="427" y="468"/>
      <point x="471" y="336"/>
      <point x="455" y="230" type="curve" smooth="yes"/>
      <point x="437" y="116"/>
      <point x="347" y="-10"/>
      <point x="222" y="-10" type="curve" smooth="yes"/>
      <point x="96" y="-10"/>
      <point x="39" y="106"/>
    </contour>
    <contour>
      <point x="66" y="230" type="curve" smooth="yes"/>
      <point x="50" y="111"/>
      <point x="104" y="-1"/>
      <point x="226" y="0" type="curve" smooth="yes"/>
      <point x="340" y="1"/>
      <point x="432" y="120"/>
      <point x="450" y="230" type="curve" smooth="yes"/>
      <point x="465" y="332"/>
      <point x="419" y="458"/>
      <point x="305" y="460" type="curve" smooth="yes"/>
      <point x="183" y="462"/>
      <point x="85" y="356"/>
    </contour>
    <contour>
      <point x="147" y="550" type="line"/>
      <point x="149" y="560" type="line"/>
      <point x="488" y="560" type="line"/>
      <point x="487" y="550" type="line"/>
    </contour>
  </outline>
</glyph>
<glyph name="Abreve" format="2">
  <advance width="582"/>
  <unicode hex="0102"/>
  <outline>
    <contour>
      <point x="142" y="272" type="line"/>
      <point x="144" y="282" type="line"/>
      <point x="479" y="282" type="line"/>
      <point x="478" y="272" type="line"/>
    </contour>
    <contour>
      <point x="382" y="688" type="line"/>
      <point x="152" y="277" type="line"/>
      <point x="151" y="273" type="line"/>
      <point x="-2" y="0" type="line"/>
      <point x="-14" y="0" type="line"/>
      <point x="386" y="715" type="line"/>
      <point x="540" y="0" type="line"/>
      <point x="528" y="0" type="line"/>
      <point x="472" y="273" type="line"/>
      <point x="472" y="276" type="line"/>
    </contour>
    <contour>
      <point x="268" y="925" type="curve"/>
      <point x="278" y="925" type="line"/>
      <point x="272" y="857"/>
      <point x="313" y="796"/>
      <point x="399" y="796" type="curve" smooth="yes"/>
      <point x="487" y="796"/>
      <point x="546" y="857"/>
      <point x="566" y="924" type="curve"/>
      <point x="576" y="924" type="line"/>
      <point x="556" y="852"/>
      <point x="496" y="786"/>
      <point x="398" y="786" type="curve" smooth="yes"/>
      <point x="302" y="786"/>
      <point x="261" y="852"/>
    </contour>
  </outline>
</glyph>
<glyph name="abreve" format="2">
  <advance width="525"/>
  <unicode hex="0103"/>
  <outline>
    <contour>
      <point x="490" y="460" type="line"/>
      <point x="500" y="460" type="line"/>
      <point x="420" y="0" type="line"/>
      <point x="410" y="0" type="line"/>
    </contour>
    <contour>
      <point x="56" y="230" type="curve" smooth="yes"/>
      <point x="76" y="362"/>
      <point x="177" y="472"/>
      <point x="303" y="470" type="curve" smooth="yes"/>
      <point x="427" y="468"/>
      <point x="471" y="336"/>
      <point x="455" y="230" type="curve" smooth="yes"/>
      <point x="437" y="116"/>
      <point x="347" y="-10"/>
      <point x="222" y="-10" type="curve" smooth="yes"/>
      <point x="96" y="-10"/>
      <point x="39" y="106"/>
    </contour>
    <contour>
      <point x="66" y="230" type="curve" smooth="yes"/>
      <point x="50" y="111"/>
      <point x="104" y="-1"/>
      <point x="226" y="0" type="curve" smooth="yes"/>
      <point x="340" y="1"/>
      <point x="432" y="120"/>
      <point x="450" y="230" type="curve" smooth="yes"/>
      <point x="465" y="332"/>
      <point x="419" y="458"/>
      <point x="305" y="460" type="curve" smooth="yes"/>
      <point x="183" y="462"/>
      <point x="85" y="356"/>
    </contour>
    <contour>
      <point x="188" y="690" type="curve"/>
      <point x="198" y="690" type="line"/>
      <point x="192" y="622"/>
      <point x="232" y="560"/>
      <point x="318" y="560" type="curve" smooth="yes"/>
      <point x="406" y="560"/>
      <point x="466" y="622"/>
      <point x="486" y="689" type="curve"/>
      <point x="496" y="689" type="line"/>
      <point x="476" y="617"/>
      <point x="416" y="550"/>
      <point x="318" y="550" type="curve" smooth="yes"/>
      <point x="222" y="550"/>
      <point x="181" y="617"/>
    </contour>
  </outline>
</glyph>
<glyph name="Aogonek" format="2">
  <advance width="582"/>
  <unicode hex="0104"/>
  <outline>
    <contour>
      <point x="144" y="272" type="line"/>
      <point x="146" y="282" type="line"/>
      <point x="479" y="282" type="line"/>
      <point x="478" y="272" type="line"/>
    </contour>
    <contour>
      <point x="382" y="688" type="line"/>
      <point x="152" y="277" type="line"/>
      <point x="151" y="273" type="line"/>
      <point x="-2" y="0" type="line"/>
      <point x="-14" y="0" type="line"/>
      <point x="386" y="715" type="line"/>
      <point x="540" y="0" type="line"/>
      <point x="528" y="0" type="line"/>
      <point x="472" y="273" type="line"/>
      <point x="472" y="276" type="line"/>
    </contour>
    <contour>
      <point x="544" y="-174" type="curve"/>
      <point x="550" y="-181" type="line"/>
      <point x="526" y="-201"/>
      <point x="489" y="-220"/>
      <point x="448" y="-220" type="curve" smooth="yes"/>
      <point x="392" y="-220"/>
      <point x="354" y="-190"/>
      <point x="361" y="-140" type="curve" smooth="yes"/>
      <point x="372" y="-66"/>
      <point x="468" y="-22"/>
      <point x="536" y="10" type="curve"/>
      <point x="541" y="0" type="line"/>
      <point x="476" y="-31"/>
      <point x="381" y="-74"/>
      <point x="371" y="-140" type="curve" smooth="yes"/>
      <point x="365" y="-185"/>
      <point x="404" y="-210"/>
      <point x="449" y="-210" type="curve" smooth="yes"/>
      <point x="487" y="-210"/>
      <point x="522" y="-192"/>
    </contour>
  </outline>
</glyph>
<glyph name="aogonek" format="2">
  <advance width="525"/>
  <unicode hex="0105"/>
  <outline>
    <contour>
      <point x="490" y="460" type="line"/>
      <point x="500" y="460" type="line"/>
      <point x="420" y="0" type="line"/>
      <point x="410" y="0" type="line"/>
    </contour>
    <contour>
      <point x="56" y="230" type="curve" smooth="yes"/>
      <point x="76" y="362"/>
      <point x="177" y="472"/>
      <point x="303" y="470" type="curve" smooth="yes"/>
      <point x="427" y="468"/>
      <point x="471" y="336"/>
      <point x="455" y="230" type="curve" smooth="yes"/>
      <point x="437" y="116"/>
      <point x="347" y="-10"/>
      <point x="222" y="-10" type="curve" smooth="yes"/>
      <point x="96" y="-10"/>
      <point x="39" y="106"/>
    </contour>
    <contour>
      <point x="66" y="230" type="curve" smooth="yes"/>
      <point x="50" y="111"/>
      <point x="104" y="-1"/>
      <point x="226" y="0" type="curve" smooth="yes"/>
      <point x="340" y="1"/>
      <point x="432" y="120"/>
      <point x="450" y="230" type="curve" smooth="yes"/>
      <point x="465" y="332"/>
      <point x="419" y="458"/>
      <point x="305" y="460" type="curve" smooth="yes"/>
      <point x="183" y="462"/>
      <point x="85" y="356"/>
    </contour>
    <contour>
      <point x="424" y="-174" type="curve"/>
      <point x="430" y="-181" type="line"/>
      <point x="406" y="-201"/>
      <point x="369" y="-220"/>
      <point x="328" y="-220" type="curve" smooth="yes"/>
      <point x="272" y="-220"/>
      <point x="233" y="-190"/>
      <point x="240" y="-140" type="curve" smooth="yes"/>
      <point x="251" y="-66"/>
      <point x="348" y="-23"/>
      <point x="416" y="10" type="curve"/>
      <point x="421" y="0" type="line"/>
      <point x="356" y="-31"/>
      <point x="260" y="-74"/>
      <point x="250" y="-140" type="curve" smooth="yes"/>
      <point x="244" y="-185"/>
      <point x="283" y="-210"/>
      <point x="328" y="-210" type="curve" smooth="yes"/>
      <point x="366" y="-210"/>
      <point x="402" y="-192"/>
    </contour>
  </outline>
</glyph>
<glyph name="cacute" format="2">
  <advance width="473"/>
  <unicode hex="0107"/>
  <outline>
    <contour>
      <point x="60" y="230" type="curve" smooth="yes"/>
      <point x="42" y="110"/>
      <point x="112" y="0"/>
      <point x="238" y="0" type="curve" smooth="yes"/>
      <point x="306" y="0"/>
      <point x="363" y="32"/>
      <point x="399" y="60" type="curve"/>
      <point x="397" y="48" type="line"/>
      <point x="361" y="20"/>
      <point x="302" y="-10"/>
      <point x="236" y="-10" type="curve" smooth="yes"/>
      <point x="104" y="-10"/>
      <point x="32" y="105"/>
      <point x="50" y="230" type="curve" smooth="yes"/>
      <point x="70" y="362"/>
      <point x="184" y="470"/>
      <point x="318" y="470" type="curve" smooth="yes"/>
      <point x="380" y="470"/>
      <point x="431" y="443"/>
      <point x="459" y="412" type="curve"/>
      <point x="457" y="400" type="line"/>
      <point x="431" y="432"/>
      <point x="379" y="460"/>
      <point x="317" y="460" type="curve" smooth="yes"/>
      <point x="189" y="460"/>
      <point x="80" y="356"/>
    </contour>
    <contour>
      <point x="498" y="696" type="line"/>
      <point x="304" y="541" type="line"/>
      <point x="298" y="546" type="line"/>
      <point x="492" y="704" type="line"/>
    </contour>
  </outline>
</glyph>
<glyph name="ccircumflex" format="2">
  <advance width="473"/>
  <unicode hex="0109"/>
  <outline>
    <contour>
      <point x="60" y="230" type="curve" smooth="yes"/>
      <point x="42" y="110"/>
      <point x="112" y="0"/>
      <point x="238" y="0" type="curve" smooth="yes"/>
      <point x="306" y="0"/>
      <point x="363" y="32"/>
      <point x="399" y="60" type="curve"/>
      <point x="397" y="48" type="line"/>
      <point x="361" y="20"/>
      <point x="302" y="-10"/>
      <point x="236" y="-10" type="curve" smooth="yes"/>
      <point x="104" y="-10"/>
      <point x="32" y="105"/>
      <point x="50" y="230" type="curve" smooth="yes"/>
      <point x="70" y="362"/>
      <point x="184" y="470"/>
      <point x="318" y="470" type="curve" smooth="yes"/>
      <point x="380" y="470"/>
      <point x="431" y="443"/>
      <point x="459" y="412" type="curve"/>
      <point x="457" y="400" type="line"/>
      <point x="431" y="432"/>
      <point x="379" y="460"/>
      <point x="317" y="460" type="curve" smooth="yes"/>
      <point x="189" y="460"/>
      <point x="80" y="356"/>
    </contour>
    <contour>
      <point x="352" y="664" type="line"/>
      <point x="180" y="531" type="line"/>
      <point x="174" y="538" type="line"/>
      <point x="353" y="676" type="line"/>
      <point x="485" y="537" type="line"/>
      <point x="478" y="530" type="line"/>
    </contour>
  </outline>
</glyph>
<glyph name="Ccaron" format="2">
  <advance width="664"/>
  <unicode hex="010C"/>
  <outline>
    <contour>
      <point x="93" y="350" type="curve" smooth="yes"/>
      <point x="67" y="174"/>
      <point x="153" y="6"/>
      <point x="342" y="4" type="curve" smooth="yes"/>
      <point x="436" y="4"/>
      <point x="510" y="35"/>
      <point x="576" y="87" type="curve"/>
      <point x="572" y="72" type="line"/>
      <point x="506" y="24"/>
      <point x="435" y="-8"/>
      <point x="341" y="-8" type="curve" smooth="yes"/>
      <point x="145" y="-6"/>
      <point x="54" y="166"/>
      <point x="81" y="350" type="curve" smooth="yes"/>
      <point x="111" y="546"/>
      <point x="264" y="707"/>
      <point x="462" y="708" type="curve" smooth="yes"/>
      <point x="550" y="708"/>
      <point x="613" y="681"/>
      <point x="668" y="628" type="curve"/>
      <point x="665" y="614" type="line"/>
      <point x="613" y="671"/>
      <point x="545" y="696"/>
      <point x="461" y="696" type="curve" smooth="yes"/>
      <point x="270" y="695"/>
      <point x="123" y="539"/>
    </contour>
    <contour>
      <point x="476" y="790" type="line"/>
      <point x="648" y="925" type="line"/>
      <point x="654" y="917" type="line"/>
      <point x="474" y="778" type="line"/>
      <point x="342" y="918" type="line"/>
      <point x="352" y="926" type="line"/>
    </contour>
  </outline>
</glyph>
<glyph name="Dcaron" format="2">
  <advance width="616"/>
  <unicode hex="010E"/>
  <outline>
    <contour>
      <point x="180" y="700" type="line"/>
      <point x="191" y="700" type="line"/>
      <point x="70" y="0" type="line"/>
      <point x="60" y="0" type="line"/>
    </contour>
    <contour>
      <point x="216" y="0" type="curve"/>
      <point x="65" y="0" type="line"/>
      <point x="67" y="11" type="line"/>
      <point x="217" y="11" type="line"/>
      <point x="416" y="14"/>
      <point x="559" y="157"/>
      <point x="590" y="350" type="curve" smooth="yes"/>
      <point x="618" y="533"/>
      <point x="530" y="685"/>
      <point x="334" y="689" type="curve"/>
      <point x="182" y="689" type="line"/>
      <point x="184" y="700" type="line"/>
      <point x="334" y="700" type="line"/>
      <point x="535" y="696"/>
      <point x="628" y="538"/>
      <point x="600" y="350" type="curve" smooth="yes"/>
      <point x="568" y="152"/>
      <point x="420" y="3"/>
    </contour>
    <contour>
      <point x="419" y="810" type="line"/>
      <point x="590" y="945" type="line"/>
      <point x="598" y="937" type="line"/>
      <point x="418" y="798" type="line"/>
      <point x="286" y="938" type="line"/>
      <point x="294" y="946" type="line"/>
    </contour>
  </outline>
</glyph>
<glyph name="Dcroat" format="2">
  <advance width="659"/>
  <unicode hex="0110"/>
  <outline>
    <contour>
      <point x="36" y="345" type="line"/>
      <point x="38" y="355" type="line"/>
      <point x="330" y="355" type="line"/>
      <point x="328" y="345" type="line"/>
    </contour>
    <contour>
      <point x="180" y="700" type="line"/>
      <point x="191" y="700" type="line"/>
      <point x="70" y="0" type="line"/>
      <point x="60" y="0" type="line"/>
    </contour>
    <contour>
      <point x="216" y="0" type="curve"/>
      <point x="65" y="0" type="line"/>
      <point x="67" y="11" type="line"/>
      <point x="217" y="11" type="line"/>
      <point x="415" y="15"/>
      <point x="559" y="158"/>
      <point x="590" y="350" type="curve" smooth="yes"/>
      <point x="618" y="532"/>
      <point x="529" y="685"/>
      <point x="334" y="689" type="curve"/>
      <point x="182" y="689" type="line"/>
      <point x="184" y="700" type="line"/>
      <point x="334" y="700" type="line"/>
      <point x="535" y="696"/>
      <point x="628" y="538"/>
      <point x="600" y="350" type="curve" smooth="yes"/>
      <point x="568" y="152"/>
      <point x="420" y="3"/>
    </contour>
  </outline>
</glyph>
<glyph name="dcroat" format="2">
  <advance width="525"/>
  <unicode hex="0111"/>
  <outline>
    <contour>
      <point x="371" y="655" type="line"/>
      <point x="372" y="665" type="line"/>
      <point x="664" y="665" type="line"/>
      <point x="662" y="655" type="line"/>
    </contour>
    <contour>
      <point x="544" y="780" type="line"/>
      <point x="554" y="780" type="line"/>
      <point x="420" y="0" type="line"/>
      <point x="410" y="0" type="line"/>
    </contour>
    <contour>
      <point x="56" y="230" type="curve" smooth="yes"/>
      <point x="76" y="363"/>
      <point x="177" y="472"/>
      <point x="303" y="470" type="curve" smooth="yes"/>
      <point x="423" y="468"/>
      <point x="471" y="342"/>
      <point x="455" y="230" type="curve" smooth="yes"/>
      <point x="437" y="110"/>
      <point x="343" y="-10"/>
      <point x="222" y="-10" type="curve" smooth="yes"/>
      <point x="96" y="-10"/>
      <point x="38" y="104"/>
    </contour>
    <contour>
      <point x="66" y="230" type="curve" smooth="yes"/>
      <point x="50" y="111"/>
      <point x="105" y="-1"/>
      <point x="226" y="0" type="curve" smooth="yes"/>
      <point x="343" y="1"/>
      <point x="432" y="124"/>
      <point x="450" y="230" type="curve" smooth="yes"/>
      <point x="465" y="326"/>
      <point x="421" y="458"/>
      <point x="305" y="460" type="curve" smooth="yes"/>
      <point x="184" y="462"/>
      <point x="85" y="356"/>
    </contour>
  </outline>
</glyph>
<glyph name="Emacron" format="2">
  <advance width="494"/>
  <unicode hex="0112"/>
  <outline>
    <contour>
      <point x="62" y="0" type="line"/>
      <point x="64" y="10" type="line"/>
      <point x="392" y="10" type="line"/>
      <point x="390" y="0" type="line"/>
    </contour>
    <contour>
      <point x="180" y="690" type="line"/>
      <point x="182" y="700" type="line"/>
      <point x="510" y="700" type="line"/>
      <point x="508" y="690" type="line"/>
    </contour>
    <contour>
      <point x="128" y="384" type="line"/>
      <point x="130" y="394" type="line"/>
      <point x="438" y="394" type="line"/>
      <point x="436" y="384" type="line"/>
    </contour>
    <contour>
      <point x="180" y="700" type="line"/>
      <point x="191" y="700" type="line"/>
      <point x="70" y="0" type="line"/>
      <point x="60" y="0" type="line"/>
    </contour>
    <contour>
      <point x="217" y="835" type="line"/>
      <point x="219" y="845" type="line"/>
      <point x="558" y="845" type="line"/>
      <point x="557" y="835" type="line"/>
    </contour>
  </outline>
</glyph>
<glyph name="Ebreve" format="2">
  <advance width="494"/>
  <unicode hex="0114"/>
  <outline>
    <contour>
      <point x="62" y="0" type="line"/>
      <point x="64" y="10" type="line"/>
      <point x="392" y="10" type="line"/>
      <point x="390" y="0" type="line"/>
    </contour>
    <contour>
      <point x="180" y="690" type="line"/>
      <point x="182" y="700" type="line"/>
      <point x="510" y="700" type="line"/>
      <point x="508" y="690" type="line"/>
    </contour>
    <contour>
      <point x="128" y="384" type="line"/>
      <point x="130" y="394" type="line"/>
      <point x="438" y="394" type="line"/>
      <point x="436" y="384" type="line"/>
    </contour>
    <contour>
      <point x="180" y="700" type="line"/>
      <point x="191" y="700" type="line"/>
      <point x="70" y="0" type="line"/>
      <point x="60" y="0" type="line"/>
    </contour>
    <contour>
      <point x="236" y="908" type="curve"/>
      <point x="246" y="908" type="line"/>
      <point x="240" y="840"/>
      <point x="281" y="778"/>
      <point x="367" y="778" type="curve" smooth="yes"/>
      <point x="455" y="778"/>
      <point x="514" y="840"/>
      <point x="534" y="907" type="curve"/>
      <point x="544" y="907" type="line"/>
      <point x="524" y="835"/>
      <point x="464" y="768"/>
      <point x="366" y="768" type="curve" smooth="yes"/>
      <point x="270" y="768"/>
      <point x="229" y="835"/>
    </contour>
  </outline>
</glyph>
<glyph name="Edotaccent" format="2">
  <advance width="494"/>
  <unicode hex="0116"/>
  <outline>
    <contour>
      <point x="62" y="0" type="line"/>
      <point x="64" y="10" type="line"/>
      <point x="392" y="10" type="line"/>
      <point x="390" y="0" type="line"/>
    </contour>
    <contour>
      <point x="180" y="690" type="line"/>
      <point x="182" y="700" type="line"/>
      <point x="510" y="700" type="line"/>
      <point x="508" y="690" type="line"/>
    </contour>
    <contour>
      <point x="128" y="384" type="line"/>
      <point x="130" y="394" type="line"/>
      <point x="438" y="394" type="line"/>
      <point x="436" y="384" type="line"/>
    </contour>
    <contour>
      <point x="180" y="700" type="line"/>
      <point x="191" y="700" type="line"/>
      <point x="70" y="0" type="line"/>
      <point x="60" y="0" type="line"/>
    </contour>
    <contour>
      <point x="348" y="779" type="curve" smooth="yes"/>
      <point x="348" y="785"/>
      <point x="354" y="790"/>
      <point x="360" y="790" type="curve" smooth="yes"/>
      <point x="366" y="790"/>
      <point x="369" y="785"/>
      <point x="369" y="779" type="curve" smooth="yes"/>
      <point x="369" y="773"/>
      <point x="362" y="768"/>
      <point x="356" y="768" type="curve" smooth="yes"/>
      <point x="350" y="768"/>
      <point x="348" y="773"/>
    </contour>
  </outline>
</glyph>
<glyph name="Eogonek" format="2">
  <advance width="494"/>
  <unicode hex="0118"/>
  <outline>
    <contour>
      <point x="62" y="0" type="line"/>
      <point x="64" y="10" type="line"/>
      <point x="392" y="10" type="line"/>
      <point x="390" y="0" type="line"/>
    </contour>
    <contour>
      <point x="180" y="690" type="line"/>
      <point x="182" y="700" type="line"/>
      <point x="510" y="700" type="line"/>
      <point x="508" y="690" type="line"/>
    </contour>
    <contour>
      <point x="128" y="384" type="line"/>
      <point x="130" y="394" type="line"/>
      <point x="438" y="394" type="line"/>
      <point x="436" y="384" type="line"/>
    </contour>
    <contour>
      <point x="180" y="700" type="line"/>
      <point x="191" y="700" type="line"/>
      <point x="70" y="0" type="line"/>
      <point x="60" y="0" type="line"/>
    </contour>
    <contour>
      <point x="394" y="-174" type="curve"/>
      <point x="400" y="-181" type="line"/>
      <point x="376" y="-201"/>
      <point x="339" y="-220"/>
      <point x="298" y="-220" type="curve" smooth="yes"/>
      <point x="242" y="-220"/>
      <point x="203" y="-190"/>
      <point x="210" y="-140" type="curve" smooth="yes"/>
      <point x="221" y="-66"/>
      <point x="317" y="-23"/>
      <point x="385" y="10" type="curve"/>
      <point x="390" y="0" type="line"/>
      <point x="325" y="-31"/>
      <point x="230" y="-74"/>
      <point x="220" y="-140" type="curve" smooth="yes"/>
      <point x="214" y="-185"/>
      <point x="253" y="-210"/>
      <point x="298" y="-210" type="curve" smooth="yes"/>
      <point x="336" y="-210"/>
      <point x="372" y="-192"/>
    </contour>
  </outline>
</glyph>
<glyph name="eogonek" format="2">
  <advance width="487"/>
  <unicode hex="0119"/>
  <outline>
    <contour>
      <point x="68" y="228" type="line"/>
      <point x="70" y="238" type="line"/>
      <point x="452" y="238" type="line"/>
      <point x="474" y="344"/>
      <point x="416" y="458"/>
      <point x="302" y="459" type="curve" smooth="yes"/>
      <point x="187" y="460"/>
      <point x="90" y="357"/>
      <point x="72" y="233" type="curve"/>
      <point x="72" y="232" type="line"/>
      <point x="60" y="118"/>
      <point x="109" y="1"/>
      <point x="225" y="0" type="curve" smooth="yes"/>
      <point x="325" y="-1"/>
      <point x="384" y="58"/>
      <point x="428" y="112" type="curve"/>
      <point x="436" y="106" type="line"/>
      <point x="390" y="52"/>
      <point x="332" y="-10"/>
      <point x="224" y="-10" type="curve" smooth="yes"/>
      <point x="102" y="-10"/>
      <point x="48" y="112"/>
      <point x="62" y="232" type="curve" smooth="yes"/>
      <point x="66" y="258"/>
      <point x="74" y="284"/>
      <point x="84" y="308" type="curve" smooth="yes"/>
      <point x="122" y="396"/>
      <point x="202" y="470"/>
      <point x="302" y="470" type="curve" smooth="yes"/>
      <point x="412" y="469"/>
      <point x="480" y="364"/>
      <point x="466" y="254" type="curve" smooth="yes"/>
      <point x="464" y="246"/>
      <point x="462" y="236"/>
      <point x="460" y="228" type="curve"/>
    </contour>
    <contour>
      <point x="238" y="-177" type="curve"/>
      <point x="243" y="-184" type="line"/>
      <point x="219" y="-204"/>
      <point x="183" y="-223"/>
      <point x="142" y="-223" type="curve" smooth="yes"/>
      <point x="86" y="-223"/>
      <point x="48" y="-193"/>
      <point x="54" y="-143" type="curve" smooth="yes"/>
      <point x="64" y="-69"/>
      <point x="156" y="-32"/>
      <point x="224" y="0" type="curve"/>
      <point x="231" y="-9" type="line"/>
      <point x="167" y="-40"/>
      <point x="73" y="-76"/>
      <point x="64" y="-144" type="curve" smooth="yes"/>
      <point x="59" y="-189"/>
      <point x="97" y="-213"/>
      <point x="142" y="-213" type="curve" smooth="yes"/>
      <point x="180" y="-213"/>
      <point x="216" y="-195"/>
    </contour>
  </outline>
</glyph>
<glyph name="Ecaron" format="2">
  <advance width="494"/>
  <unicode hex="011A"/>
  <outline>
    <contour>
      <point x="62" y="0" type="line"/>
      <point x="64" y="10" type="line"/>
      <point x="392" y="10" type="line"/>
      <point x="390" y="0" type="line"/>
    </contour>
    <contour>
      <point x="180" y="690" type="line"/>
      <point x="182" y="700" type="line"/>
      <point x="510" y="700" type="line"/>
      <point x="508" y="690" type="line"/>
    </contour>
    <contour>
      <point x="128" y="384" type="line"/>
      <point x="130" y="394" type="line"/>
      <point x="438" y="394" type="line"/>
      <point x="436" y="384" type="line"/>
    </contour>
    <contour>
      <point x="180" y="700" type="line"/>
      <point x="191" y="700" type="line"/>
      <point x="70" y="0" type="line"/>
      <point x="60" y="0" type="line"/>
    </contour>
    <contour>
      <point x="358" y="780" type="line"/>
      <point x="529" y="915" type="line"/>
      <point x="536" y="907" type="line"/>
      <point x="356" y="768" type="line"/>
      <point x="224" y="908" type="line"/>
      <point x="234" y="916" type="line"/>
    </contour>
  </outline>
</glyph>
